STARTFONT 2.2
FONT -FontForge-Noto Emoji-Bold-R-Normal--25-240-75-75-P-312-ISO10646-1
SIZE 24 75 75
FONTBOUNDINGBOX 32 27 0 -5
METRICSSET 2
SWIDTH 1270 0
DWIDTH 32 0
SWIDTH1 1270 0
DWIDTH1 32 0
VVECTOR 12,20
COMMENT "Generated by fontforge, http://fontforge.sourceforge.net"
COMMENT "Copyright 2013, 2021 Google Inc. All Rights Reserved."
STARTPROPERTIES 39
FOUNDRY "FontForge"
FAMILY_NAME "Noto Emoji"
WEIGHT_NAME "Bold"
SLANT "R"
SETWIDTH_NAME "Normal"
ADD_STYLE_NAME ""
PIXEL_SIZE 25
POINT_SIZE 240
RESOLUTION_X 75
RESOLUTION_Y 75
SPACING "P"
AVERAGE_WIDTH 312
CHARSET_REGISTRY "ISO10646"
CHARSET_ENCODING "1"
FONTNAME_REGISTRY ""
CHARSET_COLLECTIONS "ISO10646-1"
FONT_NAME "NotoEmoji-Bold"
FACE_NAME "Noto Emoji Bold"
COPYRIGHT "Copyright 2013, 2021 Google Inc. All Rights Reserved."
FONT_VERSION "1.002"
FONT_ASCENT 20
FONT_DESCENT 5
UNDERLINE_POSITION 14
UNDERLINE_THICKNESS 2
DEFAULT_CHAR 1
RAW_ASCENT 799
RAW_DESCENT 200
NORM_SPACE 32
RELATIVE_WEIGHT 70
RELATIVE_SETWIDTH 50
SUPERSCRIPT_X 0
SUPERSCRIPT_Y 11
SUPERSCRIPT_SIZE 17
SUBSCRIPT_X 0
SUBSCRIPT_Y 3
SUBSCRIPT_SIZE 17
FIGURE_WIDTH 32
AVG_LOWERCASE_WIDTH 320
AVG_UPPERCASE_WIDTH 320
ENDPROPERTIES
CHARS 1853
STARTCHAR uni0000
ENCODING 0
SWIDTH 585 0
DWIDTH 15 0
SWIDTH1 1562 0
DWIDTH1 39 0
BBX 1 1 0 0
BITMAP
00
ENDCHAR
STARTCHAR uni000D
ENCODING 13
SWIDTH 585 0
DWIDTH 15 0
SWIDTH1 1269 0
BBX 1 1 0 0
BITMAP
00
ENDCHAR
STARTCHAR space
ENCODING 32
SWIDTH 1269 0
SWIDTH1 1269 0
BBX 1 1 0 0
BITMAP
00
ENDCHAR
STARTCHAR numbersign
ENCODING 35
SWIDTH 1269 0
SWIDTH1 1269 0
BBX 12 14 10 2
BITMAP
0CC0
0CC0
0CC0
0CC0
7FF0
7FF0
1980
1980
FFE0
FFE0
3300
3300
3300
3300
ENDCHAR
STARTCHAR asterisk
ENCODING 42
SWIDTH 1269 0
SWIDTH1 1269 0
BBX 12 11 10 4
BITMAP
0E00
0E00
0600
0620
FFE0
FFF0
0F00
1F00
1B80
39C0
1980
ENDCHAR
STARTCHAR zero
ENCODING 48
SWIDTH 1269 0
SWIDTH1 1269 0
BBX 10 15 11 2
BITMAP
0800
3F00
7F80
7380
E380
E1C0
E1C0
E1C0
E1C0
E1C0
E180
E380
7F80
3F00
1E00
ENDCHAR
STARTCHAR one
ENCODING 49
SWIDTH 1269 0
SWIDTH1 1269 0
BBX 6 14 13 2
BITMAP
1C
3C
FC
FC
DC
1C
1C
1C
1C
1C
1C
1C
1C
1C
ENDCHAR
STARTCHAR two
ENCODING 50
SWIDTH 1269 0
SWIDTH1 1269 0
BBX 10 14 11 2
BITMAP
7F00
FF80
6380
0380
0380
0380
0700
0E00
1C00
3800
7000
FFC0
FFC0
FFC0
ENDCHAR
STARTCHAR three
ENCODING 51
SWIDTH 1269 0
SWIDTH1 1269 0
BBX 10 15 11 2
BITMAP
0800
7F00
FF80
4380
0380
0380
3F00
3E00
3F80
03C0
01C0
03C0
FF80
FF00
7E00
ENDCHAR
STARTCHAR four
ENCODING 52
SWIDTH 1269 0
SWIDTH1 1269 0
BBX 10 14 11 2
BITMAP
0700
0F00
0F00
1B00
3B00
3300
7300
E300
FFC0
FFC0
FFC0
0300
0300
0300
ENDCHAR
STARTCHAR five
ENCODING 53
SWIDTH 1269 0
SWIDTH1 1269 0
BBX 10 14 11 2
BITMAP
7F80
7F80
7000
6000
6000
7F00
FF80
0380
03C0
0180
0380
FF80
FF00
7C00
ENDCHAR
STARTCHAR six
ENCODING 54
SWIDTH 1269 0
SWIDTH1 1269 0
BBX 10 14 11 2
BITMAP
1F80
3F80
7000
6000
E000
FF80
FF80
E3C0
E1C0
E1C0
E1C0
7F80
3F80
1E00
ENDCHAR
STARTCHAR seven
ENCODING 55
SWIDTH 1269 0
SWIDTH1 1269 0
BBX 10 14 11 2
BITMAP
FFC0
FFC0
0180
0380
0380
0700
0700
0E00
0E00
1C00
1C00
3C00
3800
3800
ENDCHAR
STARTCHAR eight
ENCODING 56
SWIDTH 1269 0
SWIDTH1 1269 0
BBX 10 14 11 2
BITMAP
3F00
7F80
E380
E380
7380
3F00
3E00
7F80
E380
E1C0
E1C0
F780
7F80
1E00
ENDCHAR
STARTCHAR nine
ENCODING 57
SWIDTH 1269 0
SWIDTH1 1269 0
BBX 10 15 11 2
BITMAP
0800
3F00
7F80
E380
E1C0
E1C0
E1C0
FFC0
7FC0
39C0
0180
0380
7F00
7E00
7800
ENDCHAR
STARTCHAR copyright
ENCODING 169
SWIDTH 1269 0
SWIDTH1 1269 0
BBX 26 25 3 -4
BITMAP
00FFC000
03FFF000
07807800
0E003C00
1C040E00
383FC700
70FF8700
70E08380
61C00180
E1C00180
E38001C0
C38001C0
C38001C0
C38001C0
E38001C0
E1C00180
61C00180
70E08380
70FF8700
387F8700
1C000E00
0E003C00
0780F800
03FFF000
00FFC000
ENDCHAR
STARTCHAR registered
ENCODING 174
SWIDTH 1269 0
SWIDTH1 1269 0
BBX 26 25 3 -4
BITMAP
00FFC000
03FFF000
07807800
0E001C00
1C000E00
38FF0700
70FF8300
70E3C380
60E1C180
E0E1C180
E0E1C1C0
C0E3C1C0
C0FF81C0
C0FE01C0
E0E701C0
E0E38180
60E38180
70E1C380
30E1C300
38E0E700
1C000E00
0E001C00
0780F800
03FFF000
00FF8000
ENDCHAR
STARTCHAR uni200D
ENCODING 8205
SWIDTH 0 0
DWIDTH 0 0
SWIDTH1 0 0
DWIDTH1 0 0
BBX 1 1 0 0
BITMAP
00
ENDCHAR
STARTCHAR doubleExclamationMark
ENCODING 8252
SWIDTH 1269 0
SWIDTH1 1269 0
BBX 15 25 8 -4
BITMAP
7C3E
7C3E
7C3E
7C3E
7C3E
7C3E
7C3E
7C3E
7C3E
7C3E
7C3E
7C3E
7C3E
7C3E
7C3E
7C3E
7C3E
0000
0000
301C
7C3E
FC7E
FC7E
7C3E
783C
ENDCHAR
STARTCHAR exclamationQuestionMark
ENCODING 8265
SWIDTH 1269 0
SWIDTH1 1269 0
BBX 22 25 5 -4
BITMAP
F81FE0
F87FF0
F8FFF8
F8FDFC
F9F07C
F9F03C
F9E03C
F8003C
F8007C
F800F8
F801F8
F803F0
F807E0
F807C0
F80F80
F80F80
F80F00
000000
000000
700600
F80F80
FC1F80
FC1F80
F81F80
780F00
ENDCHAR
STARTCHAR uni20E3
ENCODING 8419
SWIDTH 1269 0
SWIDTH1 1269 0
BBX 26 25 3 -4
BITMAP
FFFFFF80
800000C0
800001C0
800003C0
800007C0
800007C0
800007C0
800007C0
800007C0
800007C0
800007C0
800007C0
800007C0
800007C0
800007C0
800007C0
800007C0
800007C0
800007C0
800007C0
80000FC0
8FFFFFC0
9FFFFFC0
BFFFFFC0
FFFFFF80
ENDCHAR
STARTCHAR tradeMark
ENCODING 8482
SWIDTH 1269 0
SWIDTH1 1269 0
BBX 27 13 2 2
BITMAP
FFEF83E0
FFEF83E0
FFEFC3E0
0E0FC7E0
0E0FC7E0
0E0EE6E0
0E0EEEE0
0E0EEEE0
0E0E6EE0
0E0E7CE0
0E0E7CE0
0E0E7CE0
0E0E3CE0
ENDCHAR
STARTCHAR information
ENCODING 8505
SWIDTH 1269 0
SWIDTH1 1269 0
BBX 26 25 3 -4
BITMAP
FFFFFF80
FFFFFFC0
FFFFFFC0
FFF7FFC0
FFE1FFC0
FFE1FFC0
FFE1FFC0
FFF3FFC0
FFFFFFC0
FFE1FFC0
FFE1FFC0
FFE1FFC0
FFE1FFC0
FFE1FFC0
FFE1FFC0
FFE1FFC0
FFE1FFC0
FFE1FFC0
FFE1FFC0
FFE1FFC0
FFE1FFC0
FFE1FFC0
FFFFFFC0
FFFFFFC0
7FFFFF80
ENDCHAR
STARTCHAR arrowboth
ENCODING 8596
SWIDTH 1269 0
SWIDTH1 1269 0
BBX 26 25 3 -4
BITMAP
FFFFFF80
FFFFFFC0
FFFFFFC0
FFFFFFC0
FFFFFFC0
FFFFFFC0
FFFFFFC0
FFFF7FC0
FE7F3FC0
FC7F1FC0
F87F0FC0
F00007C0
E00003C0
F00007C0
F87F0FC0
FC7F1FC0
FF7F3FC0
FFFF7FC0
FFFFFFC0
FFFFFFC0
FFFFFFC0
FFFFFFC0
FFFFFFC0
FFFFFFC0
7FFFFF80
ENDCHAR
STARTCHAR arrowupdn
ENCODING 8597
SWIDTH 1269 0
SWIDTH1 1269 0
BBX 26 25 3 -4
BITMAP
FFFFFF80
FFFFFFC0
FFFFFFC0
FFF3FFC0
FFE3FFC0
FFC1FFC0
FF80FFC0
FF007FC0
FF003FC0
FFE1FFC0
FFE1FFC0
FFE1FFC0
FFE1FFC0
FFE1FFC0
FFE1FFC0
FFE1FFC0
FF003FC0
FF807FC0
FFC0FFC0
FFC1FFC0
FFE3FFC0
FFF7FFC0
FFFFFFC0
FFFFFFC0
7FFFFF80
ENDCHAR
STARTCHAR upLeftArrow
ENCODING 8598
SWIDTH 1269 0
SWIDTH1 1269 0
BBX 26 25 3 -4
BITMAP
FFFFFF80
FFFFFFC0
FFFFFFC0
FFFFFFC0
FFFFFFC0
FFFFFFC0
FE01FFC0
FE03FFC0
FE07FFC0
FE07FFC0
FE03FFC0
FE01FFC0
FE60FFC0
FEF07FC0
FFF83FC0
FFFC1FC0
FFFE0FC0
FFFF0FC0
FFFF9FC0
FFFFFFC0
FFFFFFC0
FFFFFFC0
FFFFFFC0
FFFFFFC0
7FFFFF80
ENDCHAR
STARTCHAR upRightArrow
ENCODING 8599
SWIDTH 1269 0
SWIDTH1 1269 0
BBX 26 25 3 -4
BITMAP
FFFFFF80
FFFFFFC0
FFFFFFC0
FFFFFFC0
FFFFFFC0
FFFFFFC0
FFE01FC0
FFF01FC0
FFF81FC0
FFF81FC0
FFF01FC0
FFE01FC0
FFC19FC0
FF83DFC0
FF07FFC0
FE0FFFC0
FC1FFFC0
FC3FFFC0
FE7FFFC0
FFFFFFC0
FFFFFFC0
FFFFFFC0
FFFFFFC0
FFFFFFC0
7FFFFF80
ENDCHAR
STARTCHAR downRightArrow
ENCODING 8600
SWIDTH 1269 0
SWIDTH1 1269 0
BBX 26 25 3 -4
BITMAP
FFFFFF80
FFFFFFC0
FFFFFFC0
FFFFFFC0
FFFFFFC0
FFFFFFC0
FE7FFFC0
FC3FFFC0
FC1FFFC0
FE0FFFC0
FF07FFC0
FF83DFC0
FFC19FC0
FFE01FC0
FFF01FC0
FFF81FC0
FFF81FC0
FFF01FC0
FFE01FC0
FFFFFFC0
FFFFFFC0
FFFFFFC0
FFFFFFC0
FFFFFFC0
7FFFFF80
ENDCHAR
STARTCHAR downLeftArrow
ENCODING 8601
SWIDTH 1269 0
SWIDTH1 1269 0
BBX 26 25 3 -4
BITMAP
FFFFFF80
FFFFFFC0
FFFFFFC0
FFFFFFC0
FFFFFFC0
FFFFFFC0
FFFF9FC0
FFFF0FC0
FFFE0FC0
FFFC1FC0
FFF83FC0
FEF07FC0
FE60FFC0
FE01FFC0
FE03FFC0
FE07FFC0
FE07FFC0
FE03FFC0
FE01FFC0
FFFFFFC0
FFFFFFC0
FFFFFFC0
FFFFFFC0
FFFFFFC0
7FFFFF80
ENDCHAR
STARTCHAR rightArrowCurvingLeft
ENCODING 8617
SWIDTH 1269 0
SWIDTH1 1269 0
BBX 26 25 3 -4
BITMAP
FFFFFF80
FFFFFFC0
FFFFFFC0
FFFFFFC0
FFC01FC0
FFC00FC0
FFC007C0
FFFF83C0
FFFFE3C0
FFFFE1C0
FF7FE1C0
FE7FE1C0
FC7FE3C0
F87F83C0
F00007C0
E0000FC0
F0001FC0
F87FFFC0
FC7FFFC0
FE7FFFC0
FF7FFFC0
FFFFFFC0
FFFFFFC0
FFFFFFC0
7FFFFF80
ENDCHAR
STARTCHAR leftArrowCurvingRight
ENCODING 8618
SWIDTH 1269 0
SWIDTH1 1269 0
BBX 26 25 3 -4
BITMAP
FFFFFF80
FFFFFFC0
FFFFFFC0
FFFFFFC0
FE00FFC0
F800FFC0
F000FFC0
F0FFFFC0
E1FFFFC0
E1FFFFC0
E3FFBFC0
E1FF9FC0
E1FF8FC0
F07F87C0
F00003C0
F80001C0
FE0003C0
FFFF87C0
FFFF8FC0
FFFFBFC0
FFFFFFC0
FFFFFFC0
FFFFFFC0
FFFFFFC0
7FFFFF80
ENDCHAR
STARTCHAR uni231A
ENCODING 8986
SWIDTH 1269 0
SWIDTH1 1269 0
BBX 20 25 6 -4
BITMAP
1FFE00
100200
3FFF00
3FFF00
7F3F80
784780
740B80
600180
C000C0
D00240
820840
83F070
A1C170
80C070
800040
D00240
C000C0
640980
744B80
784780
7F3F80
3FFF00
300300
100200
1FFE00
ENDCHAR
STARTCHAR hourglassDone
ENCODING 8987
SWIDTH 1269 0
SWIDTH1 1269 0
BBX 16 25 8 -4
BITMAP
FFFF
FFFF
8001
F81F
FFFE
C002
4002
4006
6004
300C
1818
0C70
0640
0C30
1998
338C
67C4
47E6
4FF2
DFFA
FFFE
FFFF
9FF1
E007
7FFE
ENDCHAR
STARTCHAR uni2328
ENCODING 9000
SWIDTH 1269 0
SWIDTH1 1269 0
BBX 28 17 2 0
BITMAP
7FFFFFE0
C0000070
80000030
96BDEDB0
80000030
9B5AD6B0
9B5EF7B0
80000030
9DAD6FB0
9D2D6FB0
92FFE4B0
96FFF5B0
80000030
FFFFFFF0
FFFFFFF0
E0000070
7FFFFFE0
ENDCHAR
STARTCHAR ejectButton
ENCODING 9167
SWIDTH 1269 0
SWIDTH1 1269 0
BBX 26 25 3 -4
BITMAP
FFFFFF80
FFFFFFC0
FFFFFFC0
FFFFFFC0
FFFFFFC0
FFF3FFC0
FFE3FFC0
FFE1FFC0
FFC0FFC0
FFC0FFC0
FF807FC0
FF007FC0
FF003FC0
FE003FC0
FE001FC0
FFFFFFC0
FFFFFFC0
FC001FC0
FC001FC0
FC001FC0
FFFFFFC0
FFFFFFC0
FFFFFFC0
FFFFFFC0
7FFFFF80
ENDCHAR
STARTCHAR fastForwardButton
ENCODING 9193
SWIDTH 1269 0
SWIDTH1 1269 0
BBX 26 25 3 -4
BITMAP
FFFFFF80
FFFFFFC0
FFFFFFC0
FFFFFFC0
FFFFFFC0
FFFFFFC0
FFFFFFC0
FBF3FFC0
F8F0FFC0
F8707FC0
F8101FC0
F80007C0
F80003C0
F8000FC0
F8101FC0
F8707FC0
F8F1FFC0
FBF3FFC0
FFFFFFC0
FFFFFFC0
FFFFFFC0
FFFFFFC0
FFFFFFC0
FFFFFFC0
7FFFFF80
ENDCHAR
STARTCHAR fastReverseButton
ENCODING 9194
SWIDTH 1269 0
SWIDTH1 1269 0
BBX 26 25 3 -4
BITMAP
FFFFFF80
FFFFFFC0
FFFFFFC0
FFFFFFC0
FFFFFFC0
FFFFFFC0
FFFFFFC0
FFF7F7C0
FFC7C7C0
FF8707C0
FE0607C0
F80007C0
F00007C0
F80007C0
FE0607C0
FF8707C0
FFC7C7C0
FFF7F7C0
FFFFFFC0
FFFFFFC0
FFFFFFC0
FFFFFFC0
FFFFFFC0
FFFFFFC0
7FFFFF80
ENDCHAR
STARTCHAR fastUpButton
ENCODING 9195
SWIDTH 1269 0
SWIDTH1 1269 0
BBX 26 25 3 -4
BITMAP
FFFFFF80
FFFFFFC0
FFFFFFC0
FFFFFFC0
FFF3FFC0
FFE3FFC0
FFE1FFC0
FFC1FFC0
FFC0FFC0
FF807FC0
FF007FC0
FF003FC0
FE003FC0
FFE3FFC0
FFE1FFC0
FFC0FFC0
FFC0FFC0
FF807FC0
FF007FC0
FF003FC0
FE001FC0
FFFFFFC0
FFFFFFC0
FFFFFFC0
7FFFFF80
ENDCHAR
STARTCHAR fastDownButton
ENCODING 9196
SWIDTH 1269 0
SWIDTH1 1269 0
BBX 26 25 3 -4
BITMAP
FFFFFF80
FFFFFFC0
FFFFFFC0
FFFFFFC0
FE001FC0
FF003FC0
FF007FC0
FF807FC0
FFC0FFC0
FFC0FFC0
FFE1FFC0
FFE3FFC0
FE003FC0
FF003FC0
FF807FC0
FF807FC0
FFC0FFC0
FFC1FFC0
FFE1FFC0
FFF3FFC0
FFF3FFC0
FFFFFFC0
FFFFFFC0
FFFFFFC0
7FFFFF80
ENDCHAR
STARTCHAR nextTrackButton
ENCODING 9197
SWIDTH 1269 0
SWIDTH1 1269 0
BBX 26 25 3 -4
BITMAP
FFFFFF80
FFFFFFC0
FFFFFFC0
FFFFFFC0
FFFFFFC0
FFFFFFC0
FFFFFFC0
F7E7E3C0
F1E1E3C0
F0E0E3C0
F02023C0
F00003C0
F00003C0
F00003C0
F02023C0
F0E0E3C0
F1E3E3C0
F7E7E3C0
FFFFFFC0
FFFFFFC0
FFFFFFC0
FFFFFFC0
FFFFFFC0
FFFFFFC0
7FFFFF80
ENDCHAR
STARTCHAR lastTrackButton
ENCODING 9198
SWIDTH 1269 0
SWIDTH1 1269 0
BBX 26 25 3 -4
BITMAP
FFFFFF80
FFFFFFC0
FFFFFFC0
FFFFFFC0
FFFFFFC0
FFFFFFC0
FFFFFFC0
F1FBFBC0
F1E3E3C0
F18383C0
F10303C0
F00003C0
F00003C0
F00003C0
F10303C0
F1C383C0
F1E3E3C0
F1FBFBC0
FFFFFFC0
FFFFFFC0
FFFFFFC0
FFFFFFC0
FFFFFFC0
FFFFFFC0
7FFFFF80
ENDCHAR
STARTCHAR playOrPauseButton
ENCODING 9199
SWIDTH 1269 0
SWIDTH1 1269 0
BBX 26 25 3 -4
BITMAP
FFFFFF80
FFFFFFC0
FFFFFFC0
FFFFFFC0
FFFFFFC0
FFFFFFC0
FFFFFFC0
F7FE63C0
F1FE63C0
F07E63C0
F03E63C0
F00E63C0
F00263C0
F00E63C0
F03E63C0
F0FE63C0
F1FE63C0
F7FE63C0
FFFFFFC0
FFFFFFC0
FFFFFFC0
FFFFFFC0
FFFFFFC0
FFFFFFC0
7FFFFF80
ENDCHAR
STARTCHAR uni23F0
ENCODING 9200
SWIDTH 1269 0
SWIDTH1 1269 0
BBX 22 25 5 -4
BITMAP
3C78F0
7F7BF0
7E31F8
78FC78
6F87F8
0C78C8
1B8660
2421B0
6902D0
500048
D400A8
A4002C
A08614
A0F814
A87054
A00014
A0002C
D400A8
500028
690658
2420B0
330320
1CFCC0
0F0380
09FEC0
ENDCHAR
STARTCHAR uni23F1
ENCODING 9201
SWIDTH 1269 0
SWIDTH1 1269 0
BBX 22 25 5 -4
BITMAP
007800
007800
003030
00F838
03DF38
0E31F8
198E60
3621B0
6D26D0
592058
5420A8
A420AC
A0203C
A03014
A87054
A00014
A0002C
D400A8
500068
698658
2420B0
130360
0CFCC0
070380
01FE00
ENDCHAR
STARTCHAR uni23F2
ENCODING 9202
SWIDTH 1269 0
SWIDTH1 1269 0
BBX 26 25 3 -4
BITMAP
00FF8000
03CCE000
06003800
0C7F8C00
19C8E600
1340F600
360C1300
26361900
6E233900
6C290D80
48290D80
4C291D80
48290480
48290C80
4C210C80
4F333880
C61E1880
C340B080
D9C8E680
CCFFCC80
C63F38C0
C38060C0
C08040C0
C00000C0
7FFFFF80
ENDCHAR
STARTCHAR hourglassNotDone
ENCODING 9203
SWIDTH 1269 0
SWIDTH1 1269 0
BBX 16 25 8 -4
BITMAP
FFFF
FFFF
8001
F81F
FFFE
C002
407A
5FF6
6FF4
37EC
1BD8
0D70
0640
0C30
1918
310C
6184
4386
43C2
C7E2
FFFE
FFFF
9FF1
E007
7FFE
ENDCHAR
STARTCHAR pauseButton
ENCODING 9208
SWIDTH 1269 0
SWIDTH1 1269 0
BBX 26 25 3 -4
BITMAP
FFFFFF80
FFFFFFC0
FFFFFFC0
FFFFFFC0
FFFFFFC0
FFFFFFC0
FFFFFFC0
FF1E3FC0
FF1E3FC0
FF1E3FC0
FF1E3FC0
FF1E3FC0
FF1E3FC0
FF1E3FC0
FF1E3FC0
FF1E3FC0
FF1E3FC0
FF1E3FC0
FFFFFFC0
FFFFFFC0
FFFFFFC0
FFFFFFC0
FFFFFFC0
FFFFFFC0
7FFFFF80
ENDCHAR
STARTCHAR stopButton
ENCODING 9209
SWIDTH 1269 0
SWIDTH1 1269 0
BBX 26 25 3 -4
BITMAP
FFFFFF80
FFFFFFC0
FFFFFFC0
FFFFFFC0
FFFFFFC0
FFFFFFC0
FFFFFFC0
FE003FC0
FE003FC0
FE003FC0
FE003FC0
FE003FC0
FE003FC0
FE003FC0
FE003FC0
FE003FC0
FE003FC0
FE003FC0
FFFFFFC0
FFFFFFC0
FFFFFFC0
FFFFFFC0
FFFFFFC0
FFFFFFC0
7FFFFF80
ENDCHAR
STARTCHAR recordButton
ENCODING 9210
SWIDTH 1269 0
SWIDTH1 1269 0
BBX 26 25 3 -4
BITMAP
FFFFFF80
FFFFFFC0
FFFFFFC0
FFFFFFC0
FFFFFFC0
FFFFFFC0
FFE1FFC0
FF807FC0
FF003FC0
FE003FC0
FE001FC0
FE001FC0
FE001FC0
FE001FC0
FE001FC0
FE003FC0
FF003FC0
FF807FC0
FFE1FFC0
FFFFFFC0
FFFFFFC0
FFFFFFC0
FFFFFFC0
FFFFFFC0
7FFFFF80
ENDCHAR
STARTCHAR circledM
ENCODING 9410
SWIDTH 1269 0
SWIDTH1 1269 0
BBX 26 25 3 -4
BITMAP
00FF8000
03FFF000
07FFF800
0FFFFC00
1FFFFE00
3FFFFF00
7FFFFF00
7C3F1F80
7C3E1F80
FC9E1F80
FC1E1FC0
FC1C9FC0
FC4C9FC0
FC4C9FC0
FC499FC0
FC419F80
7C619F80
7C639F80
3C639F00
3FFFFF00
1FFFFE00
0FFFFC00
07FFF800
03FFE000
00FF8000
ENDCHAR
STARTCHAR uni25AA
ENCODING 9642
SWIDTH 1269 0
SWIDTH1 1269 0
BBX 8 7 12 5
BITMAP
7E
FF
B5
FF
B5
B5
7E
ENDCHAR
STARTCHAR uni25AB
ENCODING 9643
SWIDTH 1269 0
SWIDTH1 1269 0
BBX 8 7 12 5
BITMAP
7E
81
81
81
81
81
7E
ENDCHAR
STARTCHAR playButton
ENCODING 9654
SWIDTH 1269 0
SWIDTH1 1269 0
BBX 26 25 3 -4
BITMAP
FFFFFF80
FFFFFFC0
FFFFFFC0
FFFFFFC0
FFFFFFC0
FFFFFFC0
FFFFFFC0
FFBFFFC0
FF8FFFC0
FF83FFC0
FF81FFC0
FF807FC0
FF801FC0
FF807FC0
FF81FFC0
FF83FFC0
FF8FFFC0
FFBFFFC0
FFFFFFC0
FFFFFFC0
FFFFFFC0
FFFFFFC0
FFFFFFC0
FFFFFFC0
7FFFFF80
ENDCHAR
STARTCHAR reverseButton
ENCODING 9664
SWIDTH 1269 0
SWIDTH1 1269 0
BBX 26 25 3 -4
BITMAP
FFFFFF80
FFFFFFC0
FFFFFFC0
FFFFFFC0
FFFFFFC0
FFFFFFC0
FFFFFFC0
FFFE7FC0
FFFC7FC0
FFF07FC0
FFC07FC0
FF807FC0
FE007FC0
FF807FC0
FFC07FC0
FFF07FC0
FFFC7FC0
FFFF7FC0
FFFFFFC0
FFFFFFC0
FFFFFFC0
FFFFFFC0
FFFFFFC0
FFFFFFC0
7FFFFF80
ENDCHAR
STARTCHAR whiteMediumSquare
ENCODING 9723
SWIDTH 1269 0
SWIDTH1 1269 0
BBX 20 19 6 -1
BITMAP
FFFFF0
800030
800030
800030
800030
800030
800030
800030
800030
800030
800030
800030
800030
800030
800030
800030
800030
800030
FFFFF0
ENDCHAR
STARTCHAR blackMediumSquare
ENCODING 9724
SWIDTH 1269 0
SWIDTH1 1269 0
BBX 20 19 6 -1
BITMAP
FFFFF0
924CB0
924CB0
FFFFF0
924CB0
924CB0
FFFFF0
924CB0
924CB0
FFFFF0
924CB0
924CB0
FFFFF0
924CB0
924CB0
FFFFF0
924CB0
924CB0
FFFFF0
ENDCHAR
STARTCHAR whiteMediumSmallSquare
ENCODING 9725
SWIDTH 1269 0
SWIDTH1 1269 0
BBX 14 13 9 2
BITMAP
7FF8
800C
800C
800C
800C
800C
800C
800C
800C
800C
800C
800C
7FF8
ENDCHAR
STARTCHAR blackMediumSmallSquare
ENCODING 9726
SWIDTH 1269 0
SWIDTH1 1269 0
BBX 14 13 9 2
BITMAP
7FF8
926C
926C
FFFC
926C
926C
FFFC
926C
926C
FFFC
926C
926C
7FF8
ENDCHAR
STARTCHAR sun
ENCODING 9728
SWIDTH 1269 0
SWIDTH1 1269 0
BBX 26 25 3 -4
BITMAP
00030000
00070000
07050000
05898000
06788000
027F9F00
02C0F200
03806600
0F003C00
FE001800
C6001800
64001C00
1C001E00
0C001980
060010C0
0E001F80
0B003000
11807000
37C1D000
3C7F1000
00459000
004C7800
00483000
00700000
00300000
ENDCHAR
STARTCHAR uni2601
ENCODING 9729
SWIDTH 1269 0
SWIDTH1 1269 0
BBX 29 21 1 -2
BITMAP
0001F800
0007BE00
000C0300
00180180
00180180
00F000C0
03F800C0
030C00C0
060600C0
040600C0
1C000070
70000018
60000008
C0000008
C0000008
40000008
60000018
3F8000F0
047F0180
001CFF00
00003800
ENDCHAR
STARTCHAR uni2602
ENCODING 9730
SWIDTH 1269 0
SWIDTH1 1269 0
BBX 26 25 3 -4
BITMAP
000C0000
001E0000
01FFE000
07327800
0C230C00
18618600
30C08300
6080C100
40804180
C1804080
C11C60C0
FDFFFFC0
C78CF9C0
010C2000
000C0000
000C0000
000C0000
000C0000
001C0000
00140000
00540000
00B40000
00B40000
00840000
00780000
ENDCHAR
STARTCHAR uni2603
ENCODING 9731
SWIDTH 1269 0
SWIDTH1 1269 0
BBX 20 25 6 -4
BITMAP
01F800
01F800
01F800
01F840
87F840
07FE10
640600
0C0320
890920
894900
684120
088300
2C6240
E60670
6C0360
3801C0
300080
2000C0
2000C0
2000C0
300080
100180
180300
060600
03FC00
ENDCHAR
STARTCHAR uni2604
ENCODING 9732
SWIDTH 1269 0
SWIDTH1 1269 0
BBX 24 25 4 -4
BITMAP
000100
000100
000400
000C00
001800
003000
006020
00C440
018883
031100
06220C
0C4418
188830
311020
622480
400D80
DF9B00
91B600
93AC00
919800
DF3000
C66000
60C000
3F8000
060000
ENDCHAR
STARTCHAR uni2121
ENCODING 9742
SWIDTH 1269 0
SWIDTH1 1269 0
BBX 30 25 1 -4
BITMAP
01FFFE00
0F800FC0
3C0000E0
703CF030
406F9018
C06F900C
80CF9C0C
FBCF8F7C
FE3FF3F4
8624910C
FE4491FC
3E7FF9F0
044C8980
047FF880
0C48C880
0CC8C8C0
0CFFF8C0
08FFF8C0
080000C0
0FFFFFC0
080000C0
080000C0
080000C0
080000C0
0FFFFF80
ENDCHAR
STARTCHAR checkBoxWithCheck
ENCODING 9745
SWIDTH 1269 0
SWIDTH1 1269 0
BBX 26 25 3 -4
BITMAP
FFFFFF80
C00000C0
C00000C0
C00018C0
C0003CC0
C0003CC0
C00078C0
C000F8C0
C001F0C0
CE03E0C0
CE03C0C0
CF07C0C0
CF0F80C0
C71F00C0
C7BE00C0
C7BC00C0
C3FC00C0
C3F800C0
C3F000C0
C1E000C0
C1C000C0
C08000C0
C00000C0
C00000C0
7FFFFF80
ENDCHAR
STARTCHAR uni2614
ENCODING 9748
SWIDTH 1269 0
SWIDTH1 1269 0
BBX 26 25 3 -4
BITMAP
100C0600
180C0600
387F8600
03FFE000
06333800
18610C00
30498600
24CC8B00
6C8CC980
4F8C5C80
CD807C80
C13F60C0
FFEDFFC0
838C7040
010C0000
000C0000
000C0000
000C0000
000C0000
001C0000
00540000
00B40000
00B40000
00840000
00780000
ENDCHAR
STARTCHAR uni2615
ENCODING 9749
SWIDTH 1269 0
SWIDTH1 1269 0
BBX 24 25 4 -4
BITMAP
000300
000280
000E80
003080
004380
004C00
005800
07FF80
0C30C0
180060
1BFF78
1FFFFE
1FFFA3
180063
1A0066
1A007C
0A0060
190070
7C00D8
C601AC
C30324
C1FE4C
700018
3E01F0
07FF80
ENDCHAR
STARTCHAR uni2618
ENCODING 9752
SWIDTH 1269 0
SWIDTH1 1269 0
BBX 24 25 4 -4
BITMAP
007980
0087E0
018030
018010
018010
198010
7F8030
418020
C0C07E
C061C7
402301
600601
C00001
800003
803806
80FC02
C39603
7E1302
0011C6
0010FC
001800
001800
000800
000C00
000600
ENDCHAR
STARTCHAR indexPointingUp
ENCODING 9757
SWIDTH 1269 0
SWIDTH1 1269 0
BBX 18 25 7 -4
BITMAP
000780
000C80
000C80
000C80
000C80
000C80
000C80
007C80
07FC80
3D8C80
788C80
C88C80
888C80
CFFF80
CE0180
CC0080
FE00C0
C3F0C0
4018C0
403CC0
602080
200180
300300
1C0E00
07F800
ENDCHAR
STARTCHAR uni2620
ENCODING 9760
SWIDTH 1269 0
SWIDTH1 1269 0
BBX 26 25 3 -4
BITMAP
3C000E00
24000B00
E4000980
843F18C0
E2F3F1C0
79806700
0F003800
06001800
04001800
0C000800
0C000800
0CE1CC00
0DE1C800
0DE1C800
04CDC800
040C0800
040C1800
07003800
0D806C00
79A96780
C2E9F0C0
84FF98C0
E4120980
24000B00
1C000E00
ENDCHAR
STARTCHAR uni2622
ENCODING 9762
SWIDTH 1269 0
SWIDTH1 1269 0
BBX 26 25 3 -4
BITMAP
00FFC000
03C0F000
06003800
0C000C00
19002600
33807300
2780F900
6FC0F980
4FE1FC80
DFE1FC80
DFE1FEC0
DFCDFEC0
DFDCFEC0
C00C00C0
C00000C0
C01E0080
401E0180
603F0180
207F0300
307F8300
18FF8600
0CFF8C00
071C3800
03C0E000
00FF8000
ENDCHAR
STARTCHAR uni2623
ENCODING 9763
SWIDTH 1269 0
SWIDTH1 1269 0
BBX 26 25 3 -4
BITMAP
00FFC000
03C0F000
06003800
0C804C00
18004600
31000300
61004100
61804180
40BE4080
C0C1C080
C0F780C0
87F3F8C0
8C630CC0
908280C0
C04C82C0
C04D8080
402D0080
600C0180
600C0100
301E0300
18320600
0CC08C00
06003800
03C0E000
00FF8000
ENDCHAR
STARTCHAR uni2626
ENCODING 9766
SWIDTH 1269 0
SWIDTH1 1269 0
BBX 26 25 3 -4
BITMAP
FFFFFF80
FFFFFFC0
FFFFFFC0
FFF3FFC0
FFF3FFC0
FF007FC0
FF007FC0
FFF3FFC0
FFF3FFC0
F80007C0
F80007C0
FFF3FFC0
FFF3FFC0
FFB3FFC0
FF93FFC0
FF83FFC0
FFE1FFC0
FFF07FC0
FFF07FC0
FFF3FFC0
FFF3FFC0
FFFFFFC0
FFFFFFC0
FFFFFFC0
7FFFFF80
ENDCHAR
STARTCHAR uni262A
ENCODING 9770
SWIDTH 1269 0
SWIDTH1 1269 0
BBX 26 25 3 -4
BITMAP
FFFFFF80
FFFFFFC0
FFFFFFC0
FF807FC0
FE071FC0
FC3FEFC0
F87FFFC0
F8FFFFC0
F1FFFFC0
F1FFFFC0
E1FFEFC0
E3FF01C0
E3FF87C0
E3FFC7C0
E1FF87C0
F1FFFFC0
F1FFFFC0
F8FFFFC0
F87FFFC0
FC3FCFC0
FF063FC0
FFC07FC0
FFFFFFC0
FFFFFFC0
7FFFFF80
ENDCHAR
STARTCHAR peaceSymbol
ENCODING 9774
SWIDTH 1269 0
SWIDTH1 1269 0
BBX 26 25 3 -4
BITMAP
FFFFFF80
FFFFFFC0
FFFFFFC0
FFC0FFC0
FF003FC0
FC739FC0
F9F3CFC0
FBF3E7C0
F3F3F3C0
F7F3F3C0
F7F3FBC0
E7F3FBC0
E7E3FBC0
E7C1FBC0
F790FBC0
F73233C0
F27317C0
F8F387C0
F8F3CFC0
FC739FC0
FF003FC0
FFC0FFC0
FFFFFFC0
FFFFFFC0
7FFFFF80
ENDCHAR
STARTCHAR yinYang
ENCODING 9775
SWIDTH 1269 0
SWIDTH1 1269 0
BBX 26 25 3 -4
BITMAP
FFFFFF80
FFFFFFC0
FFF3FFC0
FF007FC0
FE3F1FC0
FCFFCFC0
F9FFE7C0
F3F3B3C0
F7E393C0
E7F38BC0
E7FF89C0
EFFF09C0
EFF809C0
EFC009C0
E7C009C0
E78C0BC0
F78C13C0
F38037C0
F9C067C0
FCF1CFC0
FE3E1FC0
FF807FC0
FFFFFFC0
FFFFFFC0
7FFFFF80
ENDCHAR
STARTCHAR uni2638
ENCODING 9784
SWIDTH 1269 0
SWIDTH1 1269 0
BBX 26 25 3 -4
BITMAP
FFFFFF80
FFFFFFC0
FFFFFFC0
FFF3FFC0
FFC0FFC0
FD002FC0
FC730FC0
FC738FC0
F9332FC0
F98067C0
FBCCF7C0
FB9EF7C0
E01E01C0
FB9EF7C0
FBC0F7C0
F98067C0
F9332FC0
FC738FC0
FC730FC0
FD006FC0
FFC1FFC0
FFF3FFC0
FFFFFFC0
FFFFFFC0
7FFFFF80
ENDCHAR
STARTCHAR uni2639
ENCODING 9785
SWIDTH 1269 0
SWIDTH1 1269 0
BBX 26 25 3 -4
BITMAP
00FFC000
0380F000
0E001800
1C000C00
10000600
30000300
60000100
40000180
C1C0E080
C1C1E080
C1C0E0C0
8080C0C0
800000C0
800000C0
C00000C0
C07F0080
40C1C080
41806180
63003100
30000300
10000600
1C000C00
06001800
03C0F000
00FF8000
ENDCHAR
STARTCHAR smileface
ENCODING 9786
SWIDTH 1269 0
SWIDTH1 1269 0
BBX 26 25 3 -4
BITMAP
00FFC000
0380F000
0E001800
1C000C00
10000600
30C0C300
67C0F900
40000180
C0000080
C0000080
C3E1F0C0
822110C0
800000C0
848058C0
C68068C0
C0002080
40000080
40C08180
607F8100
301C0300
10000600
1C000C00
06001800
03C0F000
00FF8000
ENDCHAR
STARTCHAR femaleSign
ENCODING 9792
SWIDTH 1269 0
SWIDTH1 1269 0
BBX 16 25 8 -4
BITMAP
0FF0
1FF8
3FFC
7C3E
F01E
F00F
E007
E007
E007
E00F
F00F
F01E
7C3E
3FFC
1FF8
0FF0
03C0
03C0
03C0
1FF8
1FF8
1FF8
03C0
03C0
03C0
ENDCHAR
STARTCHAR maleSign
ENCODING 9794
SWIDTH 1269 0
SWIDTH1 1269 0
BBX 26 25 3 -4
BITMAP
0000FFC0
0000FFC0
0000FFC0
00001FC0
00003FC0
00007FC0
0000FBC0
03F1F3C0
0FFFE3C0
1FFFC000
3FBF8000
7C078000
7803C000
F003C000
F001C000
F001C000
F001C000
F001C000
F003C000
7803C000
7C078000
3E1F8000
1FFF0000
0FFE0000
03F80000
ENDCHAR
STARTCHAR uni2648
ENCODING 9800
SWIDTH 1269 0
SWIDTH1 1269 0
BBX 26 25 3 -4
BITMAP
00FF8000
03FFF000
07FFF800
0FFFFC00
1FFFFE00
3FFFFF00
7E7F1F00
781E0F80
798CC780
F3C9E380
F3E1F3C0
FFE1FFC0
FFE1FFC0
FFE1FFC0
FFE1FFC0
FFE3FF80
7FE3FF80
7FF3FF80
3FF3FF00
3FFFFF00
1FFFFE00
0FFFFC00
07FFF800
03FFE000
00FF8000
ENDCHAR
STARTCHAR uni2649
ENCODING 9801
SWIDTH 1269 0
SWIDTH1 1269 0
BBX 26 25 3 -4
BITMAP
00FF8000
03FFF000
07FFF800
0FFFFC00
1FFFFE00
3EFFDF00
7CFF8F00
7E7F9F80
7E1E3F80
FF807F80
FF807FC0
FF1E3FC0
FE3F3FC0
FE7F9FC0
FE7F9FC0
FE7F9F80
7E7F9F80
7E7F1F80
3F3E3F00
3F007F00
1FC0FE00
0FFFFC00
07FFF800
03FFE000
00FF8000
ENDCHAR
STARTCHAR uni264A
ENCODING 9802
SWIDTH 1269 0
SWIDTH1 1269 0
BBX 26 25 3 -4
BITMAP
00FF8000
03FFF000
07FFF800
0FFFFC00
1FFFFE00
3DFFDF00
78000F00
7E001F80
7F9E7F80
FF9E7F80
FF9E7FC0
FF9E7FC0
FF9E7FC0
FF9E7FC0
FF9E7FC0
FF9E7F80
7F9E7F80
7E001F80
3C0C0F00
3DFFFF00
1FFFFE00
0FFFFC00
07FFF800
03FFE000
00FF8000
ENDCHAR
STARTCHAR uni264B
ENCODING 9803
SWIDTH 1269 0
SWIDTH1 1269 0
BBX 26 25 3 -4
BITMAP
00FF8000
03FFF000
07FFF800
0FFFFC00
1FE3FE00
3E003F00
783A1F00
700F9F80
73CFFF80
E7E7FF80
E7E607C0
E7E403C0
F3C8F3C0
F009F9C0
F819F9C0
FFF9F180
7FF8F380
7CFC0380
3C060700
3F001F00
1FFBFE00
0FFFFC00
07FFF800
03FFE000
00FF8000
ENDCHAR
STARTCHAR uni264C
ENCODING 9804
SWIDTH 1269 0
SWIDTH1 1269 0
BBX 26 25 3 -4
BITMAP
00FF8000
03FFF000
07FFF800
0FFFFC00
1FF07E00
3FE03F00
7FC79F00
7FCF9F80
7E1FCF80
F81FCF80
F18F9FC0
F3CF1FC0
F3E73FC0
F3EE7FC0
F3CC7FC0
F00CFF80
781CFF80
7FFCFF80
3FFCFF00
3FFC0F00
1FFE1E00
0FFFFC00
07FFF800
03FFE000
00FF8000
ENDCHAR
STARTCHAR uni264D
ENCODING 9805
SWIDTH 1269 0
SWIDTH1 1269 0
BBX 26 25 3 -4
BITMAP
00FF8000
03FFF000
07FFF800
0FFFFC00
1F79FE00
3C007F00
7CC67F00
79CE0780
79CF0380
F9CF3380
F9CF73C0
F9CF73C0
F9CF73C0
F9CF67C0
F9CF47C0
F9CF0F80
79CF1F80
79CE3F80
3FF81F00
3FF18F00
1FFBCE00
0FFFFC00
07FFF800
03FFE000
00FF8000
ENDCHAR
STARTCHAR uni264E
ENCODING 9806
SWIDTH 1269 0
SWIDTH1 1269 0
BBX 26 25 3 -4
BITMAP
00FF8000
03FFF000
07FFF800
0FFFFC00
1FE1FE00
3F807F00
7F1E3F00
7E3F3F80
7E7F9F80
FE7F9F80
FE7F9FC0
FE7FBFC0
FF3F3FC0
FF1E7FC0
F81E0FC0
F81E0F80
7FFFFF80
78000F80
38000F00
3FFFFF00
1FFFFE00
0FFFFC00
07FFF800
03FFE000
00FF8000
ENDCHAR
STARTCHAR scorpio
ENCODING 9807
SWIDTH 1269 0
SWIDTH1 1269 0
BBX 26 25 3 -4
BITMAP
00FF8000
03FFF000
07FFF800
0FFFFC00
1FFFFE00
3E10FF00
7C007F00
79C67F80
79CE7F80
F9CF7F80
F9CF7FC0
F9CF7FC0
F9CF7FC0
F9CF7FC0
F9CF73C0
F9CF6180
79CF3380
79CF0380
3FFF8700
3FFFFF00
1FFFFE00
0FFFFC00
07FFF800
03FFE000
00FF8000
ENDCHAR
STARTCHAR uni2650
ENCODING 9808
SWIDTH 1269 0
SWIDTH1 1269 0
BBX 26 25 3 -4
BITMAP
00FF8000
03FFF000
07FFF800
0FFFFC00
1FFFFE00
3FFFFF00
7FF00F00
7FF00F80
7FFF0F80
FFFE0F80
FF7C4FC0
FF38CFC0
FF91CFC0
FFC3FFC0
FFC7FFC0
FF83FF80
7F19FF80
7E3DFF80
3C7FFF00
3EFFFF00
1FFFFE00
0FFFFC00
07FFF800
03FFE000
00FF8000
ENDCHAR
STARTCHAR uni2651
ENCODING 9809
SWIDTH 1269 0
SWIDTH1 1269 0
BBX 26 25 3 -4
BITMAP
00FF8000
03FFF000
07FFF800
0FFFFC00
1FFFFE00
3D0FFF00
7807FF00
7C67FF80
7CF3FF80
FEF3FF80
FEF3FFC0
FEF38FC0
FEF307C0
FEF273C0
FEF273C0
FEF27380
7EF8F380
7FF80780
3FFC0F00
3FE8FF00
1FC1FE00
0FF7FC00
07FFF800
03FFE000
00FF8000
ENDCHAR
STARTCHAR uni2652
ENCODING 9810
SWIDTH 1269 0
SWIDTH1 1269 0
BBX 26 25 3 -4
BITMAP
00FF8000
03FFF000
07FFF800
0FFFFC00
1FFFFE00
3FFFFF00
78E3C700
78618780
72499380
F30C3380
E70C33C0
F79E7BC0
FFFFFFC0
F8F3CFC0
F8E187C0
F0618780
724C3380
630C3380
271C7900
3FFFFF00
1FFFFE00
0FFFFC00
07FFF800
03FFE000
00FF8000
ENDCHAR
STARTCHAR uni2653
ENCODING 9811
SWIDTH 1269 0
SWIDTH1 1269 0
BBX 26 25 3 -4
BITMAP
00FFC000
03FFF000
07FFF800
0FFFFC00
1FFFFE00
3CFFCF00
3C7F8F00
7E7F9F80
7F3F3F80
FF3F3F80
FF3F3FC0
F80007C0
F80007C0
FF3E7FC0
FF3F3FC0
FF3F3F80
7E3F3F80
7E7F9F80
3CFF8F00
3CFFDF00
1FFFFE00
0FFFFC00
07FFF800
03FFE000
00FF8000
ENDCHAR
STARTCHAR blackChessPawn
ENCODING 9823
SWIDTH 1269 0
SWIDTH1 1269 0
BBX 16 25 8 -4
BITMAP
07E0
0FE0
0CF0
0DF0
0FF0
0FF0
0FF0
1FF0
1818
0FF0
07E0
07E0
07E0
0FE0
1FF0
3FF8
300C
7FFE
7FFE
47E2
F00E
FFFF
C3FF
FCFE
3FFC
ENDCHAR
STARTCHAR spadeSuit
ENCODING 9824
SWIDTH 1269 0
SWIDTH1 1269 0
BBX 23 25 4 -4
BITMAP
001800
003C00
007E00
01FF00
03FF80
07FFC0
07FFE0
0FFFF0
1FFFF8
3FFFFC
3FFFFC
7FFFFE
7FFFFE
FFFFFE
FFFFFE
FFFFFE
FFFFFE
7FFFFE
7FFFFC
1FBDF8
007E00
01FF80
07FFE0
0FFFF0
0FFFF0
ENDCHAR
STARTCHAR clubSuit
ENCODING 9827
SWIDTH 1269 0
SWIDTH1 1269 0
BBX 24 25 4 -4
BITMAP
007E00
01FF00
01FF80
03FFC0
03FFC0
03FFC0
03FFC0
03FFC0
03FF80
3FFFF8
7FFFFE
FFFFFE
FFFFFF
FFFFFF
FFFFFF
FFFFFF
FFFFFF
FFFFFE
7FFFFE
1FFDF8
007E00
01FF80
07FFE0
0FFFF0
0FFFF0
ENDCHAR
STARTCHAR heartSuit
ENCODING 9829
SWIDTH 1269 0
SWIDTH1 1269 0
BBX 28 25 2 -4
BITMAP
0FE07F00
3FF0FFC0
7FF9FFC0
7FFFFFE0
FFFFFFE0
FFFFFFF0
FFFFFFF0
FFFFFFF0
FFFFFFF0
FFFFFFE0
7FFFFFE0
7FFFFFE0
7FFFFFC0
3FFFFFC0
1FFFFF80
1FFFFF00
0FFFFF00
07FFFE00
03FFFC00
01FFF800
00FFF000
007FC000
003F8000
000F0000
00060000
ENDCHAR
STARTCHAR diamondSuit
ENCODING 9830
SWIDTH 1269 0
SWIDTH1 1269 0
BBX 20 25 6 -4
BITMAP
00E000
00F000
01F800
03FC00
07FC00
07FE00
0FFF00
1FFF00
1FFF80
3FFFC0
7FFFE0
FFFFE0
FFFFF0
7FFFE0
7FFFE0
3FFFC0
1FFF80
1FFF00
0FFF00
07FE00
03FC00
03FC00
01F800
00F000
00E000
ENDCHAR
STARTCHAR hotSprings
ENCODING 9832
SWIDTH 1269 0
SWIDTH1 1269 0
BBX 26 25 3 -4
BITMAP
000C0000
011C1800
033C3000
073C7000
0F7CF000
0F7CF000
0F7CF000
0F3EF800
0FBEF800
0FBEF800
07BE7800
079E7800
079E7800
679E7B00
671C7380
E61871C0
E43043C0
F00003C0
F80007C0
FC000FC0
FF007F80
7FFFFF80
3FFFFF00
0FFFFC00
03FFE000
ENDCHAR
STARTCHAR recyclingSymbol
ENCODING 9851
SWIDTH 1269 0
SWIDTH1 1269 0
BBX 28 25 2 -4
BITMAP
00FFE000
018C3600
01041C00
010E0400
020B0400
02190C00
07130800
01F3F800
00600080
1F0003C0
F1000E40
61001860
21800820
60800430
43800410
42C03230
660073E0
27F0DFC0
3FF180C0
18110080
18110100
08118300
0E10DE00
03F07000
00003000
ENDCHAR
STARTCHAR uni267E
ENCODING 9854
SWIDTH 1269 0
SWIDTH1 1269 0
BBX 26 25 3 -4
BITMAP
FFFFFF80
FFFFFFC0
FFFFFFC0
FFFFFFC0
FFFFFFC0
FFFFFFC0
FFFFFFC0
FFFFFFC0
FC7F0FC0
F01E07C0
F38C73C0
E7C1F9C0
E7E3F9C0
E7E1F9C0
E7C0F1C0
F10C23C0
F81E07C0
FEFFDFC0
FFFFFFC0
FFFFFFC0
FFFFFFC0
FFFFFFC0
FFFFFFC0
FFFFFFC0
7FFFFF80
ENDCHAR
STARTCHAR uni267F
ENCODING 9855
SWIDTH 1269 0
SWIDTH1 1269 0
BBX 26 25 3 -4
BITMAP
FFFFFF80
FFFFFFC0
FFFFFFC0
FFFF8FC0
FF870FC0
FF018FC0
FE10FFC0
FE707FC0
FFE07FC0
FFC0FFC0
FF81FFC0
FE000FC0
FE700FC0
F9F88FC0
F9FC8FC0
F9FC0FC0
F9FC9FC0
F9FC9FC0
F8F89FC0
FC75FFC0
FE03FFC0
FF87FFC0
FFFFFFC0
FFFFFFC0
7FFFFF80
ENDCHAR
STARTCHAR uni2692
ENCODING 9874
SWIDTH 1269 0
SWIDTH1 1269 0
BBX 28 25 2 -4
BITMAP
03C07000
06618C00
1C330600
3811C100
30103080
603020C0
C0606040
80E06220
81B0F520
C3199890
668F30D0
3CC46050
0068C030
00308000
0021C000
00426000
00863000
010E1800
02190C00
04308600
0860C300
10406180
10803180
19001B00
0F000E00
ENDCHAR
STARTCHAR uni2693
ENCODING 9875
SWIDTH 1269 0
SWIDTH1 1269 0
BBX 24 25 4 -4
BITMAP
007C00
004200
00BB00
00A700
00DA00
006600
003C00
002C00
002C00
01EF80
010180
00E700
002402
E02407
B0240D
982419
8C6431
9C6431
EC6437
A746C4
31C388
180018
0C0070
0781C0
01FF00
ENDCHAR
STARTCHAR uni2694
ENCODING 9876
SWIDTH 1269 0
SWIDTH1 1269 0
BBX 26 25 3 -4
BITMAP
70000780
7C000D80
56003380
69006500
2480CB00
12419200
19232400
0C964800
064C9000
03392000
01B24000
00E48000
00C98000
01924000
33252300
2A4C9D00
14965A00
1B233400
0D41EC00
1680DE00
3B40B700
F5A14BC0
A8618540
D00002C0
70000380
ENDCHAR
STARTCHAR medicalSymbol
ENCODING 9877
SWIDTH 1269 0
SWIDTH1 1269 0
BBX 19 25 6 -4
BITMAP
007800
087800
7E7800
7E7800
FC3000
F03000
7FFFC0
3FFFE0
0031E0
0030E0
0FFFE0
1FFFC0
3C3000
1FB000
1FFF00
03FFC0
0037C0
0031C0
07FFC0
0FFF80
0E3000
07F000
01FE00
003700
003000
ENDCHAR
STARTCHAR balanceScale
ENCODING 9878
SWIDTH 1269 0
SWIDTH1 1269 0
BBX 28 25 2 -4
BITMAP
000E0000
000B0000
000E0000
1E198780
13F9FC80
1E119780
1FFFFF00
1E0E0780
1A0A0780
3A0A0780
2A0A0FC0
290A0B40
290A0B40
690A1B40
498A1360
488A1320
488A1320
FF8F3FE0
FF9F3FF0
61991860
3F190FC0
0030C000
00C03000
00801000
00FFE000
ENDCHAR
STARTCHAR uni2697
ENCODING 9879
SWIDTH 1269 0
SWIDTH1 1269 0
BBX 26 25 3 -4
BITMAP
03FE0000
0E038000
1800E000
30001800
20000600
60000180
40000040
47FF0040
4FFF3CC0
5801A780
FFFFF000
9FFF9000
60007000
3BFDC000
1BFE8000
16FA8000
37064000
2DFB4000
28B16000
68B1A000
58F0A000
50F0F000
B0E05000
A0605000
E0003000
ENDCHAR
STARTCHAR uni2699
ENCODING 9881
SWIDTH 1269 0
SWIDTH1 1269 0
BBX 26 25 3 -4
BITMAP
003E0000
00320000
04331800
0F333C00
19E3E600
30C0C600
181E0400
0C778C00
04C0D800
0D9E4800
FD332FC0
C16120C0
C161A0C0
C16120C0
FD336FC0
0D9E4800
04C0D800
0C7F8C00
181E0600
30C0C600
1BE3E600
0F333C00
04331800
00320000
003E0000
ENDCHAR
STARTCHAR uni269B
ENCODING 9883
SWIDTH 1269 0
SWIDTH1 1269 0
BBX 26 25 3 -4
BITMAP
FFFFFF80
FFFFFFC0
FFF7FFC0
FFE1FFC0
FFCCFFC0
FF9EFFC0
F81C07C0
F38073C0
F7817BC0
F71C73C0
F33F37C0
F83307C0
FD330FC0
F83307C0
F33F37C0
F71C73C0
F7817BC0
F38073C0
F81C07C0
FF9EFFC0
FFCCFFC0
FFE1FFC0
FFFFFFC0
FFFFFFC0
7FFFFF80
ENDCHAR
STARTCHAR uni269C
ENCODING 9884
SWIDTH 1269 0
SWIDTH1 1269 0
BBX 24 25 4 -4
BITMAP
001800
003C00
006600
004200
008300
008100
018100
018100
018100
1E8178
638186
C0C302
804601
9E64F1
916589
97FFCB
77FFCE
01A520
0F64E0
086630
0CC720
0765C0
002400
003C00
001800
ENDCHAR
STARTCHAR warning
ENCODING 9888
SWIDTH 1269 0
SWIDTH1 1269 0
BBX 26 25 3 -4
BITMAP
001E0000
00320000
00330000
00610000
00618000
00C08000
00C8C000
019C4000
019C6000
031C2000
031C3000
060C1000
060C1800
0C0C0800
0C0C0C00
180C0400
180C0600
300C0200
30000300
60080100
600C0180
C00C0080
C00000C0
C00000C0
7FFFFF80
ENDCHAR
STARTCHAR highVoltage
ENCODING 9889
SWIDTH 1269 0
SWIDTH1 1269 0
BBX 20 25 6 -4
BITMAP
0000C0
0003C0
000680
000D80
001900
003300
00C600
018400
030C00
061800
1C1FF0
300030
600060
C000C0
FFC380
018600
010C00
031800
023000
066000
0DC000
0B0000
1E0000
1C0000
380000
ENDCHAR
STARTCHAR transgenderSymbol
ENCODING 9895
SWIDTH 1269 0
SWIDTH1 1269 0
BBX 24 25 4 -4
BITMAP
FC003F
FC003F
F1000F
FB801F
DF803B
CF0073
1F3CE0
3FFFC0
19FF80
038380
0381C0
0301C0
0301C0
0381C0
038380
01FF80
00FF00
003C00
001800
001800
00FF00
00FF00
00FF00
001800
001800
ENDCHAR
STARTCHAR circle
ENCODING 9898
SWIDTH 1269 0
SWIDTH1 1269 0
BBX 26 25 3 -4
BITMAP
00FFC000
03C0F000
06003800
0C780C00
19C00600
33000300
26000100
6C000180
4C000080
C8000080
D80000C0
D80000C0
C00000C0
C00000C0
C00000C0
C0000080
40000180
60000180
20000300
30000300
18000600
0C000C00
07003800
03C0E000
00FF8000
ENDCHAR
STARTCHAR uni25CF
ENCODING 9899
SWIDTH 1269 0
SWIDTH1 1269 0
BBX 26 25 3 -4
BITMAP
00FF8000
03C8F000
0688F800
0C88CC00
1FFFFE00
3888CF00
2888CD00
6888CD80
7FFFFF80
C888CC80
C888CCC0
C888CCC0
FFFFFFC0
C888CCC0
C888CCC0
C888CC80
7FFFFF80
6888CD80
2888CF00
3888CF00
1FFFFE00
0C88CC00
0788F800
03C9E000
00FF8000
ENDCHAR
STARTCHAR uni26B0
ENCODING 9904
SWIDTH 1269 0
SWIDTH1 1269 0
BBX 24 25 4 -4
BITMAP
0F0000
19E000
603C00
C00600
800300
800180
C00080
C00040
E00020
A00030
A00018
B8000C
7E0004
738002
70E003
363803
338E07
388399
0E0871
038E21
00E121
001C23
00072C
0001F8
000070
ENDCHAR
STARTCHAR uni26B1
ENCODING 9905
SWIDTH 1269 0
SWIDTH1 1269 0
BBX 16 25 8 -4
BITMAP
0FF0
3018
3838
0FF0
1818
3FFC
6006
C002
8003
F81F
9FF3
F00F
9FFB
8003
C002
C002
4002
4002
4006
6004
2004
3FFC
13C8
1818
0FE0
ENDCHAR
STARTCHAR uni26BD
ENCODING 9917
SWIDTH 1269 0
SWIDTH1 1269 0
BBX 26 25 3 -4
BITMAP
00FFC000
03C1F000
0700F800
0F008C00
1F018600
3FC78300
3C7FC100
781FE180
701FF180
F01FFF80
F01FE3C0
F01FE1C0
D07FC1C0
D0C381C0
DF80C1C0
FF00C180
7F004380
7F004380
3F807F00
3F81FB00
1FF3FE00
0C1FFC00
0703F800
03C1E000
00FF8000
ENDCHAR
STARTCHAR uni26BE
ENCODING 9918
SWIDTH 1269 0
SWIDTH1 1269 0
BBX 26 25 3 -4
BITMAP
00FFC000
03F0F000
061E3800
0C0E0C00
180FC600
30038300
2003C100
68037980
5C803080
FF803F80
D9C026C0
C37807C0
C07005C0
C07800C0
C01A00C0
C01E0080
401C0180
60040180
20070300
300E0300
18060600
0C0F0C00
070F3800
03C6E000
00FF8000
ENDCHAR
STARTCHAR uni26C4
ENCODING 9924
SWIDTH 1269 0
SWIDTH1 1269 0
BBX 20 25 6 -4
BITMAP
01F800
01F800
01F800
01F800
07F800
07FE00
040600
0C0300
090900
094900
084100
088300
2C6240
E60670
6C0360
3801C0
300080
2000C0
2000C0
2000C0
300080
100180
180300
060600
03FC00
ENDCHAR
STARTCHAR uni26C5
ENCODING 9925
SWIDTH 1269 0
SWIDTH1 1269 0
BBX 30 23 1 -3
BITMAP
000C0000
000C0000
0E140000
07B60000
04E21000
04FFF800
07831000
0F01FC00
FE018700
C4030180
34060080
1C0C00C0
047E0040
0AC30040
1B810040
11810060
2F8000F0
3C000018
18000008
1800000C
18000008
0C000018
07FFFFF0
ENDCHAR
STARTCHAR uni26C8
ENCODING 9928
SWIDTH 1269 0
SWIDTH1 1269 0
BBX 26 25 3 -4
BITMAP
000FE000
00183800
00300800
00600C00
01C00600
07F00600
0C100600
08180600
08080700
78000180
C00000C0
80000040
800000C0
C00000C0
7FFFFF80
00230000
00638000
1847C600
18408E00
187D8C00
000B0400
010E0000
030C0000
030C0000
03000000
ENDCHAR
STARTCHAR uni26CE
ENCODING 9934
SWIDTH 1269 0
SWIDTH1 1269 0
BBX 26 25 3 -4
BITMAP
00FF8000
03FFF000
07FFF800
0FFFFC00
1FFFFE00
3E7F9F00
7E7F9F00
7E7F9F80
7E7F9F80
FE1F8780
FC0187C0
F0600FC0
FA7F9FC0
FE7F9FC0
FE7F9FC0
FE7F9F80
7E7F3F80
7F3F3F80
3F1E3F00
3F807F00
1FC1FE00
0FFFFC00
07FFF800
03FFE000
00FF8000
ENDCHAR
STARTCHAR uni26CF
ENCODING 9935
SWIDTH 1269 0
SWIDTH1 1269 0
BBX 25 25 3 -4
BITMAP
000FF000
0079C000
01C70000
030C0000
06300000
0C600000
18300000
11100000
33880000
269C0000
6C760000
48330000
50118000
7008C000
600C6000
C0063000
C0031800
00010C00
00008600
00004200
00006100
00003080
00001880
00000980
00000700
ENDCHAR
STARTCHAR rescueWorkerSHelmet
ENCODING 9937
SWIDTH 1269 0
SWIDTH1 1269 0
BBX 26 25 3 -4
BITMAP
00FF8000
03C1E000
07C1F800
0CC0DC00
18C0CC00
180C0600
300C0200
300C0300
203F0100
603F0100
600C0180
C00C00C0
CF0000C0
C78000C0
78000780
1FFFFE00
11FFE200
10000600
18000600
08000400
0C000C00
06001800
03007000
01FFC000
003F0000
ENDCHAR
STARTCHAR uni26D3
ENCODING 9939
SWIDTH 1269 0
SWIDTH1 1269 0
BBX 20 25 6 -4
BITMAP
A48280
A48280
BC8EE0
B50AB0
9512D0
7615D0
341450
361450
5717D0
951290
BC8AA0
A486E0
A48280
AC86E0
BD8AA0
9512D0
5717D0
361450
341450
5617D0
9512D0
B50AB0
BC8EE0
A48280
A48280
ENDCHAR
STARTCHAR uni26D4
ENCODING 9940
SWIDTH 1269 0
SWIDTH1 1269 0
BBX 26 25 3 -4
BITMAP
007F8000
03FFE000
07FFF800
0FFFFC00
1FFFFE00
3FFFFF00
7FFFFF00
7FFFFF80
7FFFFF80
FFFFFF80
FFFFFFC0
F00003C0
F00003C0
F00003C0
FFFFFF80
7FFFFF80
7FFFFF80
7FFFFF00
3FFFFF00
1FFFFE00
1FFFFC00
0FFFF800
03FFF000
00FFC000
000E0000
ENDCHAR
STARTCHAR uni26E9
ENCODING 9961
SWIDTH 1269 0
SWIDTH1 1269 0
BBX 29 25 1 -4
BITMAP
F0000038
FF8007F8
5FFFFFF8
60FFFC10
30000030
1FFDFFE0
02FDF900
02858900
06E59980
0EFDF9C0
1C3DF0E0
10000020
1EFFF9E0
1EFFF9C0
02C00900
02C00900
02C00900
02C00900
02C00900
02C00900
02C00900
02C00900
07C00F00
07C00F00
07C00F00
ENDCHAR
STARTCHAR uni26EA
ENCODING 9962
SWIDTH 1269 0
SWIDTH1 1269 0
BBX 20 25 6 -4
BITMAP
004000
00F000
004000
006000
00F000
009000
010800
030C00
07FC00
020C00
020C00
024C00
06EC00
0EEE00
1A0D00
320C80
620C40
C20C20
8AEDB0
AAFD30
AA9D30
BAFDB0
BAFDB0
82FC30
FFFFF0
ENDCHAR
STARTCHAR uni26F0
ENCODING 9968
SWIDTH 1269 0
SWIDTH1 1269 0
BBX 30 25 1 -4
BITMAP
00030000
00038000
00058000
000DC000
001BC000
003BE000
0039F000
0078D000
0058D800
00DCCC00
0098DE00
0199FE00
01BBF300
0333E380
0237C380
0E3F87C0
1BBE1FF0
33FC7FF8
23F8FFF8
43E19E78
C39F9E7C
FFFF9E7C
7FFF9FF8
0FFFFFC0
003FE000
ENDCHAR
STARTCHAR uni26F1
ENCODING 9969
SWIDTH 1269 0
SWIDTH1 1269 0
BBX 28 25 2 -4
BITMAP
00018000
00FF8000
03C7C000
0E0FF000
181FD800
303FC600
207FC200
607FE300
78FFE180
FEFFE080
03FFE080
018FE0C0
000DE0C0
0008FEC0
001863C0
00180080
00100000
3FFF0000
F033FFF0
80B007B0
83200030
83A00030
80FE0030
80000030
FFFFFFF0
ENDCHAR
STARTCHAR uni26F2
ENCODING 9970
SWIDTH 1269 0
SWIDTH1 1269 0
BBX 22 25 5 -4
BITMAP
03DE00
023100
05CE80
054A80
025280
0A7980
0A7900
0BFF00
193640
190240
0C00C0
05FE80
05FE80
057A80
047A80
0DFEC0
7C78F8
C4788C
88F844
C4001C
FC00FC
7FFFF8
3FFFF0
0FFFC0
03FF00
ENDCHAR
STARTCHAR uni26F3
ENCODING 9971
SWIDTH 1269 0
SWIDTH1 1269 0
BBX 25 25 3 -4
BITMAP
00060000
00078000
0004FF00
00040300
00040E00
00043800
0004E000
00078000
00060000
00040000
00040000
00040000
1FFF0000
7807E000
C0043C00
C0040600
601E0300
380E0180
0C000080
06000080
03000080
01800180
00C00300
00701E00
003FF800
ENDCHAR
STARTCHAR uni26F4
ENCODING 9972
SWIDTH 1269 0
SWIDTH1 1269 0
BBX 29 25 1 -4
BITMAP
003FE000
001E3800
001EB000
00FE1000
00C41FC0
00F560E0
01C46B60
03040060
02F4A070
0406A550
06040158
04ECB018
0DECB550
7FFC0010
4BEFFFD0
FFFC9138
C07FFFD8
C00003F8
40000008
40000008
60000018
60000018
20000018
38000010
0FFFFFF0
ENDCHAR
STARTCHAR uni26F5
ENCODING 9973
SWIDTH 1269 0
SWIDTH1 1269 0
BBX 23 25 4 -4
BITMAP
000600
000E00
001E00
003F00
007F00
00DD00
019580
011480
0314C0
0614C0
0C1440
0C1460
181C20
181C30
101C30
301C10
201C18
27FFF8
7E0C00
61EC00
C3EB80
FFFE80
403FFE
600006
3FFFFC
ENDCHAR
STARTCHAR uni26F7
ENCODING 9975
SWIDTH 1269 0
SWIDTH1 1269 0
BBX 25 25 3 -4
BITMAP
3E000000
7F000000
FF800000
FF800100
FFFF8680
FFFFDF00
7FFFEC00
7FFFB000
1FFEC000
01F3C000
00FF0000
07FC0000
1FFC0080
3F9C0380
3E1E0D80
000F1200
00074800
000FB000
003EC000
00390000
00240000
00D80000
1B600000
00800000
1E000000
ENDCHAR
STARTCHAR uni26F8
ENCODING 9976
SWIDTH 1269 0
SWIDTH1 1269 0
BBX 26 25 3 -4
BITMAP
003C0000
01E60000
07820000
0C030000
081F0000
18120000
18030000
101F0000
301B0000
30038000
20070000
2007E000
6000E000
6001B800
60013C00
78007E00
2F006380
21F000C0
231F8040
33E1FFC0
3F3E00C0
1C07FF80
1C006080
FFFFF1C0
3FFFFFC0
ENDCHAR
STARTCHAR personBouncingBall
ENCODING 9977
SWIDTH 1269 0
SWIDTH1 1269 0
BBX 24 25 4 -4
BITMAP
003E00
007F00
007F00
007F00
007F00
007F00
003FC0
007FF8
00FFFE
01FFFF
03FFCF
3FBFC7
3F3FC0
3C3FC0
003FE0
001FE0
783FE0
D43FE0
DA7FE6
FE7BFE
DA79FE
D478FE
78F800
00F800
007000
ENDCHAR
STARTCHAR uni26FA
ENCODING 9978
SWIDTH 1269 0
SWIDTH1 1269 0
BBX 30 21 1 -2
BITMAP
01F00000
01FFF800
03003C00
02002400
06006600
06004200
0400C300
0C008900
18019900
18011980
30033080
200224C0
60066440
C0046660
C00CE620
C009E33C
E039E39C
3833C3DC
0F33FFFC
01FFC180
00300000
ENDCHAR
STARTCHAR uni26FD
ENCODING 9981
SWIDTH 1269 0
SWIDTH1 1269 0
BBX 26 25 3 -4
BITMAP
0FFE00C0
18030180
30018300
6FFC8E00
6C04CE00
6C04D200
6FF4D300
6404D500
67F4D500
6404D700
67FCC600
60008C00
60008400
61F0C400
6218C400
6648E400
64E8BC00
66E89800
62589C00
61F09600
60009200
7FFF9200
7FFFDE00
C0004C00
FFFFC000
ENDCHAR
STARTCHAR scissors
ENCODING 9986
SWIDTH 1269 0
SWIDTH1 1269 0
BBX 24 25 4 -4
BITMAP
3E007C
430186
D98133
968369
A2C249
B2C249
9E427B
4C6622
607A0C
1FCFF8
018580
00DA00
00C200
00A300
00B100
019100
011980
013C80
0324C0
024640
06C240
048160
0501A0
0700A0
060040
ENDCHAR
STARTCHAR checkMarkButton
ENCODING 9989
SWIDTH 1269 0
SWIDTH1 1269 0
BBX 26 25 3 -4
BITMAP
FFFFFF80
FFFFFFC0
FFFFFFC0
FFFFE7C0
FFFFC3C0
FFFFC3C0
FFFF87C0
FFFF07C0
FFFE0FC0
F1FC1FC0
F1FC3FC0
F0F87FC0
F0F07FC0
F8E0FFC0
F841FFC0
F843FFC0
FC03FFC0
FC07FFC0
FC0FFFC0
FE1FFFC0
FE3FFFC0
FF7FFFC0
FFFFFFC0
FFFFFFC0
7FFFFF80
ENDCHAR
STARTCHAR uni2708
ENCODING 9992
SWIDTH 1269 0
SWIDTH1 1269 0
BBX 26 25 3 -4
BITMAP
20000780
7C071EC0
C7CF33C0
70FE6180
1C0FC180
17038100
01C30300
00660E00
007C0C00
00183900
00303B80
0060EF80
0062C700
00C38400
0187C600
7F0CE600
7E182200
3E703200
0CC03300
0BC01900
1FC00900
1DC00D00
01E00580
00E00700
00400200
ENDCHAR
STARTCHAR uni2709
ENCODING 9993
SWIDTH 1269 0
SWIDTH1 1269 0
BBX 28 19 2 -1
BITMAP
FFFFFFF0
E0000070
B00001F0
9C000330
8E000630
83000C30
81803830
81C07030
8170D830
83198C30
860F0430
84060630
8C000330
98000130
900001B0
B00000F0
E0000070
C0000070
FFFFFFF0
ENDCHAR
STARTCHAR uni270A
ENCODING 9994
SWIDTH 1269 0
SWIDTH1 1269 0
BBX 24 25 4 -4
BITMAP
008F30
03F1FC
1630C6
FE3086
863086
863086
863086
861184
867FF6
86C01E
87800F
CD8003
F8E003
807F81
8000C1
C00063
C00023
400002
600006
200004
30000C
180018
0E0070
0381C0
00FF00
ENDCHAR
STARTCHAR uni270B
ENCODING 9995
SWIDTH 1269 0
SWIDTH1 1269 0
BBX 20 25 6 -4
BITMAP
01C000
036000
0E7800
1A6C00
126400
F26400
926400
926400
926400
926400
9264E0
9265B0
800730
800E60
801CC0
8030C0
806180
80C180
80C100
808300
C00200
C00600
600C00
303800
1FF000
ENDCHAR
STARTCHAR uni270C
ENCODING 9996
SWIDTH 1269 0
SWIDTH1 1269 0
BBX 18 25 7 -4
BITMAP
078300
0CC780
0C4CC0
044CC0
044880
046880
066880
063880
073980
3DB180
78B180
C88100
888100
CFFF00
CE0180
DC0080
FE00C0
C3F0C0
4018C0
403CC0
602080
200180
300300
1C0E00
07F800
ENDCHAR
STARTCHAR uni270D
ENCODING 9997
SWIDTH 1269 0
SWIDTH1 1269 0
BBX 25 25 3 -4
BITMAP
00030000
00078000
00070000
000E0000
001E0000
001C0000
003C0000
00780000
03F80000
0FFE0000
18E3C000
31E0F000
23C03C00
23FC0700
27C00180
67000080
6E000080
5C000080
78780080
3FCC0080
3F660080
7B5FFF80
71C0F200
60000000
C0000000
ENDCHAR
STARTCHAR uni270F
ENCODING 9999
SWIDTH 1269 0
SWIDTH1 1269 0
BBX 26 25 3 -4
BITMAP
1F000000
37800000
6CE00000
D8F00000
B0980000
E1080000
C31C0000
6C360000
38730000
30D98000
19CCC000
0E666000
03333000
01999800
00CCCC00
00666600
00333200
00199F00
000CC900
00067980
00037080
0001C080
0000F1C0
00001FC0
000003C0
ENDCHAR
STARTCHAR uni2712
ENCODING 10002
SWIDTH 1269 0
SWIDTH1 1269 0
BBX 26 25 3 -4
BITMAP
01C00000
03600000
0E300000
18180000
300C0000
20060000
60070000
C00F0000
C01F8000
603FC000
30786000
18F03800
0DE00C00
07C00400
03C00600
01C0C600
0061E600
0031E200
0010F300
00181B00
000E0D80
0007C780
0000FB80
00001FC0
00000380
ENDCHAR
STARTCHAR checkMark
ENCODING 10004
SWIDTH 1269 0
SWIDTH1 1269 0
BBX 26 25 3 -4
BITMAP
00000780
00000FC0
00001FC0
00003FC0
00007F80
00007F00
0000FF00
2001FE00
7803FC00
FC07F800
FC07F000
FC0FE000
FE1FE000
7E3FC000
7E7F8000
7F7F0000
3FFE0000
3FFE0000
3FFC0000
1FF80000
1FF00000
1FE00000
0FE00000
0FC00000
07800000
ENDCHAR
STARTCHAR uni2716
ENCODING 10006
SWIDTH 1269 0
SWIDTH1 1269 0
BBX 24 25 4 -4
BITMAP
000010
180038
3C007C
7E00FE
FF01FF
FF83FE
7FC7FC
3FEFF8
1FFFF0
0FFFE0
07FFC0
03FF80
01FF80
03FFC0
07FFE0
0FFFF0
1FFFF8
3FEFFC
7FC7FE
FF83FF
FF01FF
7E00FE
3C007C
180038
000010
ENDCHAR
STARTCHAR latinCross
ENCODING 10013
SWIDTH 1269 0
SWIDTH1 1269 0
BBX 26 25 3 -4
BITMAP
FFFFFF80
FFFFFFC0
FFFFFFC0
FFFFFFC0
FFF3FFC0
FFF3FFC0
FFF3FFC0
FFF3FFC0
FE003FC0
FE003FC0
FFF3FFC0
FFF3FFC0
FFF3FFC0
FFF3FFC0
FFF3FFC0
FFF3FFC0
FFF3FFC0
FFF3FFC0
FFF3FFC0
FFF3FFC0
FFF3FFC0
FFFFFFC0
FFFFFFC0
FFFFFFC0
7FFFFF80
ENDCHAR
STARTCHAR uni2721
ENCODING 10017
SWIDTH 1269 0
SWIDTH1 1269 0
BBX 26 25 3 -4
BITMAP
FFFFFF80
FFFFFFC0
FFFFFFC0
FFF7FFC0
FFF3FFC0
FFE1FFC0
FFCDFFC0
F00003C0
F00007C0
F9BE67C0
FD3F0FC0
FC7F9FC0
FE7F9FC0
FC7F8FC0
FD3F0FC0
F9BE67C0
F00007C0
FFCCFFC0
FFCDFFC0
FFE1FFC0
FFF3FFC0
FFF7FFC0
FFFFFFC0
FFFFFFC0
7FFFFF80
ENDCHAR
STARTCHAR uni2728
ENCODING 10024
SWIDTH 1269 0
SWIDTH1 1269 0
BBX 30 25 1 -4
BITMAP
01803000
03803800
03803800
06C03800
1C783800
1C386800
06E06800
03806C00
0380CC00
0180C600
00038380
007E01FC
0670003C
0E3F01F8
0F038380
0B00C600
19804C00
F1F06C00
C0306800
71E06800
19003800
0F003800
0E003800
06003800
06003000
ENDCHAR
STARTCHAR uni2733
ENCODING 10035
SWIDTH 1269 0
SWIDTH1 1269 0
BBX 26 25 3 -4
BITMAP
001E0000
00320000
00320000
0E323C00
1B326600
1992C600
18D2CC00
0E739800
07373000
01966000
7FC4FF80
CFE1F8C0
C00000C0
FFE1FDC0
7FC4FF80
03966000
07333000
0C739C00
18D2CC00
19926600
1B326600
0E323C00
00320000
00320000
001E0000
ENDCHAR
STARTCHAR eightPointedStar
ENCODING 10036
SWIDTH 1269 0
SWIDTH1 1269 0
BBX 26 23 3 -3
BITMAP
00080000
200C0100
180C0600
1E1C1C00
0F9E7C00
05D7D800
06739000
03323000
01336000
01E3E000
1F807C00
FC000FC0
0F807C00
01E3E000
03332000
03323000
06739800
05D7F800
0F1E7C00
1E1C1C00
180C0600
200C0100
00080000
ENDCHAR
STARTCHAR uni2744
ENCODING 10052
SWIDTH 1269 0
SWIDTH1 1269 0
BBX 23 25 4 -4
BITMAP
003800
002C00
00E700
00AD00
0C8370
7A665E
DA2C5A
422C52
73AD8E
64EF26
5E00F6
31998C
009800
73999C
4E04F2
60EF0E
73ADCE
C22C52
DA2C5E
7A665E
0C8170
00ED00
00E700
002C00
001800
ENDCHAR
STARTCHAR uni2747
ENCODING 10055
SWIDTH 1269 0
SWIDTH1 1269 0
BBX 26 25 3 -4
BITMAP
001E0000
00330000
00230000
08230C00
1C231C00
0E333C00
07323800
03967000
01DEE000
005C8000
7F807F80
C1CDE0C0
C07F80C0
C3CDE0C0
7F007F80
00DC8000
01DEE000
03927000
07323800
0E331C00
1C231C00
08230000
00230000
00320000
001E0000
ENDCHAR
STARTCHAR uni274C
ENCODING 10060
SWIDTH 1269 0
SWIDTH1 1269 0
BBX 25 25 3 -4
BITMAP
30000300
78000F80
FC001F80
7E003F80
7F007F80
3F80FF00
1FC1FE00
0FE3FC00
07FFF000
03FFE000
01FFC000
00FF8000
007F0000
00FF8000
01FFE000
03FFF000
07F7F800
0FE3FC00
1FC1FE00
3F80FF00
7F007F80
7E003F80
FC000F80
78000780
30000300
ENDCHAR
STARTCHAR crossMarkButton
ENCODING 10062
SWIDTH 1269 0
SWIDTH1 1269 0
BBX 26 25 3 -4
BITMAP
FFFFFF80
FFFFFFC0
FFFFFFC0
F3FFE7C0
F1FFC3C0
F0FF83C0
F07F07C0
F83E0FC0
FC1C1FC0
FE083FC0
FF007FC0
FF80FFC0
FFC0FFC0
FF807FC0
FF003FC0
FE001FC0
FC0C0FC0
F81E07C0
F03F03C0
F07F83C0
F0FFC3C0
F1FFF7C0
FFFFFFC0
FFFFFFC0
7FFFFF80
ENDCHAR
STARTCHAR redQuestionMark
ENCODING 10067
SWIDTH 1269 0
SWIDTH1 1269 0
BBX 15 25 8 -4
BITMAP
0FF0
3FFC
7FFC
7E7E
783E
F81E
F81E
001E
003E
007E
00FC
01F8
01F0
03E0
03C0
07C0
07C0
0000
0000
0380
07C0
07C0
0FE0
07C0
07C0
ENDCHAR
STARTCHAR whiteQuestionMark
ENCODING 10068
SWIDTH 1269 0
SWIDTH1 1269 0
BBX 16 25 8 -4
BITMAP
0FF0
381C
63C4
4E62
C832
F812
F813
0012
0032
0066
00CC
0198
0330
0260
0240
06C0
07C0
0000
0000
0380
06C0
0C40
0C40
0440
0780
ENDCHAR
STARTCHAR whiteExclamationMark
ENCODING 10069
SWIDTH 1269 0
SWIDTH1 1269 0
BBX 6 25 13 -4
BITMAP
F8
C8
C8
C8
C8
C8
C8
C8
C8
48
48
48
48
48
48
48
78
00
00
30
D8
84
84
CC
78
ENDCHAR
STARTCHAR redExclamationMark
ENCODING 10071
SWIDTH 1269 0
SWIDTH1 1269 0
BBX 6 25 13 -4
BITMAP
F8
F8
F8
F8
F8
F8
F8
F8
F8
78
78
78
78
78
78
78
78
00
00
30
F8
FC
FC
FC
78
ENDCHAR
STARTCHAR heartExclamation
ENCODING 10083
SWIDTH 1269 0
SWIDTH1 1269 0
BBX 20 25 6 -4
BITMAP
3F0FC0
6198E0
C0E030
806030
800010
800010
800010
800030
C00030
400060
600040
3000C0
180180
0C0300
060600
030C00
01B800
00E000
000000
000000
00F000
019800
011800
019000
00F000
ENDCHAR
STARTCHAR redHeart
ENCODING 10084
SWIDTH 1269 0
SWIDTH1 1269 0
BBX 28 25 2 -4
BITMAP
0FE07F00
3B70C9C0
7339C9C0
532F49E0
D32649A0
D32649B0
932649B0
932649B0
D32649B0
D32649A0
532649A0
732649E0
732649C0
332649C0
13264980
1B264B00
0F264B00
07264E00
03264C00
01A65800
00E67000
0066E000
003F8000
000F0000
00060000
ENDCHAR
STARTCHAR uni2795
ENCODING 10133
SWIDTH 1269 0
SWIDTH1 1269 0
BBX 24 25 4 -4
BITMAP
007E00
007E00
007E00
007E00
007E00
007E00
007E00
007E00
007E00
FFFFFF
FFFFFF
FFFFFF
FFFFFF
FFFFFF
FFFFFF
FFFFFF
007E00
007E00
007E00
007E00
007E00
007E00
007E00
007E00
007E00
ENDCHAR
STARTCHAR uni2796
ENCODING 10134
SWIDTH 1269 0
SWIDTH1 1269 0
BBX 24 7 4 5
BITMAP
FFFFFF
FFFFFF
FFFFFF
FFFFFF
FFFFFF
FFFFFF
FFFFFF
ENDCHAR
STARTCHAR uni2797
ENCODING 10135
SWIDTH 1269 0
SWIDTH1 1269 0
BBX 24 25 4 -4
BITMAP
007C00
00FE00
00FF00
00FF00
00FF00
00FE00
007E00
001800
000000
FFFFFF
FFFFFF
FFFFFF
FFFFFF
FFFFFF
FFFFFF
FFFFFF
000000
003800
007E00
00FE00
00FF00
00FF00
00FF00
007E00
007C00
ENDCHAR
STARTCHAR arrowright
ENCODING 10145
SWIDTH 1269 0
SWIDTH1 1269 0
BBX 26 25 3 -4
BITMAP
FFFFFF80
FFFFFFC0
FFFFFFC0
FFFFFFC0
FFFFFFC0
FFFFFFC0
FFFFFFC0
FFFF7FC0
FFFF3FC0
FFFF1FC0
FFFF0FC0
F00007C0
F00003C0
F00007C0
FFFF0FC0
FFFF1FC0
FFFF3FC0
FFFF7FC0
FFFFFFC0
FFFFFFC0
FFFFFFC0
FFFFFFC0
FFFFFFC0
FFFFFFC0
7FFFFF80
ENDCHAR
STARTCHAR uni27B0
ENCODING 10160
SWIDTH 1269 0
SWIDTH1 1269 0
BBX 23 19 4 -1
BITMAP
1E0078
FFEFFE
FFFFFE
FFFFFE
F7FF9E
03FF80
03E7C0
07C3C0
0781E0
0781E0
0F01E0
0F01E0
0781E0
0781E0
07C7E0
03FFC0
01FF80
00FF00
003800
ENDCHAR
STARTCHAR uni27BF
ENCODING 10175
SWIDTH 1269 0
SWIDTH1 1269 0
BBX 29 19 1 -1
BITMAP
C00F8008
FE7FF9F8
FFFFFFF8
FFFFFFF8
0FE01FC0
1FF03FC0
1E7879E0
3C38F0F0
383CE0F0
781CE070
781CE070
781CE070
781CE070
383CE070
3C3CF0F0
3FF87FE0
1FF07FE0
0FE03FC0
01000600
ENDCHAR
STARTCHAR rightArrowCurvingUp
ENCODING 10548
SWIDTH 1269 0
SWIDTH1 1269 0
BBX 26 25 3 -4
BITMAP
FFFFFF80
FFFFFFC0
FFFFFFC0
FFFE7FC0
FFFC3FC0
FFF81FC0
FFF00FC0
FFE007C0
FFC007C0
FFFC7FC0
FFFC7FC0
FFFC7FC0
FFFC7FC0
F0FC7FC0
F0FC7FC0
F0FC7FC0
F0FC7FC0
F8F87FC0
F8307FC0
FC00FFC0
FE01FFC0
FF03FFC0
FFFFFFC0
FFFFFFC0
7FFFFF80
ENDCHAR
STARTCHAR rightArrowCurvingDown
ENCODING 10549
SWIDTH 1269 0
SWIDTH1 1269 0
BBX 26 25 3 -4
BITMAP
FFFFFF80
FFFFFFC0
FFFFFFC0
FF03FFC0
FC01FFC0
FC00FFC0
F8307FC0
F8FC7FC0
F0FC7FC0
F0FC7FC0
F0FC7FC0
F0FC7FC0
FFFC7FC0
FFFC7FC0
FFFC7FC0
FFFC7FC0
FFC007C0
FFE00FC0
FFF00FC0
FFF81FC0
FFFC3FC0
FFFE7FC0
FFFFFFC0
FFFFFFC0
7FFFFF80
ENDCHAR
STARTCHAR arrowleft
ENCODING 11013
SWIDTH 1269 0
SWIDTH1 1269 0
BBX 26 25 3 -4
BITMAP
FFFFFF80
FFFFFFC0
FFFFFFC0
FFFFFFC0
FFFFFFC0
FFFFFFC0
FFFFFFC0
FFBFFFC0
FF3FFFC0
FE3FFFC0
FC3FFFC0
F80007C0
F00007C0
F80007C0
FC3FFFC0
FE3FFFC0
FF3FFFC0
FFBFFFC0
FFFFFFC0
FFFFFFC0
FFFFFFC0
FFFFFFC0
FFFFFFC0
FFFFFFC0
7FFFFF80
ENDCHAR
STARTCHAR arrowup
ENCODING 11014
SWIDTH 1269 0
SWIDTH1 1269 0
BBX 26 25 3 -4
BITMAP
FFFFFF80
FFFFFFC0
FFFFFFC0
FFFFFFC0
FFF3FFC0
FFE1FFC0
FFC0FFC0
FF807FC0
FF003FC0
FE001FC0
FFE1FFC0
FFE1FFC0
FFE1FFC0
FFE1FFC0
FFE1FFC0
FFE1FFC0
FFE1FFC0
FFE1FFC0
FFE1FFC0
FFE1FFC0
FFE1FFC0
FFFFFFC0
FFFFFFC0
FFFFFFC0
7FFFFF80
ENDCHAR
STARTCHAR arrowdown
ENCODING 11015
SWIDTH 1269 0
SWIDTH1 1269 0
BBX 26 25 3 -4
BITMAP
FFFFFF80
FFFFFFC0
FFFFFFC0
FFFFFFC0
FFE1FFC0
FFE1FFC0
FFE1FFC0
FFE1FFC0
FFE1FFC0
FFE1FFC0
FFE1FFC0
FFE1FFC0
FFE1FFC0
FFE1FFC0
FFE1FFC0
FE001FC0
FF003FC0
FF807FC0
FFC0FFC0
FFE1FFC0
FFF3FFC0
FFFFFFC0
FFFFFFC0
FFFFFFC0
7FFFFF80
ENDCHAR
STARTCHAR uni2B1B
ENCODING 11035
SWIDTH 1269 0
SWIDTH1 1269 0
BBX 26 25 3 -4
BITMAP
FFFFFF80
8888CCC0
8888CCC0
8888CCC0
FFFFFFC0
8888CCC0
8888CCC0
8888CCC0
FFFFFFC0
8888CCC0
8888CCC0
8888CCC0
FFFFFFC0
8888CCC0
8888CCC0
8888CCC0
FFFFFFC0
8888CCC0
8888CCC0
8888CCC0
FFFFFFC0
8888CCC0
8888CCC0
8888CCC0
FFFFFF80
ENDCHAR
STARTCHAR uni2B1C
ENCODING 11036
SWIDTH 1269 0
SWIDTH1 1269 0
BBX 26 25 3 -4
BITMAP
FFFFFF80
800000C0
800000C0
800000C0
800000C0
800000C0
800000C0
800000C0
800000C0
800000C0
800000C0
800000C0
800000C0
800000C0
800000C0
800000C0
800000C0
800000C0
800000C0
800000C0
800000C0
800000C0
800000C0
800000C0
FFFFFF80
ENDCHAR
STARTCHAR uni2B50
ENCODING 11088
SWIDTH 1269 0
SWIDTH1 1269 0
BBX 27 25 2 -4
BITMAP
00060000
000F0000
00090000
00198000
00108000
0030C000
0020C000
00E07000
7FC07FC0
F00000E0
60000060
300000C0
18000180
0C000300
06000600
03000C00
03000800
03000C00
02000C00
02000C00
02060400
061F8400
0670E600
07C03E00
07001E00
ENDCHAR
STARTCHAR hollowRedCircle
ENCODING 11093
SWIDTH 1269 0
SWIDTH1 1269 0
BBX 26 25 3 -4
BITMAP
00FFC000
03FFF000
07FFF800
0FFFFC00
1FFFFE00
3FC0FF00
3F003F00
7E001F80
7C001F80
FC000F80
FC000FC0
F8000FC0
F8000FC0
F8000FC0
FC000FC0
FC000F80
7C001F80
7E001F80
3F007F00
3FC0FF00
1FFFFE00
0FFFFC00
07FFF800
03FFE000
00FF8000
ENDCHAR
STARTCHAR wavyDash
ENCODING 12336
SWIDTH 1269 0
SWIDTH1 1269 0
BBX 26 7 3 5
BITMAP
F01E0380
F83F07C0
7C7F8F80
7FFFFF80
3FF3FF00
0FE1FE00
07807800
ENDCHAR
STARTCHAR partAlterationMark
ENCODING 12349
SWIDTH 1269 0
SWIDTH1 1269 0
BBX 27 25 2 -4
BITMAP
01E00000
0333E000
06172000
1C1C3000
38183000
60083000
C1803000
63801000
3F821000
1C861800
00CE1800
007A0800
00230C00
00030400
00018600
00018300
0000C300
0000C180
000060C0
00002060
00003060
000018C0
00000D80
00000700
00000200
ENDCHAR
STARTCHAR japaneseCongratulationsButton
ENCODING 12951
SWIDTH 1269 0
SWIDTH1 1269 0
BBX 26 25 3 -4
BITMAP
00FF8000
03FFF000
07FFF800
0FFFFC00
1CFFFE00
3CE00F00
7CE7CF00
7027CF80
7027CF80
FF27CF80
FE67CFC0
FCE00FC0
F8793FC0
F03B3FC0
E09B3FC0
E4F33F80
7CF33F80
7CF33780
3CE73700
3CCF0700
1CDF0E00
0FFFFC00
07FFF800
03FFE000
00FF8000
ENDCHAR
STARTCHAR japaneseSecretButton
ENCODING 12953
SWIDTH 1269 0
SWIDTH1 1269 0
BBX 26 25 3 -4
BITMAP
00FF8000
03FFF000
07FFF800
0FFFFC00
1F3CFE00
301C6700
787F2700
7E7FEF80
7E7CCF80
F01CCF80
F014CFC0
FE7487C0
FC2437C0
FC0433C0
F84473C0
FA6C7380
7268FF80
7E70E780
3E60EF00
3E440F00
1E7C0E00
0FFFFC00
07FFF800
03FFE000
00FF8000
ENDCHAR
STARTCHAR uniFE0E
ENCODING 65038
SWIDTH 0 0
DWIDTH 0 0
SWIDTH1 0 0
DWIDTH1 0 0
BBX 1 1 0 0
BITMAP
00
ENDCHAR
STARTCHAR uniFE0F
ENCODING 65039
SWIDTH 0 0
DWIDTH 0 0
SWIDTH1 0 0
DWIDTH1 0 0
BBX 1 1 0 0
BITMAP
00
ENDCHAR
STARTCHAR tileRedDragon
ENCODING 126980
SWIDTH 1269 0
SWIDTH1 1269 0
BBX 18 25 7 -4
BITMAP
7FFF00
400180
DFFF80
FFFF80
FFFFC0
E001C0
8000C0
BC00C0
B1C0C0
A0C0C0
80C0C0
88FCC0
8FFCC0
8CCCC0
84C8C0
C4C8C0
C7FCC0
C0C0C0
C0C0C0
C0C0C0
C0C2C0
C046C0
C00C80
C00080
7FFF80
ENDCHAR
STARTCHAR joker
ENCODING 127183
SWIDTH 1269 0
SWIDTH1 1269 0
BBX 18 25 7 -4
BITMAP
FFFFC0
800040
900040
90C040
80C040
80C040
812040
8F3C40
B12740
B42B40
84F040
821040
817040
801040
82D040
833040
87F040
85E840
832040
800040
800040
800640
800240
800040
FFFFC0
ENDCHAR
STARTCHAR aButtonBloodType
ENCODING 127344
SWIDTH 1269 0
SWIDTH1 1269 0
BBX 26 25 3 -4
BITMAP
FFFFFF80
FFFFFFC0
FFFFFFC0
FFFFFFC0
FFC1FFC0
FFC0FFC0
FFC0FFC0
FF807FC0
FF887FC0
FF8C7FC0
FF0C3FC0
FF1C3FC0
FE1E3FC0
FE1E1FC0
FE001FC0
FC001FC0
FC000FC0
FC3F0FC0
F87F8FC0
F87F87C0
F87F87C0
FFFFFFC0
FFFFFFC0
FFFFFFC0
7FFFFF80
ENDCHAR
STARTCHAR bButtonBloodType
ENCODING 127345
SWIDTH 1269 0
SWIDTH1 1269 0
BBX 26 25 3 -4
BITMAP
FFFFFF80
FFFFFFC0
FFFFFFC0
FFFFFFC0
FE007FC0
FE001FC0
FE001FC0
FE3E1FC0
FE3F1FC0
FE3E1FC0
FE3C1FC0
FE003FC0
FE003FC0
FE001FC0
FE3F0FC0
FE3F0FC0
FE3F0FC0
FE3E0FC0
FE001FC0
FE001FC0
FE007FC0
FFFFFFC0
FFFFFFC0
FFFFFFC0
7FFFFF80
ENDCHAR
STARTCHAR oButtonBloodType
ENCODING 127358
SWIDTH 1269 0
SWIDTH1 1269 0
BBX 26 25 3 -4
BITMAP
FFFFFF80
FFFFFFC0
FFFFFFC0
FF80FFC0
FF007FC0
FE003FC0
FE1E1FC0
FE1E1FC0
FC3E1FC0
FC3F1FC0
FC3F0FC0
FC3F0FC0
FC3F0FC0
FC3F0FC0
FC3F0FC0
FC3F1FC0
FC3E1FC0
FE1E1FC0
FE1C1FC0
FF003FC0
FF007FC0
FFC0FFC0
FFFFFFC0
FFFFFFC0
7FFFFF80
ENDCHAR
STARTCHAR pButton
ENCODING 127359
SWIDTH 1269 0
SWIDTH1 1269 0
BBX 26 25 3 -4
BITMAP
FFFFFF80
FFFFFFC0
FFFFFFC0
FFFFFFC0
FE007FC0
FE003FC0
FE001FC0
FE1E1FC0
FE1F0FC0
FE1F0FC0
FE1F1FC0
FE1E1FC0
FE001FC0
FE003FC0
FE00FFC0
FE1FFFC0
FE1FFFC0
FE1FFFC0
FE1FFFC0
FE1FFFC0
FE1FFFC0
FFFFFFC0
FFFFFFC0
FFFFFFC0
7FFFFF80
ENDCHAR
STARTCHAR abButtonBloodType
ENCODING 127374
SWIDTH 1269 0
SWIDTH1 1269 0
BBX 26 25 3 -4
BITMAP
FFFFFF80
FFFFFFC0
FFFFFFC0
FFFFFFC0
FFFFFFC0
FFFFFFC0
FFFFFFC0
F87C03C0
F87C03C0
F83C71C0
F13C73C0
F33C03C0
F31C07C0
E39C73C0
E01C71C0
C00C71C0
C78C03C0
CFCC03C0
FFFFFFC0
FFFFFFC0
FFFFFFC0
FFFFFFC0
FFFFFFC0
FFFFFFC0
7FFFFF80
ENDCHAR
STARTCHAR clButton
ENCODING 127377
SWIDTH 1269 0
SWIDTH1 1269 0
BBX 26 25 3 -4
BITMAP
FFFFFF80
FFFFFFC0
FFFFFFC0
FFFFFFC0
FFFFFFC0
FFFFFFC0
FFFFFFC0
FC0E3FC0
F80E3FC0
F1FE3FC0
F3FE3FC0
E3FE3FC0
E3FE3FC0
E3FE3FC0
F3FE3FC0
F1FE3FC0
F00E03C0
F80E03C0
FFFFFFC0
FFFFFFC0
FFFFFFC0
FFFFFFC0
FFFFFFC0
FFFFFFC0
7FFFFF80
ENDCHAR
STARTCHAR coolButton
ENCODING 127378
SWIDTH 1269 0
SWIDTH1 1269 0
BBX 26 25 3 -4
BITMAP
FFFFFF80
FFFFFFC0
FFFFFFC0
FFFFFFC0
FFFFFFC0
FFFFFFC0
FFFFFFC0
FFFFFFC0
FFFFFFC0
E31E33C0
CA4C93C0
9EE5D3C0
9EE1C3C0
9EE5D3C0
CA4C93C0
E31E30C0
FFFFFFC0
FFFFFFC0
FFFFFFC0
FFFFFFC0
FFFFFFC0
FFFFFFC0
FFFFFFC0
FFFFFFC0
7FFFFF80
ENDCHAR
STARTCHAR freeButton
ENCODING 127379
SWIDTH 1269 0
SWIDTH1 1269 0
BBX 26 25 3 -4
BITMAP
FFFFFF80
FFFFFFC0
FFFFFFC0
FFFFFFC0
FFFFFFC0
FFFFFFC0
FFFFFFC0
FFFFFFC0
FFFFFFC0
E11C21C0
EF4DEFC0
EF6DEFC0
E10C63C0
EF4DEFC0
EF6DEFC0
EF7421C0
FFFFFFC0
FFFFFFC0
FFFFFFC0
FFFFFFC0
FFFFFFC0
FFFFFFC0
FFFFFFC0
FFFFFFC0
7FFFFF80
ENDCHAR
STARTCHAR idButton
ENCODING 127380
SWIDTH 1269 0
SWIDTH1 1269 0
BBX 26 25 3 -4
BITMAP
FFFFFF80
FFFFFFC0
FFFFFFC0
FFFFFFC0
FFFFFFC0
FFFFFFC0
FFFFFFC0
FCE03FC0
FCE00FC0
FCE38FC0
FCE3C7C0
FCE3C7C0
FCE3C7C0
FCE3C7C0
FCE3C7C0
FCE38FC0
FCE00FC0
FCE03FC0
FFFFFFC0
FFFFFFC0
FFFFFFC0
FFFFFFC0
FFFFFFC0
FFFFFFC0
7FFFFF80
ENDCHAR
STARTCHAR newButton
ENCODING 127381
SWIDTH 1269 0
SWIDTH1 1269 0
BBX 26 25 3 -4
BITMAP
FFFFFF80
FFFFFFC0
FFFFFFC0
FFFFFFC0
FFFFFFC0
FFFFFFC0
FFFFFFC0
FFFFFFC0
FFFFFFC0
CE80CCC0
C69ECCC0
D69EC5C0
D28215C0
DA9E35C0
D89F31C0
DC8333C0
FFFFFFC0
FFFFFFC0
FFFFFFC0
FFFFFFC0
FFFFFFC0
FFFFFFC0
FFFFFFC0
FFFFFFC0
7FFFFF80
ENDCHAR
STARTCHAR ngButton
ENCODING 127382
SWIDTH 1269 0
SWIDTH1 1269 0
BBX 26 25 3 -4
BITMAP
FFFFFF80
FFFFFFC0
FFFFFFC0
FFFFFFC0
FFFFFFC0
FFFFFFC0
FFFFFFC0
FFFFFFC0
E1C703C0
E0C603C0
E0C47FC0
E0447FC0
E24443C0
E20443C0
E30473C0
E30603C0
E38603C0
FFFFFFC0
FFFFFFC0
FFFFFFC0
FFFFFFC0
FFFFFFC0
FFFFFFC0
FFFFFFC0
7FFFFF80
ENDCHAR
STARTCHAR okButton
ENCODING 127383
SWIDTH 1269 0
SWIDTH1 1269 0
BBX 26 25 3 -4
BITMAP
FFFFFF80
FFFFFFC0
FFFFFFC0
FFFFFFC0
FFFFFFC0
FFFFFFC0
FFFFFFC0
F83C71C0
F00C63C0
E10C43C0
E3C447C0
E3C40FC0
E3C40FC0
E3C407C0
E3C447C0
E10C63C0
F00C63C0
F83C71C0
FFFFFFC0
FFFFFFC0
FFFFFFC0
FFFFFFC0
FFFFFFC0
FFFFFFC0
7FFFFF80
ENDCHAR
STARTCHAR sosButton
ENCODING 127384
SWIDTH 1269 0
SWIDTH1 1269 0
BBX 26 25 3 -4
BITMAP
FFFFFF80
FFFFFFC0
FFFFFFC0
FFFFFFC0
FFFFFFC0
FFFFFFC0
FFFFFFC0
E0E1E0C0
C0C0C0C0
C58C45C0
C79C47C0
C39C43C0
E19C61C0
F09C70C0
F89C78C0
D88C58C0
C1C0C0C0
C1E1C1C0
FFFFFFC0
FFFFFFC0
FFFFFFC0
FFFFFFC0
FFFFFFC0
FFFFFFC0
7FFFFF80
ENDCHAR
STARTCHAR upButton
ENCODING 127385
SWIDTH 1269 0
SWIDTH1 1269 0
BBX 26 25 3 -4
BITMAP
FFFFFF80
FFFFFFC0
FFFFFFC0
FFFFFFC0
FFFFFFC0
FFFFFFC0
FFFFFFC0
C71038C0
C71018C0
C71108C0
C71188C0
C71188C0
C71008C0
C71018C0
C711FFC0
C631FDC0
C031F8C0
F071F8C0
FFFFFFC0
FFFFFFC0
FFFFFFC0
FFFFFFC0
FFFFFFC0
FFFFFFC0
7FFFFF80
ENDCHAR
STARTCHAR vsButton
ENCODING 127386
SWIDTH 1269 0
SWIDTH1 1269 0
BBX 26 25 3 -4
BITMAP
FFFFFF80
FFFFFFC0
FFFFFFC0
FFFFFFC0
FFFFFFC0
FFFFFFC0
FFFFFFC0
E3E603C0
F3E607C0
F3C67FC0
F1CE7FC0
F9CE1FC0
F98F07C0
F89FC7C0
FC9FE3C0
FC1FE3C0
FC3C03C0
FE3C07C0
FFFFFFC0
FFFFFFC0
FFFFFFC0
FFFFFFC0
FFFFFFC0
FFFFFFC0
7FFFFF80
ENDCHAR
STARTCHAR ARegion
ENCODING 127462
SWIDTH 1269 0
SWIDTH1 1269 0
BBX 18 18 7 0
BITMAP
07F000
07F800
07F800
0FF800
0FFC00
0F7C00
1F3C00
1F3C00
1F3E00
1E3E00
3E1E00
3FFF00
3FFF00
7FFF00
7FFF80
7C0F80
F80F80
F807C0
ENDCHAR
STARTCHAR BRegion
ENCODING 127463
SWIDTH 1269 0
SWIDTH1 1269 0
BBX 14 18 9 0
BITMAP
FFC0
FFF0
FFF8
FFF8
F8F8
F8F8
F8F8
FFF0
FFE0
FFF0
FFF8
F87C
F87C
F8FC
FFF8
FFF8
FFF0
FFC0
ENDCHAR
STARTCHAR CRegion
ENCODING 127464
SWIDTH 1269 0
SWIDTH1 1269 0
BBX 14 18 9 0
BITMAP
07F0
1FFC
3FF8
7FF8
7C18
FC00
F800
F800
F800
F800
F800
F800
F800
FC08
7FF8
3FF8
1FF8
0FF8
ENDCHAR
STARTCHAR DRegion
ENCODING 127465
SWIDTH 1269 0
SWIDTH1 1269 0
BBX 15 18 8 0
BITMAP
FFC0
FFF0
FFF8
FFFC
F87E
F83E
F83E
F83E
F83E
F83E
F83E
F83E
F83E
F87C
FFFC
FFF8
FFF0
FFC0
ENDCHAR
STARTCHAR ERegion
ENCODING 127466
SWIDTH 1269 0
SWIDTH1 1269 0
BBX 10 18 11 0
BITMAP
FFC0
FFC0
FFC0
FFC0
F000
F000
F000
FFC0
FFC0
FFC0
FFC0
F000
F000
F000
FFC0
FFC0
FFC0
FFC0
ENDCHAR
STARTCHAR FRegion
ENCODING 127467
SWIDTH 1269 0
SWIDTH1 1269 0
BBX 10 18 11 0
BITMAP
FFC0
FFC0
FFC0
FFC0
F000
F000
F000
FFC0
FFC0
FFC0
FFC0
F000
F000
F000
F000
F000
F000
F000
ENDCHAR
STARTCHAR GRegion
ENCODING 127468
SWIDTH 1269 0
SWIDTH1 1269 0
BBX 16 18 8 0
BITMAP
03FC
0FFE
3FFE
3FFC
7E04
7C00
FC00
F800
F8FF
F8FF
F8FF
F81F
7C1F
7E1F
7FFF
3FFF
1FFF
07FC
ENDCHAR
STARTCHAR HRegion
ENCODING 127469
SWIDTH 1269 0
SWIDTH1 1269 0
BBX 16 18 8 0
BITMAP
F81F
F81F
F81F
F81F
F81F
F81F
F81F
FFFF
FFFF
FFFF
FFFF
F81F
F81F
F81F
F81F
F81F
F81F
F81F
ENDCHAR
STARTCHAR IRegion
ENCODING 127470
SWIDTH 1269 0
SWIDTH1 1269 0
BBX 10 18 11 0
BITMAP
FFC0
FFC0
FFC0
3F00
3E00
3E00
3E00
3E00
3E00
3E00
3E00
3E00
3E00
3E00
3F00
FFC0
FFC0
FFC0
ENDCHAR
STARTCHAR JRegion
ENCODING 127471
SWIDTH 1269 0
SWIDTH1 1269 0
BBX 9 18 11 0
BITMAP
0F80
0F80
0F80
0F80
0F80
0F80
0F80
0F80
0F80
0F80
0F80
0F80
0F80
0F80
FF80
FF00
FF00
FC00
ENDCHAR
STARTCHAR KRegion
ENCODING 127472
SWIDTH 1269 0
SWIDTH1 1269 0
BBX 15 18 8 0
BITMAP
F83E
F87E
F87C
F8F8
F9F0
F9F0
FBE0
FFC0
FFC0
FFE0
FFE0
FDF0
F9F0
F8F8
F8F8
F87C
F87E
F83E
ENDCHAR
STARTCHAR LRegion
ENCODING 127473
SWIDTH 1269 0
SWIDTH1 1269 0
BBX 12 18 10 0
BITMAP
F800
F800
F800
F800
F800
F800
F800
F800
F800
F800
F800
F800
F800
F800
FFF0
FFF0
FFF0
FFF0
ENDCHAR
STARTCHAR MRegion
ENCODING 127474
SWIDTH 1269 0
SWIDTH1 1269 0
BBX 20 18 6 0
BITMAP
FC07F0
FE07F0
FE07F0
FE07F0
FE0FF0
FF0FF0
FF0EF0
FF1EF0
F79EF0
F79CF0
F79CF0
F3BCF0
F3FCF0
F3F8F0
F3F8F0
F1F8F0
F1F0F0
F1F0F0
ENDCHAR
STARTCHAR NRegion
ENCODING 127475
SWIDTH 1269 0
SWIDTH1 1269 0
BBX 17 18 7 0
BITMAP
FE0780
FE0780
FF0780
FF0780
FF8780
F78780
F7C780
FBE780
FBE780
F9F780
F9F780
F8FF80
F8FF80
F87F80
F87F80
F83F80
F83F80
F81F80
ENDCHAR
STARTCHAR ORegion
ENCODING 127476
SWIDTH 1269 0
SWIDTH1 1269 0
BBX 18 18 7 0
BITMAP
07F800
1FFE00
3FFF00
7FFF00
7E1F80
7C0F80
FC0F80
F80F80
F80FC0
F80FC0
F80F80
FC0F80
7C0F80
7E1F80
7FFF00
3FFF00
1FFE00
07F800
ENDCHAR
STARTCHAR PRegion
ENCODING 127477
SWIDTH 1269 0
SWIDTH1 1269 0
BBX 13 18 9 0
BITMAP
FF80
FFE0
FFF0
FFF8
F8F8
F8F8
F8F8
F8F8
FFF8
FFF0
FFF0
FFC0
F800
F800
F800
F800
F800
F800
ENDCHAR
STARTCHAR QRegion
ENCODING 127478
SWIDTH 1269 0
SWIDTH1 1269 0
BBX 17 22 7 -4
BITMAP
07F800
1FFC00
3FFE00
7FFF00
7E1F80
FC0F80
F80F80
F80F80
F80F80
F80F80
F80F80
F80F80
FC0F80
7C1F80
7FFF00
3FFE00
1FFC00
0FFC00
007E00
003E00
003F00
001F80
ENDCHAR
STARTCHAR RRegion
ENCODING 127479
SWIDTH 1269 0
SWIDTH1 1269 0
BBX 15 18 8 0
BITMAP
FF80
FFF0
FFF8
FFF8
F8F8
F8F8
F8F8
F9F8
FFF0
FFE0
FFE0
FFE0
F9F0
F9F8
F8F8
F87C
F87E
F83E
ENDCHAR
STARTCHAR SRegion
ENCODING 127480
SWIDTH 1269 0
SWIDTH1 1269 0
BBX 12 18 10 0
BITMAP
1FC0
7FF0
FFF0
FFE0
F820
F800
FC00
FF00
7FC0
3FE0
0FF0
03F0
01F0
81F0
FFF0
FFE0
FFC0
FF80
ENDCHAR
STARTCHAR TRegion
ENCODING 127481
SWIDTH 1269 0
SWIDTH1 1269 0
BBX 14 18 9 0
BITMAP
FFFC
FFFC
FFFC
FFFC
0F80
0F80
0F80
0F80
0F80
0F80
0F80
0F80
0F80
0F80
0F80
0F80
0F80
0F80
ENDCHAR
STARTCHAR URegion
ENCODING 127482
SWIDTH 1269 0
SWIDTH1 1269 0
BBX 16 18 8 0
BITMAP
F81F
F81F
F81F
F81F
F81F
F81F
F81F
F81F
F81F
F81F
F81F
F81E
F83E
7C3E
7FFE
7FFC
3FF8
0FF0
ENDCHAR
STARTCHAR VRegion
ENCODING 127483
SWIDTH 1269 0
SWIDTH1 1269 0
BBX 17 18 7 0
BITMAP
FC0F80
7C0F80
7C1F80
7E1F00
3E1F00
3E1F00
3E3E00
1F3E00
1F3E00
1F3C00
0F7C00
0FFC00
0FFC00
07F800
07F800
07F800
03F000
03F000
ENDCHAR
STARTCHAR WRegion
ENCODING 127484
SWIDTH 1269 0
SWIDTH1 1269 0
BBX 25 18 3 0
BITMAP
F81E0780
783E0780
783F0F80
7C3F0F80
7C3F0F00
3C7F0F00
3C7F9F00
3E7F9F00
3E779E00
1EF39E00
1EF39E00
1EF3FE00
1FF3FC00
0FE3FC00
0FE1FC00
0FE1FC00
0FE1F800
07E1F800
ENDCHAR
STARTCHAR XRegion
ENCODING 127485
SWIDTH 1269 0
SWIDTH1 1269 0
BBX 18 18 7 0
BITMAP
FC0F80
7C1F80
3E1F00
3F3E00
1F7E00
0FFC00
0FF800
07F800
03F000
07F000
07F800
0FF800
1FFC00
1F7E00
3F3E00
3E1F00
7C1F80
FC0FC0
ENDCHAR
STARTCHAR YRegion
ENCODING 127486
SWIDTH 1269 0
SWIDTH1 1269 0
BBX 16 18 8 0
BITMAP
F81F
F83E
7C3E
7C7C
3E7C
3EF8
1FF8
1FF0
0FF0
07E0
07E0
07C0
07C0
07C0
07C0
07C0
07C0
07C0
ENDCHAR
STARTCHAR ZRegion
ENCODING 127487
SWIDTH 1269 0
SWIDTH1 1269 0
BBX 14 18 9 0
BITMAP
FFFC
FFFC
FFFC
FFF8
01F8
01F0
03E0
07E0
0FC0
0F80
1F00
3F00
3E00
7C00
FFFC
FFFC
FFFC
FFFC
ENDCHAR
STARTCHAR japaneseHereButton
ENCODING 127489
SWIDTH 1269 0
SWIDTH1 1269 0
BBX 26 25 3 -4
BITMAP
FFFFFF80
FFFFFFC0
FFFFFFC0
FFFFFFC0
FFFFFFC0
FFFFFFC0
F81E07C0
F81E07C0
FFDFF7C0
FFDFF7C0
FFDFF7C0
FFDFF7C0
FFDFF7C0
FFDFF7C0
FFDFF7C0
FFDFF7C0
F01C07C0
F01C07C0
FFDFF7C0
FFFFFFC0
FFFFFFC0
FFFFFFC0
FFFFFFC0
FFFFFFC0
7FFFFF80
ENDCHAR
STARTCHAR japaneseServiceChargeButton
ENCODING 127490
SWIDTH 1269 0
SWIDTH1 1269 0
BBX 26 25 3 -4
BITMAP
FFFFFF80
FFFFFFC0
FFFFFFC0
FFFFFFC0
FFFFFFC0
FF3E7FC0
FFBE7FC0
FFBE7FC0
FFBE7FC0
F80007C0
F80007C0
FFBE7FC0
FFBE7FC0
FFBE7FC0
FFBE7FC0
FFFE7FC0
FFFC7FC0
FFF8FFC0
FFF1FFC0
FFE3FFC0
FFFFFFC0
FFFFFFC0
FFFFFFC0
FFFFFFC0
7FFFFF80
ENDCHAR
STARTCHAR japaneseFreeOfChargeButton
ENCODING 127514
SWIDTH 1269 0
SWIDTH1 1269 0
BBX 26 25 3 -4
BITMAP
FFFFFF80
FFFFFFC0
FFFFFFC0
FFFFFFC0
FE7FFFC0
FC000FC0
FC000FC0
F8CD9FC0
F2CD9FC0
FECD9FC0
F00007C0
FECD9FC0
FECD9FC0
FECD9FC0
F00007C0
F00007C0
FFFFFFC0
FCDDCFC0
F9CCCFC0
F9CCE7C0
FBDCE7C0
FFFFFFC0
FFFFFFC0
FFFFFFC0
7FFFFF80
ENDCHAR
STARTCHAR japaneseReservedButton
ENCODING 127535
SWIDTH 1269 0
SWIDTH1 1269 0
BBX 26 25 3 -4
BITMAP
FFFFFF80
FFFFFFC0
FFFFFFC0
FFFFFFC0
FE73FFC0
FE738FC0
FE701FC0
F010FFC0
F013F3C0
FE73F7C0
FE7007C0
FE7FFFC0
FE1FFFC0
F81007C0
F073E7C0
FE73E7C0
FE7007C0
FE73E7C0
FE73E7C0
FE7007C0
F8F3E7C0
FFFFFFC0
FFFFFFC0
FFFFFFC0
7FFFFF80
ENDCHAR
STARTCHAR japaneseProhibitedButton
ENCODING 127538
SWIDTH 1269 0
SWIDTH1 1269 0
BBX 26 25 3 -4
BITMAP
FFFFFF80
FFFFFFC0
FFFFFFC0
FF7F7FC0
FF7F7FC0
F00807C0
F00807C0
FE3E1FC0
FD0C5FC0
F96947C0
F37367C0
FFFFFFC0
FC001FC0
FFFFFFC0
FFFFFFC0
F00007C0
FFF3FFC0
FE733FC0
FCF39FC0
F1F3CFC0
FB87EFC0
FFFFFFC0
FFFFFFC0
FFFFFFC0
7FFFFF80
ENDCHAR
STARTCHAR japaneseVacancyButton
ENCODING 127539
SWIDTH 1269 0
SWIDTH1 1269 0
BBX 26 25 3 -4
BITMAP
FFFFFF80
FFFFFFC0
FFFFFFC0
FFF3FFC0
FFF3FFC0
F80007C0
F80007C0
F9DCE7C0
F99CE7C0
FF9CEFC0
FE3CE7C0
F87C0FC0
F9FFFFC0
FE000FC0
FE000FC0
FFF3FFC0
FFF3FFC0
FFF3FFC0
F80007C0
F80007C0
FFFFFFC0
FFFFFFC0
FFFFFFC0
FFFFFFC0
7FFFFF80
ENDCHAR
STARTCHAR japanesePassingGradeButton
ENCODING 127540
SWIDTH 1269 0
SWIDTH1 1269 0
BBX 26 25 3 -4
BITMAP
FFFFFF80
FFFFFFC0
FFFFFFC0
FFE3FFC0
FFE1FFC0
FFC8FFC0
FF9C7FC0
FF3E3FC0
FC7F1FC0
F88047C0
F18067C0
FFFFFFC0
FFFFFFC0
FE001FC0
FE001FC0
FE7F9FC0
FE7F9FC0
FE7F9FC0
FE001FC0
FE001FC0
FE7F9FC0
FFFFFFC0
FFFFFFC0
FFFFFFC0
7FFFFF80
ENDCHAR
STARTCHAR japaneseNoVacancyButton
ENCODING 127541
SWIDTH 1269 0
SWIDTH1 1269 0
BBX 26 25 3 -4
BITMAP
FFFFFF80
FFFFFFC0
FFFFFFC0
FFFFFFC0
F9F73FC0
F80007C0
FE8007C0
FFF73FC0
FFF73FC0
F30007C0
F0FCFFC0
FCFCFFC0
FF8007C0
FF9CE7C0
FE94A7C0
FE94A7C0
FC94A7C0
FC9027C0
F997A7C0
F19FE7C0
FB9F8FC0
FFFFFFC0
FFFFFFC0
FFFFFFC0
7FFFFF80
ENDCHAR
STARTCHAR japaneseNotFreeOfChargeButton
ENCODING 127542
SWIDTH 1269 0
SWIDTH1 1269 0
BBX 26 25 3 -4
BITMAP
FFFFFF80
FFFFFFC0
FFFFFFC0
FFCFFFC0
FFCFFFC0
F80007C0
F80007C0
FF9FFFC0
FF3FFFC0
FE001FC0
FE3F9FC0
FC3F9FC0
F1001FC0
FB3F9FC0
FF3F9FC0
FF001FC0
FF3F9FC0
FF3F9FC0
FF3C9FC0
FF3E1FC0
FFFFFFC0
FFFFFFC0
FFFFFFC0
FFFFFFC0
7FFFFF80
ENDCHAR
STARTCHAR japaneseMonthlyAmountButton
ENCODING 127543
SWIDTH 1269 0
SWIDTH1 1269 0
BBX 26 25 3 -4
BITMAP
FFFFFF80
FFFFFFC0
FFFFFFC0
FFFFFFC0
FE001FC0
FE001FC0
FE7FDFC0
FE7FDFC0
FE7FDFC0
FE001FC0
FE001FC0
FE7FDFC0
FE7FDFC0
FE7FDFC0
FE001FC0
FE7FDFC0
FEFFDFC0
FCFFDFC0
F8FFDFC0
F9FC1FC0
FBFC1FC0
FFFFFFC0
FFFFFFC0
FFFFFFC0
7FFFFF80
ENDCHAR
STARTCHAR japaneseApplicationButton
ENCODING 127544
SWIDTH 1269 0
SWIDTH1 1269 0
BBX 26 25 3 -4
BITMAP
FFFFFF80
FFFFFFC0
FFFFFFC0
FFF3FFC0
FFF3FFC0
FFF3FFC0
F8000FC0
F8000FC0
F9F3EFC0
F9F3EFC0
F8000FC0
F8000FC0
F9F3EFC0
F9F3EFC0
F8000FC0
F8000FC0
F9F3EFC0
FFF3FFC0
FFF3FFC0
FFF3FFC0
FFF3FFC0
FFFFFFC0
FFFFFFC0
FFFFFFC0
7FFFFF80
ENDCHAR
STARTCHAR japaneseDiscountButton
ENCODING 127545
SWIDTH 1269 0
SWIDTH1 1269 0
BBX 26 25 3 -4
BITMAP
FFFFFF80
FFFFFFC0
FFFFFFC0
FF3FE7C0
FF3FE7C0
F00267C0
F7FA67C0
F73A67C0
F80667C0
FF3E67C0
F80667C0
FF3E67C0
FF3E67C0
F00267C0
FFFE67C0
F80667C0
F9E7E7C0
F9E7E7C0
F807E7C0
F80707C0
F9FF9FC0
FFFFFFC0
FFFFFFC0
FFFFFFC0
7FFFFF80
ENDCHAR
STARTCHAR japaneseOpenForBusinessButton
ENCODING 127546
SWIDTH 1269 0
SWIDTH1 1269 0
BBX 26 25 3 -4
BITMAP
FFFFFF80
FFFFFFC0
FFFFFFC0
FFFFFFC0
FCE78FC0
FE739FC0
FE773FC0
F80007C0
F9FFE7C0
F90027C0
FF003FC0
FF7F3FC0
FF003FC0
FF003FC0
FFE7FFC0
FC001FC0
FC001FC0
FCFFDFC0
FCFFDFC0
FC001FC0
FCFFDFC0
FFFFFFC0
FFFFFFC0
FFFFFFC0
7FFFFF80
ENDCHAR
STARTCHAR japaneseBargainButton
ENCODING 127568
SWIDTH 1269 0
SWIDTH1 1269 0
BBX 26 25 3 -4
BITMAP
00FF8000
03FFF000
07FFF800
0FFFFC00
1E600E00
3CE7CF00
78E7CF00
73E00F80
7727CF80
FE600F80
FCE00FC0
F8FFFFC0
F0C007C0
F0FFBFC0
F4FFBFC0
FC800780
7CFFBF80
7CE7BF80
3CF3BF00
3CFFBF00
1CFE3E00
0FFFFC00
07FFF800
03FFE000
00FF8000
ENDCHAR
STARTCHAR japaneseAcceptableButton
ENCODING 127569
SWIDTH 1269 0
SWIDTH1 1269 0
BBX 26 25 3 -4
BITMAP
00FF8000
03FFF000
07FFF800
0FFFFC00
1FFFFE00
30000700
70000700
7FFF9F80
7FFF9F80
FC039F80
FC039FC0
FCF39FC0
FCF39FC0
FCF39FC0
FCF39FC0
FC039F80
7C039F80
7CFF9F80
3FFF9F00
3FFF9F00
1FFC1E00
0FFFFC00
07FFF800
03FFE000
00FF8000
ENDCHAR
STARTCHAR u1F300
ENCODING 127744
SWIDTH 1269 0
SWIDTH1 1269 0
BBX 25 25 3 -4
BITMAP
007FE000
01FFF800
03FFFE00
0FE01F00
1F800780
1E0F8380
3C3FE180
7C7FF880
78FDFC00
78F03C00
71E01E00
F1C70E00
F1C78F00
F1C38F00
F1E18F00
70F38F00
78FF8F00
787F0E00
3C1E1E00
3E003E00
1F007C00
0FE1F800
07FFF000
01FFE000
007F8000
ENDCHAR
STARTCHAR u1F301
ENCODING 127745
SWIDTH 1269 0
SWIDTH1 1269 0
BBX 26 25 3 -4
BITMAP
FFFFFF80
800000C0
800000C0
8001B0C0
8003F8C0
800368C0
800566C0
8019B3C0
8031EBC0
8063E6C0
818527C0
878D27C0
9CB5E6C0
E8E5E7C0
FBA53FC0
FDA560C0
87F5C0C0
830D80C0
801F00C0
807000C0
80C000C0
818000C0
810000C0
830000C0
7FFFFF80
ENDCHAR
STARTCHAR u1F302
ENCODING 127746
SWIDTH 1269 0
SWIDTH1 1269 0
BBX 26 25 3 -4
BITMAP
7C000000
C6120000
9B160000
BDBF0000
972D0000
F3A58000
60E48000
07E2C000
0C334000
07196000
3F88A000
0CC4B000
07325000
01997800
00ECA800
00325C00
001DE400
0006B600
00038200
0000C300
00007100
00001980
00000D80
000003C0
000000C0
ENDCHAR
STARTCHAR nightWithStars
ENCODING 127747
SWIDTH 1269 0
SWIDTH1 1269 0
BBX 27 25 2 -4
BITMAP
7FFFFFE0
FC07FFE0
FFFFFFE0
FEEFFEE0
86FBFE60
A7DFFE60
86DDFCE0
A6F5E0E0
87F5FFE0
A6F5FF80
87BEC7A0
A7BE9320
80E98320
FFFD4520
81E97D20
FFFC7D20
81E87C20
FFFC7C20
81FFEFE0
FFEBFFE0
813FEFE0
FFFFFFE0
FFFFFFE0
FFFFFFE0
7FFFFFE0
ENDCHAR
STARTCHAR u1F304
ENCODING 127748
SWIDTH 1269 0
SWIDTH1 1269 0
BBX 26 25 3 -4
BITMAP
FFFFFF80
E33331C0
F19333C0
B99333C0
989B26C0
8C9B66C0
C4DA4CC0
E64A58C0
F34A91C0
992AB3C0
8CA826C0
860148C0
9D4E10C0
B6BF24C0
E2609FC0
C1C0F1C0
906040C0
B13181C0
F19301C0
F08E41C0
E0CD80C0
E06100C0
E02B00C0
E00600C0
FFFFFF80
ENDCHAR
STARTCHAR u1F305
ENCODING 127749
SWIDTH 1269 0
SWIDTH1 1269 0
BBX 26 25 3 -4
BITMAP
FFFFFF80
CEECDCC0
E66DD8C0
E66D99C0
F36DB3C0
BB2DA7C0
9DAD6EC0
CEBF4CC0
E6C3DBC0
FB3E37C0
9D61AEC0
C6C0F8C0
F98047C0
9F007FC0
810020C0
FFFFFFC0
800000C0
9DFFEEC0
800000C0
863F00C0
800E00C0
800000C0
800000C0
800000C0
FFFFFF80
ENDCHAR
STARTCHAR u1F306
ENCODING 127750
SWIDTH 1269 0
SWIDTH1 1269 0
BBX 27 25 2 -4
BITMAP
20001800
23F80080
00018000
01300000
893C0000
A81C0000
893C6000
A9360000
88360000
A9360000
887E3020
A87E31E0
882A0820
FFBE8CA0
80AAFC20
FFBEFCA0
80AAFCA0
FFBEFC20
80BEDFE0
FFAAFFE0
80BEDFE0
FFFFFFE0
FFFFDFE0
FFFFFFE0
7FFFFFE0
ENDCHAR
STARTCHAR sunset
ENCODING 127751
SWIDTH 1269 0
SWIDTH1 1269 0
BBX 27 24 2 -4
BITMAP
03F80000
00000000
01300000
893C0000
A81C0000
893C0000
A9361B00
88362080
A9362080
887E50A0
A87ED9E0
882AF820
FFBF76A0
80AB0420
FFBF04A0
80AB04A0
FFBF0420
80BF2FE0
FFAB07E0
80BF2FE0
FFFF07E0
FFFF2FE0
FFFF07E0
7FFF07E0
ENDCHAR
STARTCHAR u1F308
ENCODING 127752
SWIDTH 1269 0
SWIDTH1 1269 0
BBX 27 25 2 -4
BITMAP
000007E0
00001E00
00007000
0001C060
000307E0
000E1E00
00187000
0030C0E0
002187E0
00631C00
00C63000
008C61E0
0198C780
03F98C00
06331800
080B3000
180E6000
100FC000
1018C000
10104000
70007000
C0001800
C0000800
C0000800
7FFFF800
ENDCHAR
STARTCHAR u1F309
ENCODING 127753
SWIDTH 1269 0
SWIDTH1 1269 0
BBX 26 25 3 -4
BITMAP
FFFFFF80
800000C0
800008C0
891208C0
803F00C0
847F00C0
84DE90C0
819660C0
833E70C0
8D7F48C0
99D2C6C0
E152E5C0
875ED4C0
8D5EDCC0
F152D7C0
C152D4C0
FFFFFFC0
FFFFFFC0
FFFFFFC0
803E00C0
C0FFC0C0
FFFFFFC0
803A00C0
803600C0
FFFFFF80
ENDCHAR
STARTCHAR u1F30A
ENCODING 127754
SWIDTH 1269 0
SWIDTH1 1269 0
BBX 27 25 2 -4
BITMAP
003FF000
00E03C00
03800400
06006600
0C003C00
187C0C00
105F0400
30078600
200E6200
61FE3E00
43FC0C00
400C0000
400E0000
C00E0000
C0DE0000
47FF0000
4FFF8000
4FFFC000
5FFFE000
7FFFF800
3FFFFC00
3FFFFF00
3FFFFFE0
100FFFC0
0001FF00
ENDCHAR
STARTCHAR u1F30B
ENCODING 127755
SWIDTH 1269 0
SWIDTH1 1269 0
BBX 22 25 5 -4
BITMAP
018700
00CC00
004800
0703C0
0F86E0
004C00
6049D8
4FBFEC
18B420
100000
00CC00
01FE10
238710
27CF10
0FFF80
0EDAC0
1D9340
1301E0
3601B0
600090
400008
80000C
C0001C
7C00F8
0FFFC0
ENDCHAR
STARTCHAR u1F30C
ENCODING 127756
SWIDTH 1269 0
SWIDTH1 1269 0
BBX 26 25 3 -4
BITMAP
FFFFFF80
FF07FCC0
E07FB3C0
8FFBE5C0
BFF9EFC0
F9F9DCC0
FFDF91C0
FFFFB7C0
F3BF6DC0
E31ECFC0
F3BDDFC0
FFF3B7C0
F80F21C0
C3FE73C0
9F7CFFC0
DFE3FFC0
F80FFFC0
E1FFFFC0
9F9FFBC0
BFF9D9C0
FFF1FFC0
FFFBFFC0
FFFFFFC0
FFFFFFC0
7FFFFF80
ENDCHAR
STARTCHAR globeShowingEuropeAfrica
ENCODING 127757
SWIDTH 1269 0
SWIDTH1 1269 0
BBX 26 25 3 -4
BITMAP
00FF8000
039CF000
06E03800
0F500C00
1F800600
3F000300
3CE88100
7D6C0180
782C0180
F8003980
F0000DC0
F0011DC0
E000BFC0
F0003FC0
F0003FC0
FF007F80
7F827F80
7F80FF80
3FC0FF00
3FC0BF00
1FC1FE00
0FE1FC00
07F3F800
03FFE000
00FF8000
ENDCHAR
STARTCHAR globeShowinAmericas
ENCODING 127758
SWIDTH 1269 0
SWIDTH1 1269 0
BBX 26 25 3 -4
BITMAP
00FF8000
0383F000
0601F800
0C02FC00
1807FE00
300FFF00
301FFF00
705FFF80
79FFFF80
F9DFFF80
F873FFC0
FE3FFFC0
FFBBFFC0
FFC07FC0
FFF01FC0
FFE00F80
7FE00380
7FE00780
3FF00700
3FF80F00
1FF81E00
0FF83C00
07F87800
03F8E000
00FF8000
ENDCHAR
STARTCHAR globeShowingAsiaAustralia
ENCODING 127759
SWIDTH 1269 0
SWIDTH1 1269 0
BBX 26 25 3 -4
BITMAP
00FF8000
03807000
06007800
0C037C00
1021FE00
3001FF00
2001FF00
6003FF80
400AFF80
C00DFF80
C00FFFC0
CC1FFFC0
FC6FFFC0
FE77FFC0
FFDC7FC0
FE8F3F80
7F6CBF80
7FF0BF80
3FE01F00
3FE01F00
1FF03E00
0FFE6C00
07FF7800
03FFE000
00FF8000
ENDCHAR
STARTCHAR globeWithMeridians
ENCODING 127760
SWIDTH 1269 0
SWIDTH1 1269 0
BBX 26 25 3 -4
BITMAP
00FFC000
03EFF000
06CCD800
0D8C6C00
1B0C2600
320C3300
7FFFFF00
640C1980
440C0880
CC0C0880
CC0C0CC0
8C0C0CC0
FFFFFFC0
8C0C0CC0
CC0C08C0
CC0C0880
440C0880
640C1980
7FFFFF00
320C3300
1B0C2600
0D8C6C00
06CCF800
03EFE000
00FF8000
ENDCHAR
STARTCHAR u1F311
ENCODING 127761
SWIDTH 1269 0
SWIDTH1 1269 0
BBX 26 25 3 -4
BITMAP
00FF8000
03FFE000
07FFF800
0FFFFC00
1FFFFE00
3FFFFE00
3FFFFF00
7FFFFF80
7FFFFF80
7FFFFF80
FFFFFF80
FFFFFF80
FFFFFFC0
FFFFFF80
FFFFFF80
7FFFFF80
7FFFFF80
7FFFFF00
3FFFFF00
3FFFFE00
1FFFFE00
0FFFFC00
07FFF800
03FFE000
00FF8000
ENDCHAR
STARTCHAR u1F312
ENCODING 127762
SWIDTH 1269 0
SWIDTH1 1269 0
BBX 26 25 3 -4
BITMAP
00FF8000
03FFE000
07FFB800
0FFFCC00
1FFFC600
3FFFE200
3FFFE300
7FFFF180
7FFFF180
7FFFF080
FFFFF080
FFFFF080
FFFFF0C0
FFFFF080
FFFFF080
7FFFF080
7FFFF180
7FFFE100
3FFFE300
3FFFE200
1FFFC600
0FFFCC00
07FFB800
03FFE000
007F8000
ENDCHAR
STARTCHAR u1F313
ENCODING 127763
SWIDTH 1269 0
SWIDTH1 1269 0
BBX 26 25 3 -4
BITMAP
00FF8000
03F8E000
07F83800
0FFC0C00
1FFC0600
3FFC0200
3FFC0300
7FFC0180
7FFC0180
7FFC0080
FFFC0080
FFFC0080
FFFC00C0
FFFC0080
FFFC0080
7FFC0080
7FFC0180
7FFC0100
3FFC0300
3FFC0200
1FFC0600
0FFC0C00
07F83800
03F8E000
00FF8000
ENDCHAR
STARTCHAR u1F314
ENCODING 127764
SWIDTH 1269 0
SWIDTH1 1269 0
BBX 26 25 3 -4
BITMAP
00FF8000
03E0E000
07C03800
0F800C00
1F000600
3F000200
3E000300
7E000180
7E000180
7C000080
FC000080
FC000080
FC0000C0
FC000080
FC000080
7C000080
7E000180
7E000100
3E000300
3F000200
1F000600
0F800C00
07C03800
03E0E000
007F8000
ENDCHAR
STARTCHAR u1F315
ENCODING 127765
SWIDTH 1269 0
SWIDTH1 1269 0
BBX 26 25 3 -4
BITMAP
00FF8000
03C0E000
06003800
0C000C00
18000600
30000200
20000300
60000180
40000180
40000080
C0000080
C0000080
C00000C0
C0000080
C0000080
40000080
40000180
60000100
20000300
30000200
18000600
0C000C00
06003800
03C0E000
00FF8000
ENDCHAR
STARTCHAR u1F316
ENCODING 127766
SWIDTH 1269 0
SWIDTH1 1269 0
BBX 26 25 3 -4
BITMAP
00FF8000
03C1E000
0600F800
0C007C00
18003E00
30003E00
20001F00
60001F80
40001F80
40001F80
C0001F80
C0000F80
C0000FC0
C0000F80
C0001F80
40001F80
40001F80
60001F00
20001F00
30003E00
18003E00
0C007C00
0600F800
03C1E000
00FF8000
ENDCHAR
STARTCHAR u1F317
ENCODING 127767
SWIDTH 1269 0
SWIDTH1 1269 0
BBX 26 25 3 -4
BITMAP
00FF8000
03CFE000
060FF800
0C0FFC00
180FFE00
300FFE00
200FFF00
600FFF80
400FFF80
400FFF80
C00FFF80
C00FFF80
C00FFFC0
C00FFF80
C00FFF80
400FFF80
400FFF80
600FFF00
200FFF00
300FFE00
180FFE00
0C0FFC00
060FF800
03CFE000
007F8000
ENDCHAR
STARTCHAR u1F318
ENCODING 127768
SWIDTH 1269 0
SWIDTH1 1269 0
BBX 26 25 3 -4
BITMAP
00FF8000
03FFE000
067FF800
0CFFFC00
18FFFE00
31FFFE00
21FFFF00
63FFFF80
43FFFF80
43FFFF80
C3FFFF80
C3FFFF80
C3FFFFC0
C3FFFF80
C3FFFF80
43FFFF80
43FFFF80
63FFFF00
21FFFF00
31FFFE00
18FFFE00
0CFFFC00
067FF800
03FFE000
00FF8000
ENDCHAR
STARTCHAR u1F319
ENCODING 127769
SWIDTH 1269 0
SWIDTH1 1269 0
BBX 26 25 3 -4
BITMAP
00003000
00001800
00001600
00001200
00001B00
00001980
00001880
00001880
000018C0
000018C0
00001840
00001040
00003040
000020C0
000060C0
0000C0C0
80018080
E0070180
7EFC0300
6FF00300
30000600
18000C00
0E003800
0781E000
00FF8000
ENDCHAR
STARTCHAR u1F31A
ENCODING 127770
SWIDTH 1269 0
SWIDTH1 1269 0
BBX 26 25 3 -4
BITMAP
00FF8000
03C0E000
06003800
0C000C00
18000600
30000200
20000300
60000180
40000180
41C8E080
C1E9E080
C0646080
C00400C0
C0040080
C0080080
40210080
403F0180
60000100
20060300
30000200
18000600
0C000C00
06003800
03C0E000
00FF8000
ENDCHAR
STARTCHAR u1F31B
ENCODING 127771
SWIDTH 1269 0
SWIDTH1 1269 0
BBX 24 25 4 -4
BITMAP
001F80
0008C0
000C60
000630
000218
00020C
000204
000306
000302
000202
000603
000CE3
0038D3
002003
002003
001003
003002
C0FC06
FFC006
C0000C
600008
300018
1C0070
0F01C0
01FF00
ENDCHAR
STARTCHAR u1F31C
ENCODING 127772
SWIDTH 1269 0
SWIDTH1 1269 0
BBX 24 25 4 -4
BITMAP
01F000
033000
0C2000
186000
104000
30C000
60C000
60C000
40C000
C0C000
C04000
876000
8F1C00
800400
800C00
C00800
C00C00
407E02
6013FF
200002
300006
18000C
0E0038
0381E0
00FF80
ENDCHAR
STARTCHAR u1F31D
ENCODING 127773
SWIDTH 1269 0
SWIDTH1 1269 0
BBX 26 25 3 -4
BITMAP
00FF8000
03C0E000
06003800
0C000C00
18000600
30000200
20000300
60000180
40000180
41C9C080
C3E9E080
C1858080
C00400C0
C0040080
C0080080
40210080
403F0180
60000100
20060300
30000200
18000600
0C000C00
06003800
03C0E000
00FF8000
ENDCHAR
STARTCHAR u1F31E
ENCODING 127774
SWIDTH 1269 0
SWIDTH1 1269 0
BBX 25 25 3 -4
BITMAP
00400000
00618000
00738000
087F8400
0FC1BC00
0F007800
06001800
04000800
18000E00
784C8780
38C98700
18448600
08040400
180C0600
38000700
F83F0780
1C000E00
04000800
06001800
0F007800
0EE1BC00
007F8400
00738000
00618000
00400000
ENDCHAR
STARTCHAR u1F31F
ENCODING 127775
SWIDTH 1269 0
SWIDTH1 1269 0
BBX 24 25 4 -4
BITMAP
001800
003C00
042420
1C6630
0E4260
06C240
008100
7F81FE
E0000F
C00003
600006
30000C
180018
0C0030
060060
F4006F
E40027
840023
0C1820
0C7E30
09C330
0F10F0
0C1870
001800
001800
ENDCHAR
STARTCHAR u1F320
ENCODING 127776
SWIDTH 1269 0
SWIDTH1 1269 0
BBX 26 25 3 -4
BITMAP
FFFFFF80
FFE7FFC0
EFE7C0C0
FFFF00C0
FFFC01C0
FCF003C0
FFE003C0
FFC007C0
FF8F8FC0
FBBF9FC0
F9F39FC0
F8433DC0
F80378C0
F803FFC0
F807FFC0
F003FFC0
E001FFC0
C000FFC0
C0007DC0
FE07FDC0
FE1FFFC0
FF1FFFC0
FF39FFC0
FF3FFFC0
7FFFFF80
ENDCHAR
STARTCHAR u1F321
ENCODING 127777
SWIDTH 1269 0
SWIDTH1 1269 0
BBX 12 25 10 -4
BITMAP
1F00
1180
3080
3CC0
30C0
30C0
3CC0
30C0
30C0
3CC0
30C0
36C0
36C0
36C0
36C0
36C0
6660
4F20
DFB0
DFB0
DFB0
DF20
6660
30C0
1F80
ENDCHAR
STARTCHAR u1F324
ENCODING 127780
SWIDTH 1269 0
SWIDTH1 1269 0
BBX 28 23 2 -3
BITMAP
000C0000
000C0000
0E1E0000
0F361000
04E2FC00
047F8300
05870100
07020180
FE1F0080
84398080
E4608080
3C4080E0
0DC00030
0F000030
1A000010
12000030
23FFFFE0
3EFFFFC0
209E4000
00934000
00A0C000
00E00000
00C00000
ENDCHAR
STARTCHAR u1F325
ENCODING 127781
SWIDTH 1269 0
SWIDTH1 1269 0
BBX 26 21 3 -2
BITMAP
00400000
18C00000
1DE00000
0BAE0000
0FFE0000
3C3FC000
E81FF000
68381800
18200C00
18600400
3FE00600
3E300600
3C180600
08080600
38000780
F00000C0
800000C0
80000040
800000C0
FFFFFF80
7FFFFF00
ENDCHAR
STARTCHAR u1F326
ENCODING 127782
SWIDTH 1269 0
SWIDTH1 1269 0
BBX 20 25 6 -4
BITMAP
018000
394000
1F4000
17FC00
186800
F03800
D03E00
70E300
308180
3B0080
4FC0C0
7840C0
1040C0
700060
C00010
C00010
C00030
7FFFE0
000000
040000
0C0300
1C6700
1CE700
08E600
00C000
ENDCHAR
STARTCHAR cloudWithRain
ENCODING 127783
SWIDTH 1269 0
SWIDTH1 1269 0
BBX 26 25 3 -4
BITMAP
000FE000
00183800
00300800
00600C00
01C00600
07F00600
0C100600
08180600
08080700
78000180
C00000C0
80000040
800000C0
C00000C0
7FFFFF80
00000000
00040000
0C0C0600
1C1C0E00
181C0C00
08080400
00C08000
01C1C000
01C18000
01818000
ENDCHAR
STARTCHAR cloudWithSnow
ENCODING 127784
SWIDTH 1269 0
SWIDTH1 1269 0
BBX 26 25 3 -4
BITMAP
000FE000
00183800
00300800
00600C00
01C00600
07F00600
0C100600
08180600
08080700
78000180
C00000C0
80000040
800000C0
C00000C0
7FFFFF80
00000000
14000400
180C0600
3C1E0F00
180C0600
00000000
01406000
00C0F000
00C06000
01C01000
ENDCHAR
STARTCHAR cloudWithLightning
ENCODING 127785
SWIDTH 1269 0
SWIDTH1 1269 0
BBX 26 25 3 -4
BITMAP
0003C000
000FF000
00381800
00200C00
00600400
03E00600
07700600
0C180600
08080600
38080780
70000180
C00000C0
800000C0
800000C0
F0000380
7FFFFF00
00220000
0063C000
0040C000
007D8000
007D0000
000A0000
000E0000
000C0000
00080000
ENDCHAR
STARTCHAR tornado
ENCODING 127786
SWIDTH 1269 0
SWIDTH1 1269 0
BBX 24 25 4 -4
BITMAP
1E0000
303FC0
03F0F0
1F0E18
361B8C
2C18C4
6600C4
27878C
30FE18
100038
1817D9
980831
8E0022
43FE26
2300F0
11C7B0
006020
003FB0
000630
0006E0
000660
0004C0
000D80
003FC0
00FFF0
ENDCHAR
STARTCHAR u1F32B
ENCODING 127787
SWIDTH 1269 0
SWIDTH1 1269 0
BBX 26 25 3 -4
BITMAP
FFFFFF80
80C000C0
807FBCC0
8001E7C0
800300C0
80FE00C0
838000C0
860000C0
E40000C0
B80000C0
8FFC00C0
860600C0
800100C0
800080C0
80007FC0
800000C0
800000C0
80003FC0
800060C0
800180C0
800F00C0
807C00C0
81C000C0
830000C0
FFFFFF80
ENDCHAR
STARTCHAR u1F32C
ENCODING 127788
SWIDTH 1269 0
SWIDTH1 1269 0
BBX 30 25 1 -4
BITMAP
7DF00000
86180000
81E80000
812C0000
83680000
83180000
82F00080
861003F0
8C180618
880805E8
89A6052C
88E21DAC
8806262C
98177FC8
981B1098
901B36B0
B01A35A0
E0141760
C00418C0
80040F80
877C0000
9FE00000
B0000000
C0000000
80000000
ENDCHAR
STARTCHAR hotdog
ENCODING 127789
SWIDTH 1269 0
SWIDTH1 1269 0
BBX 28 25 2 -4
BITMAP
1C000000
3E000000
3FE00000
33B00000
3C980000
7F4C0000
CF660000
C7730000
87718000
8338E000
83843800
C1F30E00
C0FDC380
407CF0C0
603EFE60
200F03E0
3007F9E0
1801FDF0
0C003FF0
06000FF0
030007E0
01C00600
00780C00
001FF800
0001C000
ENDCHAR
STARTCHAR taco
ENCODING 127790
SWIDTH 1269 0
SWIDTH1 1269 0
BBX 30 25 1 -4
BITMAP
000F8000
007FF000
01C01FC0
0383B0E0
0607E030
0C3BC018
08FB8008
19CF0008
33CF000C
23CE000C
67FE0008
667C8018
4C7C0830
4C790060
CC7801C0
CFF00700
CFF09E00
CFE03800
CCE4E000
CCE18000
4FC30000
6F8E0000
3FB80000
3FE00000
06000000
ENDCHAR
STARTCHAR burrito
ENCODING 127791
SWIDTH 1269 0
SWIDTH1 1269 0
BBX 25 25 3 -4
BITMAP
07F80000
1C180000
30EC0000
63FE0000
43FF0000
CDB90000
DDF98000
DFE8C000
DB286000
593C3000
6FFC3000
3FFC3800
3F9F6C00
0C01C600
06018200
03030300
019F8180
00F8C080
00784080
003C6080
001C3080
00061980
00038F00
00018600
0000FC00
ENDCHAR
STARTCHAR u1F330
ENCODING 127792
SWIDTH 1269 0
SWIDTH1 1269 0
BBX 28 25 2 -4
BITMAP
00060000
000F0000
00398000
0070E000
00E07000
03FFFC00
077FFE00
1E7FFF00
3CFFF980
3DFFFDC0
79FFECE0
7BFFEEE0
FBFFEE60
F3FFE670
F3FFE770
F3FFE770
F3FFE770
F3FFEE60
7BFFEEE0
7BFFEEC0
3FFFFCC0
1F000F80
0E000700
03C07C00
00FFE000
ENDCHAR
STARTCHAR u1F331
ENCODING 127793
SWIDTH 1269 0
SWIDTH1 1269 0
BBX 28 25 2 -4
BITMAP
00000FF0
00003C30
00006030
0000C630
1FF18C20
F0191060
C70F2060
43E260C0
60384080
30080380
18000700
0C003C00
07CEF000
00FEC000
00034000
00034000
00036000
00036000
00036000
00036000
00026000
00066000
00046000
00044000
0007C000
ENDCHAR
STARTCHAR u1F332
ENCODING 127794
SWIDTH 1269 0
SWIDTH1 1269 0
BBX 24 25 4 -4
BITMAP
001800
002400
006600
00C300
018180
0306C0
061060
044460
03E7C0
023440
0C1930
31019C
200004
39839C
0FC7F0
087830
380018
620106
808103
74800E
3C4638
07FFE0
003800
003C00
003C00
ENDCHAR
STARTCHAR u1F333
ENCODING 127795
SWIDTH 1269 0
SWIDTH1 1269 0
BBX 23 25 4 -4
BITMAP
00FF00
0181C0
020060
040020
1C0030
3C0018
66000C
400006
C00062
C00062
C000C2
430186
61FF0E
30FBFE
3FB7FC
3F97F8
1FD7E0
0FE480
01A100
002300
002600
002600
006600
006600
003C00
ENDCHAR
STARTCHAR u1F334
ENCODING 127796
SWIDTH 1269 0
SWIDTH1 1269 0
BBX 22 25 5 -4
BITMAP
007800
00C800
008BE0
019E30
019C18
3F8060
6180C0
C001C0
8028F0
FC3808
0CF80C
301F04
2213E4
663E3C
462900
4A6900
724F00
22CD80
038D80
018E80
000880
000F80
001880
001880
000F80
ENDCHAR
STARTCHAR u1F335
ENCODING 127797
SWIDTH 1269 0
SWIDTH1 1269 0
BBX 22 25 5 -4
BITMAP
003000
007C00
00FE00
01EF00
014A00
114A70
394AF8
7D6EA8
55EEAC
D5CEA8
D5CEA8
F4CEA8
D4AFAC
D5AB78
56BCD0
7BB330
2C37F0
77F780
1C3400
0FB600
00B400
01B600
01B600
00F400
007800
ENDCHAR
STARTCHAR u1F336
ENCODING 127798
SWIDTH 1269 0
SWIDTH1 1269 0
BBX 27 25 2 -4
BITMAP
00000700
00000180
00000180
00000180
00000300
00007F00
0000FF80
0001BFC0
000187E0
000103E0
00030060
00036060
00024060
00024040
00064040
700480C0
D00C8080
C8180180
CF700300
43E00600
60000C00
30001800
18007000
0E03C000
03FF0000
ENDCHAR
STARTCHAR u1F337
ENCODING 127799
SWIDTH 1269 0
SWIDTH1 1269 0
BBX 18 25 7 -4
BITMAP
01DC00
1F3600
336200
214300
21C300
208100
204100
204100
206180
202100
300100
300100
180300
0C0600
060C00
F3F9C0
9C4640
C64CC0
61D880
30F180
18C100
0C8300
070600
031C00
01F000
ENDCHAR
STARTCHAR u1F338
ENCODING 127800
SWIDTH 1269 0
SWIDTH1 1269 0
BBX 28 25 2 -4
BITMAP
00198000
006FC000
00466000
00C42000
00803000
1F803F00
308030C0
60000060
60000060
301980C0
F01780F0
80148030
C0398020
402A4060
207BC0C0
1C0B0380
0C060200
08000100
08000100
08000100
08800100
09841B00
0F061E00
051B1A00
01F0F800
ENDCHAR
STARTCHAR u1F339
ENCODING 127801
SWIDTH 1269 0
SWIDTH1 1269 0
BBX 17 25 7 -4
BITMAP
0FFE00
3C1B00
780980
7DF980
E7C180
F3C780
58FC80
6E3180
236100
21C100
206300
203300
201300
201B00
301A00
181E00
0E1C00
0FFC00
0FFC00
0BBC00
1BAC00
1BA400
029000
00A000
00E000
ENDCHAR
STARTCHAR u1F33A
ENCODING 127802
SWIDTH 1269 0
SWIDTH1 1269 0
BBX 27 25 2 -4
BITMAP
07CFF000
09381800
0F300C00
07E10600
09214200
1FB18200
10F1E200
1019C700
180C0180
380C00C0
600E78E0
43CEE060
41E05820
43402020
C0861020
C10F0060
400F00C0
70129180
19801F80
1F801BC0
1E801CC0
1DC01FC0
1BE07FC0
3FF9EFE0
3D9F8000
ENDCHAR
STARTCHAR u1F33B
ENCODING 127803
SWIDTH 1269 0
SWIDTH1 1269 0
BBX 20 25 6 -4
BITMAP
006000
08B300
0F9F00
090900
38E1C0
E3F860
460420
64F640
6DFA60
CDFA30
8DFA30
65F260
64E640
430C60
79F9E0
080180
090900
0F9F00
00F000
066000
1FFF00
08E100
0FF700
03DC00
00C000
ENDCHAR
STARTCHAR u1F33C
ENCODING 127804
SWIDTH 1269 0
SWIDTH1 1269 0
BBX 26 25 3 -4
BITMAP
00F3C000
07967800
040C5800
040C0800
04409800
7E419F80
42291080
402B0080
C0FF80C0
8C619C40
83F4F0C0
E090C180
33A8E700
C0A0C1C0
83D8F0C0
9C618C40
C0FFC1C0
402B0080
42691180
7E409F00
04409800
040C0800
041C5800
07B67800
00E3C000
ENDCHAR
STARTCHAR u1F33D
ENCODING 127805
SWIDTH 1269 0
SWIDTH1 1269 0
BBX 25 25 3 -4
BITMAP
00F67E00
01D6F200
004B8200
00478200
004C2200
00CC6200
01B84600
03638C00
06638B80
0CE39F80
098E7200
190DCC00
131F1E00
367C0300
24780D00
24703F00
64C06200
6D80C000
6F018000
26030000
600E0000
C0180000
8FF00000
DB800000
70000000
ENDCHAR
STARTCHAR u1F33E
ENCODING 127806
SWIDTH 1269 0
SWIDTH1 1269 0
BBX 29 25 1 -4
BITMAP
0001E000
0003C000
00058000
000B14C0
30123DB8
FC36FC70
6625FB60
332D9D30
196DE000
09CA4800
0CCE1A00
04CC3F00
064DFFC0
026F3D80
022E17C0
032CE160
013FF960
019E0800
009CE400
00C9B400
00410C00
00610000
00310000
00190000
000F0000
ENDCHAR
STARTCHAR u1F33F
ENCODING 127807
SWIDTH 1269 0
SWIDTH1 1269 0
BBX 27 25 2 -4
BITMAP
000807E0
001C0C20
00361220
00222420
40636840
787140C0
4C614080
C36B4300
D1227E00
D0B6E000
50DD9F00
484B71C0
684ACE60
244F9040
184F8180
0C4C7F00
07C81800
00D8FC00
00538300
007678C0
007C0060
004600C0
00C30300
0300FE00
0E000000
ENDCHAR
STARTCHAR u1F340
ENCODING 127808
SWIDTH 1269 0
SWIDTH1 1269 0
BBX 20 25 6 -4
BITMAP
0F1F00
199100
30E1C0
F060E0
806030
806010
806010
C06030
600060
3F0FC0
7801E0
C00030
806010
806010
806030
F0E0E0
30F0C0
31F8C0
1F6F80
006000
006000
002000
003000
001800
001800
ENDCHAR
STARTCHAR u1F341
ENCODING 127809
SWIDTH 1269 0
SWIDTH1 1269 0
BBX 24 25 4 -4
BITMAP
001800
003C00
006600
00E600
01C380
019380
011280
C11083
F711FF
DF91F2
459182
40D306
641024
F210CF
619186
38D21C
383C3C
E3FFC6
70100C
1FBDF8
01F700
001000
001000
001000
001800
ENDCHAR
STARTCHAR u1F342
ENCODING 127810
SWIDTH 1269 0
SWIDTH1 1269 0
BBX 28 25 2 -4
BITMAP
00030000
00020000
00060300
00041FC0
01FE0E60
038B0B20
021989B0
06108C10
0C708710
0BF8C1F0
1028C010
186CC200
18C4C200
37C0CF80
25E09AC0
3363B260
33273760
660C3E20
C4083320
81F83D60
FF000860
10001860
00000C20
00000730
000001F0
ENDCHAR
STARTCHAR u1F343
ENCODING 127811
SWIDTH 1269 0
SWIDTH1 1269 0
BBX 16 25 8 -4
BITMAP
0700
0C00
1800
3000
3000
11F0
1F1E
0C07
1F03
13F3
107E
1800
0000
0001
07FF
0E01
1801
3001
20F3
23C3
2602
F806
F00C
1C38
07E0
ENDCHAR
STARTCHAR u1F344
ENCODING 127812
SWIDTH 1269 0
SWIDTH1 1269 0
BBX 24 25 4 -4
BITMAP
01FF00
0783E0
1B03F0
330398
33830C
7FFF06
FFFF06
E3FF8F
C1C1FF
C181FF
C180F7
C380F3
FFC1FE
7FE3FE
3FFFF8
0FFFE0
030080
030080
020080
0200C0
0600C0
060040
0600C0
038180
01FF00
ENDCHAR
STARTCHAR u1F345
ENCODING 127813
SWIDTH 1269 0
SWIDTH1 1269 0
BBX 28 25 2 -4
BITMAP
00060000
00060000
00840000
00E5C000
0077A000
07FFFC00
0C3FC700
19FFF180
30FF00C0
60070040
40038060
C4008020
CC000030
C8000030
C8000030
CC000030
C4000020
46000060
60000060
200000C0
10000180
0C000300
06000E00
03C03800
007FE000
ENDCHAR
STARTCHAR u1F346
ENCODING 127814
SWIDTH 1269 0
SWIDTH1 1269 0
BBX 27 25 2 -4
BITMAP
30000000
30000000
3E000000
1F800000
3FF00000
7FF00000
7F300000
7F180000
760C0000
76060000
F0030000
1000C000
18007800
08000E00
0C000380
040000C0
06000060
03000020
01800020
00C00020
00600020
00380060
000E00C0
00078380
0000FF00
ENDCHAR
STARTCHAR u1F347
ENCODING 127815
SWIDTH 1269 0
SWIDTH1 1269 0
BBX 22 25 5 -4
BITMAP
1E0000
3C0000
300000
300000
300F00
381980
1FF080
1F08C0
1B0880
1F0FC0
230C60
61F820
61F820
610830
B30ED8
9F0F88
8708C8
86F848
7C3058
0418FC
043F84
03E084
00A084
00318C
001F70
ENDCHAR
STARTCHAR u1F348
ENCODING 127816
SWIDTH 1269 0
SWIDTH1 1269 0
BBX 22 25 5 -4
BITMAP
03BF80
03FF00
003000
007800
03FF00
0FF7C0
1800E0
330630
662318
462198
C431C8
CC30CC
8C30C4
8C3044
8C3064
883064
983064
88304C
483048
483058
283070
383060
1C30C0
073B80
01FE00
ENDCHAR
STARTCHAR u1F349
ENCODING 127817
SWIDTH 1269 0
SWIDTH1 1269 0
BBX 26 23 3 -3
BITMAP
18000000
3F000000
27C00000
68700000
481C0000
50078000
D101E000
D3003800
D0000E00
D04003C0
D0C086C0
D0088D40
D0081B40
C8003740
EC006540
6601DF40
73FF3F00
3878FB80
1E037300
0FEE6700
079DDE00
03FBD800
007FC000
ENDCHAR
STARTCHAR u1F34A
ENCODING 127818
SWIDTH 1269 0
SWIDTH1 1269 0
BBX 26 25 3 -4
BITMAP
0001F800
000BF800
000FF000
000FC000
007F8000
03EDF000
0E0C1C00
181E0600
310C0300
63000900
46000980
C4000080
CC0000C0
C80004C0
880004C0
800000C0
C00000C0
C0001080
40001180
60000180
30000300
18020600
0C000C00
07807800
01FFC000
ENDCHAR
STARTCHAR u1F34B
ENCODING 127819
SWIDTH 1269 0
SWIDTH1 1269 0
BBX 26 23 3 -3
BITMAP
60000000
60000000
33FF0000
1F87E000
0C003800
1C0C0C00
300F8600
7800C300
78000300
F8000100
F8000180
F8000080
F8000080
F8000080
F80000C0
FC0000C0
7C0000C0
7E000040
3B000040
11800040
00E000C0
003C1F80
0007FE00
ENDCHAR
STARTCHAR u1F34C
ENCODING 127820
SWIDTH 1269 0
SWIDTH1 1269 0
BBX 23 25 4 -4
BITMAP
00F000
019800
010C00
010600
018200
018300
018300
008100
008100
008180
00C180
0FC1F0
19C3F8
30FE38
63FB18
62D91C
46911C
4D918E
493188
5B2388
F646CC
4D8464
1F183C
3C7000
1FC000
ENDCHAR
STARTCHAR u1F34D
ENCODING 127821
SWIDTH 1269 0
SWIDTH1 1269 0
BBX 14 25 9 -4
BITMAP
1CE0
1FC0
EFDC
7FF8
3FF0
BFF4
FFF8
7FF0
3FF0
7FF8
3FF0
3FF0
6018
4008
CCCC
802C
8004
B334
8544
8004
884C
D488
6018
3070
1FC0
ENDCHAR
STARTCHAR u1F34E
ENCODING 127822
SWIDTH 1269 0
SWIDTH1 1269 0
BBX 24 25 4 -4
BITMAP
0001E0
0007C0
000FC0
003F80
001F00
001000
0FF7F0
3FFFF8
7FFFFC
7FFFFE
FFFFFE
FFFFFF
FFFFFF
FFFFFF
FFFFFF
FFFFFF
FFFFFF
FFFFFE
7FFFFE
7FFFFE
7FFFFC
3FFFFC
1FFFF8
0FFFF0
07EFC0
ENDCHAR
STARTCHAR u1F34F
ENCODING 127823
SWIDTH 1269 0
SWIDTH1 1269 0
BBX 24 25 4 -4
BITMAP
0001E0
0007C0
000FC0
003F80
001F00
001000
0FF7F0
383C18
60180C
607E06
C03C02
C00003
800003
800003
800003
800003
C00003
C00002
400002
600006
600004
30000C
180018
0E3870
07EFC0
ENDCHAR
STARTCHAR u1F350
ENCODING 127824
SWIDTH 1269 0
SWIDTH1 1269 0
BBX 19 25 6 -4
BITMAP
00E000
00E000
006000
006000
01F800
036800
020C00
060400
060600
040200
0C0300
180980
3000C0
200040
600260
400020
400820
C80020
480120
4C0060
670060
6180C0
300180
1E0700
07FC00
ENDCHAR
STARTCHAR u1F351
ENCODING 127825
SWIDTH 1269 0
SWIDTH1 1269 0
BBX 26 25 3 -4
BITMAP
1FC0FE00
0FF3FC00
0FFFF800
0F7FBC00
380C0600
60060300
60020180
C0030080
C00100C0
80010040
80018040
80008040
80008040
800080C0
C00080C0
C0018080
40018180
60010100
30010300
18030600
1C020C00
06021800
03807000
00E3C000
003F0000
ENDCHAR
STARTCHAR u1F352
ENCODING 127826
SWIDTH 1269 0
SWIDTH1 1269 0
BBX 20 25 6 -4
BITMAP
03FF00
0E0180
380300
E00600
FC3C00
3FE000
118000
18E000
083000
0C1800
040C00
040400
060600
061FC0
3FB2E0
66EE20
4E27B0
CF3030
803030
801030
803030
C03060
4079C0
70CF80
1F8000
ENDCHAR
STARTCHAR u1F353
ENCODING 127827
SWIDTH 1269 0
SWIDTH1 1269 0
BBX 23 25 4 -4
BITMAP
300000
300000
30FE00
3BFFC0
1FF860
1FF830
1FFC98
3FFE4C
3FFC0C
7FF004
7FF206
7FF336
FF7036
EF0006
662004
643006
200306
320116
120012
186002
0C0002
070182
01F006
003E0C
0003F8
ENDCHAR
STARTCHAR u1F354
ENCODING 127828
SWIDTH 1269 0
SWIDTH1 1269 0
BBX 25 25 3 -4
BITMAP
01FFC000
07807000
0E001C00
18120600
31004200
20200300
20000100
20000100
20000180
30000380
58000E80
CF807D00
71FFE100
30000300
3F818F00
4FDFF900
73FFE700
3C1C1F00
3F007F00
3FC0FF00
37F3FB00
11FFC600
1C000C00
07807800
01FFE000
ENDCHAR
STARTCHAR u1F355
ENCODING 127829
SWIDTH 1269 0
SWIDTH1 1269 0
BBX 22 25 5 -4
BITMAP
003FE0
00E010
038010
0600D0
181FF0
303820
2041E0
60C1E0
4381F0
C601D0
8CC610
8DEF10
DFEF70
7BE678
0D8078
065C38
033C08
0198E8
0050E8
00326C
00138C
00126C
00139C
0016EC
001C38
ENDCHAR
STARTCHAR u1F356
ENCODING 127830
SWIDTH 1269 0
SWIDTH1 1269 0
BBX 24 25 4 -4
BITMAP
1C0000
260000
E60000
821000
83FE00
73FF00
1FFF00
0FFF80
1FFFE0
1FFFF0
1FFF1C
3FF804
3FF3BA
3FEFFA
1FDFFA
1F9FFA
0FBF62
039E32
019F1E
01BF8E
01BF81
009E43
00604E
003FC8
000078
ENDCHAR
STARTCHAR u1F357
ENCODING 127831
SWIDTH 1269 0
SWIDTH1 1269 0
BBX 24 25 4 -4
BITMAP
380000
2C0000
640000
C60000
820000
C30000
718000
1BC000
0FE000
03FC00
01FF80
01FFE0
01DFF8
00CFFC
00EFFE
00FFFE
00FFFF
0077FF
0077FF
007FFF
003FFF
003EFF
001FFE
000FFC
0003F8
ENDCHAR
STARTCHAR u1F358
ENCODING 127832
SWIDTH 1269 0
SWIDTH1 1269 0
BBX 24 25 4 -4
BITMAP
003E00
01FF80
0700E0
0C0030
183018
30000C
630466
400442
C00003
C00023
C7FFE3
C7FFE3
C63FE3
C6FFE3
C6FFE3
C6FFE3
C6FFF2
46FFF6
66FFF6
37FFFC
1FFFF8
0FFFF0
07FFE0
01FFC0
003E00
ENDCHAR
STARTCHAR u1F359
ENCODING 127833
SWIDTH 1269 0
SWIDTH1 1269 0
BBX 27 25 2 -4
BITMAP
00060000
003F8000
0070E000
00C43000
018C1800
03000C00
06700600
0C006300
19000100
11800180
300000C0
210000C0
61FFF640
41FFF060
418FF020
59BFF120
C1BFF320
C1BFF020
41BFF020
41BFF060
61BFF040
31FFF0C0
1FFFF700
07FFFC00
007FE000
ENDCHAR
STARTCHAR u1F35A
ENCODING 127834
SWIDTH 1269 0
SWIDTH1 1269 0
BBX 26 25 3 -4
BITMAP
007F8000
01E3E000
07003800
0C000C00
18004600
30088200
20080300
20001100
60023180
C0060080
F80007C0
8FFFFCC0
807F80C0
800000C0
C00000C0
C0000080
40000180
60000180
30000300
18000E00
0F003C00
03FFE000
00FFC000
00FFC000
00FF8000
ENDCHAR
STARTCHAR u1F35B
ENCODING 127835
SWIDTH 1269 0
SWIDTH1 1269 0
BBX 29 25 1 -4
BITMAP
000E0000
007FC000
00C06000
01803000
02000800
06004E00
0C008780
180012C0
3C001660
28000730
6C020798
4C0207C8
DF001C48
DFF9F848
DFFFFFC8
CB99E7C8
4DFBE7D8
667EC798
33FC7E30
18FEF860
0C0701C0
07800780
03FFFF00
00FFFC00
000FC000
ENDCHAR
STARTCHAR u1F35C
ENCODING 127836
SWIDTH 1269 0
SWIDTH1 1269 0
BBX 27 25 2 -4
BITMAP
0060FF00
03FFF000
03B00000
03FFFF00
01B3FF00
01B00000
01200600
01201F00
017FFF00
0FFBFF00
3D307FC0
61FFFFE0
CFFFFFE0
7F9E07E0
7C65E7E0
4FFDFF60
60FFF040
300001C0
3F000F80
1BFFFF00
0E000600
03801C00
00FFF000
00FFE000
007FE000
ENDCHAR
STARTCHAR u1F35D
ENCODING 127837
SWIDTH 1269 0
SWIDTH1 1269 0
BBX 25 25 3 -4
BITMAP
00000700
00003800
00066000
0009C000
001E8000
003E8000
00790000
000B0000
000A0000
003B0000
03FBE000
0FFBFC00
1FF7FE00
31EFF700
7EF7FB80
5F7BFF80
DBBD9C80
D5C5F280
D37B0E80
4DCCFC80
63331980
30CFF300
183E0E00
07007800
01FFE000
ENDCHAR
STARTCHAR u1F35E
ENCODING 127838
SWIDTH 1269 0
SWIDTH1 1269 0
BBX 26 25 3 -4
BITMAP
00FFE000
03FFF800
0FFFFE00
3FFFFF00
7FFFFF80
7FFFFF80
C0FFFF80
C03FFFC0
C00FFFC0
4007FF80
6003FF80
2003FF00
2001FF00
2003FF00
2007FF00
200FFF00
200FFF00
200FFF00
200FFE00
300FFE00
1C0FF800
070FF000
038FC000
00FF0000
003E0000
ENDCHAR
STARTCHAR u1F35F
ENCODING 127839
SWIDTH 1269 0
SWIDTH1 1269 0
BBX 21 25 5 -4
BITMAP
00E000
06AE00
08ABE0
29A868
D5A848
546B48
4F4AD0
2D4CD0
2D4C90
044D90
14C980
1CD9A0
1EDAE0
0F9BE0
0FFFE0
0FFF40
0FFF40
0FFF40
07FEC0
07FEC0
07FEC0
07FE80
07FC80
07FB80
03FF00
ENDCHAR
STARTCHAR u1F360
ENCODING 127840
SWIDTH 1269 0
SWIDTH1 1269 0
BBX 24 25 4 -4
BITMAP
000006
00001E
0003FF
000FF3
003FFF
00FF7F
01FEEF
0307EF
0603FE
0601FE
0400EE
0400DC
0400FC
040078
060078
0200F0
0FE0E0
7831C0
C01F80
C00600
C00400
C00C00
703C00
7FF800
1FF000
ENDCHAR
STARTCHAR u1F361
ENCODING 127841
SWIDTH 1269 0
SWIDTH1 1269 0
BBX 25 25 3 -4
BITMAP
CF000000
7F800000
30C00000
60600000
40600000
50600000
507C0000
60EE0000
73830000
1F010000
03410000
03430000
0303F000
0107F800
01DFFC00
007FFC00
000DFC00
000DFC00
000FF800
0007F800
0007FC00
00018E00
00000700
00000380
00000180
ENDCHAR
STARTCHAR u1F362
ENCODING 127842
SWIDTH 1269 0
SWIDTH1 1269 0
BBX 25 25 3 -4
BITMAP
FFF00000
D2300000
D2300000
FFE00000
D2C00000
D3800000
FF700000
D7FC0000
DDFE0800
D97E3C00
737E6F00
617ED900
01BF9380
00FF2580
007E4B00
000C9600
00192C00
00325800
0064B000
00417800
0048CC00
00658600
00330300
001E0180
00040080
ENDCHAR
STARTCHAR u1F363
ENCODING 127843
SWIDTH 1269 0
SWIDTH1 1269 0
BBX 26 25 3 -4
BITMAP
00FFC000
0361F000
06861C00
09080600
1B107F00
1BF8C100
1E0F0180
04A38780
0404DC80
0FF870C0
3FFE1880
67FF8F80
EFFFC700
E1FFFC00
7CFFF800
4FFFF800
61FFF800
627FF800
303FF800
188FE800
0E000800
03801800
00E03000
003CE000
000FC000
ENDCHAR
STARTCHAR u1F364
ENCODING 127844
SWIDTH 1269 0
SWIDTH1 1269 0
BBX 30 25 1 -4
BITMAP
0003FE00
00034F00
000E0180
001800C0
19180060
3F900160
77900130
F6980010
FA980010
DA980018
6E8C000C
3787E04C
1F80F048
0FC01008
0FE01008
07F03018
07FFF010
07F30010
03F00030
01F01060
01F020C0
00E300C0
00200780
003D3C00
0007F800
ENDCHAR
STARTCHAR u1F365
ENCODING 127845
SWIDTH 1269 0
SWIDTH1 1269 0
BBX 26 25 3 -4
BITMAP
001E0000
01F3C000
07E1F000
04001800
0C000800
1C180E00
30700300
20C00100
218F8100
2318E100
62302180
C2203080
C22010C0
C2231080
623E1180
230C3100
21002100
21806100
30E3C300
1C3F0E00
0C000800
04001800
07E1F000
00F3C000
001E0000
ENDCHAR
STARTCHAR u1F366
ENCODING 127846
SWIDTH 1269 0
SWIDTH1 1269 0
BBX 15 25 8 -4
BITMAP
07C0
0760
0130
0730
0C10
0830
0C38
1FEC
300C
200C
300C
7FFE
47C2
C002
6006
3C7C
3FFC
3008
1A58
1A50
0A50
0A50
0A50
0830
0FE0
ENDCHAR
STARTCHAR u1F367
ENCODING 127847
SWIDTH 1269 0
SWIDTH1 1269 0
BBX 24 25 4 -4
BITMAP
03FC02
0FFF0F
1F7F9E
39FFF8
7EFFF0
7FFDE0
F57FE0
FF7E60
F7EFB0
DF7C30
C00030
C00020
C00060
E00070
FC03F0
CFFF30
400020
7000E0
3F0FC0
37FCC0
300080
100080
180180
0E0700
03FC00
ENDCHAR
STARTCHAR u1F368
ENCODING 127848
SWIDTH 1269 0
SWIDTH1 1269 0
BBX 20 25 6 -4
BITMAP
01F800
030C00
022600
068200
060200
060200
1F0100
31E3C0
647460
401C20
C22020
C03030
E03060
7861A0
4FFF60
2040C0
180180
0F1F00
01F800
006000
03FC00
0CF600
080300
0E0600
03FC00
ENDCHAR
STARTCHAR u1F369
ENCODING 127849
SWIDTH 1269 0
SWIDTH1 1269 0
BBX 27 22 2 -2
BITMAP
00040000
00FFF000
03FEFC00
0FF8FF00
1E7FF780
3F7FE7C0
7FE07CC0
7F803EE0
5CBFDFE0
CDE07FE0
FFF0FFE0
FFFFF9E0
7FEFFBE0
7CE3BFE0
7EFFBFE0
7FFFFF40
20FFE0C0
301F80C0
18000180
0C000300
07801E00
01FFF000
ENDCHAR
STARTCHAR u1F36A
ENCODING 127850
SWIDTH 1269 0
SWIDTH1 1269 0
BBX 26 25 3 -4
BITMAP
003E0000
01FFC000
0783F000
0F839800
1F800E00
101E0600
3E1EC700
620F0F80
41860280
C382E0C0
8380EEC0
801C0E40
8C0C00C0
884000C0
C0E0E0C0
C0F0E0C0
E0F1E180
7010E380
7C040700
3E060E00
1F03FC00
07E3FC00
03FFF000
01FF0000
00180000
ENDCHAR
STARTCHAR u1F36B
ENCODING 127851
SWIDTH 1269 0
SWIDTH1 1269 0
BBX 26 25 3 -4
BITMAP
00C00000
01E00000
03F00000
07980000
0E3C0000
1F7E0000
3FF7C000
79CFE000
E3FF2000
77FC2000
3F7C3000
1CF0F800
0FE18C00
07E10600
03C10300
01870180
01FE00C0
00E00180
00B00300
00180600
000C0C00
00061800
00033000
0001E000
0000C000
ENDCHAR
STARTCHAR u1F36C
ENCODING 127852
SWIDTH 1269 0
SWIDTH1 1269 0
BBX 28 25 2 -4
BITMAP
02000000
07000000
1D800000
30C00000
22400000
21600000
6D3F8000
E27FC000
38E46000
0FC47000
008CD000
01889000
01989000
01911000
00A11000
00E23F00
006661C0
003FC470
001F4260
00004840
00006CC0
000031C0
00001700
00000C00
00000800
ENDCHAR
STARTCHAR u1F36D
ENCODING 127853
SWIDTH 1269 0
SWIDTH1 1269 0
BBX 26 25 3 -4
BITMAP
03FC0000
0E0F0000
18038000
31F0C000
639CC000
46066000
CC426000
D9F23000
9B123000
9A727000
9A727000
9B067000
C99CE000
4CF1E000
66034000
33FEC000
18F1E000
0C07F000
07FC7800
00C03C00
00001E00
00000F00
00000780
000003C0
00000180
ENDCHAR
STARTCHAR u1F36E
ENCODING 127854
SWIDTH 1269 0
SWIDTH1 1269 0
BBX 28 25 2 -4
BITMAP
001F0000
00FFF000
01FFD800
03FFCC00
07FFEC00
07FFCC00
07FF9E00
1CFFF700
3C3FC7C0
640002C0
4D000260
CD000330
89000330
89000310
89800310
8C000310
86000630
C3C03C30
C0FFF020
60000060
300000C0
1C000380
0F000E00
03FFF800
001F0000
ENDCHAR
STARTCHAR u1F36F
ENCODING 127855
SWIDTH 1269 0
SWIDTH1 1269 0
BBX 20 25 6 -4
BITMAP
0001C0
000120
000110
000220
03FCC0
3FF980
7813C0
7027C0
33FFC0
7BFFC0
FBFFE0
F9FFE0
F9FFE0
F1FFE0
F9FFE0
F9FFE0
7FFFE0
4FFE40
6000C0
3FBFC0
3FFF80
17F980
180300
0FFE00
07FC00
ENDCHAR
STARTCHAR u1F370
ENCODING 127856
SWIDTH 1269 0
SWIDTH1 1269 0
BBX 23 25 4 -4
BITMAP
003C00
007C00
005F00
00FFC0
00EF70
01FB1C
03FF96
067EE2
0C003A
08003C
1801F4
303F04
7FF024
FE03F6
C07E16
FFC076
F00FD6
C3F816
7FF9F2
4033F2
4F3F12
7FE07E
6007E0
43FE00
7FC000
ENDCHAR
STARTCHAR u1F371
ENCODING 127857
SWIDTH 1269 0
SWIDTH1 1269 0
BBX 28 23 2 -3
BITMAP
7FFFFFE0
40000020
5FEFDFA0
5FE952A0
D02FDFA0
D0295AA0
D02FDFA0
D02959A0
D32FDFA0
D322C020
D02CDFA0
D02BDDB0
D02E5FB0
D86259B0
9FEBD9B0
80000030
FFFFFFF0
FFFFFFF0
C0000020
C0000020
40000020
40000020
7FFFFFE0
ENDCHAR
STARTCHAR u1F372
ENCODING 127858
SWIDTH 1269 0
SWIDTH1 1269 0
BBX 30 25 1 -4
BITMAP
00007000
0000D000
00039000
000E3000
00186000
001BC000
007FF800
03EC1E00
061FE380
F8FCFCF8
C380070C
867FF184
85FFFD84
E784CF1C
73EFDE30
18FFFC60
18030040
08000040
080000C0
0C0000C0
0C000080
04000180
07000300
03C00E00
00FFF800
ENDCHAR
STARTCHAR u1F373
ENCODING 127859
SWIDTH 1269 0
SWIDTH1 1269 0
BBX 22 25 5 -4
BITMAP
03FC00
0FFE00
1F8F00
3F0780
7E03C0
7E01C0
7C71E0
FCB9E0
F978E0
F1F8E0
F0F0E0
F061E0
7001E0
7003C0
3807C0
1FFF80
0FFF80
07FF80
00E3C0
0001E0
0000E0
0000D0
000058
00003C
000030
ENDCHAR
STARTCHAR u1F374
ENCODING 127860
SWIDTH 1269 0
SWIDTH1 1269 0
BBX 12 25 10 -4
BITMAP
0060
0060
B060
B0E0
A0E0
A0E0
A8E0
A8E0
A8E0
F8E0
F0E0
70E0
6060
6060
6060
6020
6060
6060
6070
7070
7070
7070
7070
7070
7070
ENDCHAR
STARTCHAR u1F375
ENCODING 127861
SWIDTH 1269 0
SWIDTH1 1269 0
BBX 15 25 8 -4
BITMAP
0030
0078
00C8
0398
0630
0CE0
0980
0B80
3FF8
710E
C002
FFF6
FFFE
DFF2
4002
4002
4802
4802
4802
4802
4406
6004
381C
1FF0
0FF0
ENDCHAR
STARTCHAR u1F376
ENCODING 127862
SWIDTH 1269 0
SWIDTH1 1269 0
BBX 19 25 6 -4
BITMAP
007FC0
007FC0
0040C0
0060C0
002080
003180
001100
001100
003100
003180
006080
0060C0
00C040
00C060
008060
008020
018020
7F8120
FFC120
C0C120
C08120
408360
61C040
3F71C0
1E3F00
ENDCHAR
STARTCHAR u1F377
ENCODING 127863
SWIDTH 1269 0
SWIDTH1 1269 0
BBX 12 25 10 -4
BITMAP
3FC0
6040
7FE0
4020
C020
8030
8030
8010
A0D0
B3D0
BFD0
BFB0
DFB0
6460
3BC0
0F00
0600
0600
0600
0600
1F80
6EE0
4020
6060
3FC0
ENDCHAR
STARTCHAR u1F378
ENCODING 127864
SWIDTH 1269 0
SWIDTH1 1269 0
BBX 22 25 5 -4
BITMAP
03FE10
3FFFF0
E00078
CFFFCC
7E03F8
2FFF90
100620
083C40
047C80
025900
013A00
008400
004800
007000
003000
003000
003000
003000
003000
003000
007800
01CE00
070380
060180
03FF00
ENDCHAR
STARTCHAR u1F379
ENCODING 127865
SWIDTH 1269 0
SWIDTH1 1269 0
BBX 16 25 8 -4
BITMAP
C000
FC00
6607
5A1C
5C10
7FF0
7FF8
2858
1BE8
1BE8
17EC
37EC
35F4
3DF4
2DF4
34F4
37EC
1898
0FF0
03C0
0180
0180
07F0
0818
0FF0
ENDCHAR
STARTCHAR u1F37A
ENCODING 127866
SWIDTH 1269 0
SWIDTH1 1269 0
BBX 20 25 6 -4
BITMAP
07E000
0C3000
381800
600E00
600700
C00300
C00300
E01E00
73FB00
57F3C0
5F9260
5FF3A0
5F72B0
5F72B0
5BF2B0
5B9320
5BF260
5BF2C0
5BF380
5BF200
CFF200
CFE200
C00200
700E00
1FF800
ENDCHAR
STARTCHAR u1F37B
ENCODING 127867
SWIDTH 1269 0
SWIDTH1 1269 0
BBX 30 25 1 -4
BITMAP
00220000
00140000
001C7C00
0073C700
00160100
017C0100
07C60760
04039DB0
0401FD58
1FE07DA8
261074A8
5ED3F698
55F5FED4
75E5FE68
A5E57758
ADED7F70
BDFBBD30
4B7BBF90
3BFABE10
0BFAD030
18328060
3006C3C0
3FC27F00
1FFA0000
03FE0000
ENDCHAR
STARTCHAR u1F37C
ENCODING 127868
SWIDTH 1269 0
SWIDTH1 1269 0
BBX 26 25 3 -4
BITMAP
00000380
00001EC0
0001E480
0003C100
00066100
003CE100
00773900
00C26E00
0183DE00
0331B600
0660EE00
1C407C00
30001000
60001000
C0001000
C0003000
C000E000
C0018000
40030000
60020000
30060000
100C0000
1C080000
06180000
03F00000
ENDCHAR
STARTCHAR u1F37D
ENCODING 127869
SWIDTH 1269 0
SWIDTH1 1269 0
BBX 30 25 1 -4
BITMAP
00000018
00000018
A8000038
A8000038
A80FC038
A83CF038
A8601838
A8C00C38
A98FC678
F9184278
FB300378
73200338
22200138
22200118
23200318
23300318
61000218
71800618
70C00C18
70601818
703CF018
700FC018
7000003C
7000003C
7000003C
ENDCHAR
STARTCHAR bottleWithPoppingCork
ENCODING 127870
SWIDTH 1269 0
SWIDTH1 1269 0
BBX 24 25 4 -4
BITMAP
624000
F20000
F10000
230000
050000
090000
910000
3DC000
03C000
01F000
00D800
004600
002180
0021E0
0037F0
001FF0
001FC8
001F84
000F02
000781
0003C1
0001E3
0001E6
0000FE
000078
ENDCHAR
STARTCHAR popcorn
ENCODING 127871
SWIDTH 1269 0
SWIDTH1 1269 0
BBX 22 25 5 -4
BITMAP
00FE00
018A00
0F8F80
1EF280
3252F0
63FF58
E2225C
FE22FC
E7FFB8
77CF38
77CF38
73CF38
73CF30
33CF70
33CF70
3BCF70
3BCE60
1BCE60
19CE60
19CEE0
19CEC0
0DCEC0
0FCF80
01CE00
007800
ENDCHAR
STARTCHAR u1F380
ENCODING 127872
SWIDTH 1269 0
SWIDTH1 1269 0
BBX 28 25 2 -4
BITMAP
7E000FE0
43C03C60
C0E66020
C03FC030
80308030
8030C030
8030C030
8030C030
8FF0FF30
D83983B0
C07FE020
63CE7C60
3F0F0FC0
06190600
0C198200
08108300
1830C180
1020C180
3E6047C0
3E4067C0
03C02C00
01C03800
01803800
01801000
00801000
ENDCHAR
STARTCHAR wrappedGift
ENCODING 127873
SWIDTH 1269 0
SWIDTH1 1269 0
BBX 24 25 4 -4
BITMAP
1F00F8
31C388
30FE08
30660C
30460C
70460E
F3E7CF
F0FF4F
9FE7FB
8FC3F3
89FF93
F9399F
FD19BA
CF99F2
CDFFB2
CDBD32
CD9932
CD9932
CD9932
ED9936
3D993C
0F99F0
039BC0
00FF00
003C00
ENDCHAR
STARTCHAR u1F382
ENCODING 127874
SWIDTH 1269 0
SWIDTH1 1269 0
BBX 21 25 5 -4
BITMAP
000200
030200
032300
033200
003000
030300
033300
033300
07FF80
1F33E0
333330
643098
4E01C8
CE31C8
CE71C8
406808
407018
600018
618638
738F38
7FDFF8
7FFFF0
3FFFF0
1FFFE0
07FF00
ENDCHAR
STARTCHAR u1F383
ENCODING 127875
SWIDTH 1269 0
SWIDTH1 1269 0
BBX 26 25 3 -4
BITMAP
00780000
004C0000
00640000
00360000
01F3E000
0FFFF800
1DBEEE00
33213300
66411900
4C408980
C8400480
D98044C0
9380E4C0
93C8F2C0
900C02C0
900002C0
D04082C0
D3FFF680
53FFE480
69FFE580
28320700
3C408E00
1C610C00
07A17800
01FFC000
ENDCHAR
STARTCHAR u1F384
ENCODING 127876
SWIDTH 1269 0
SWIDTH1 1269 0
BBX 23 26 4 -4
BITMAP
001000
001800
007E00
002400
003C00
006E00
00CB00
01DCC0
060E60
064460
03E7C0
03BDC0
0C0030
30599C
203804
3F83DC
0FC6F0
19BC18
78000E
C00192
C0E182
7C603E
07FFE0
033880
003C00
003C00
ENDCHAR
STARTCHAR santaClaus
ENCODING 127877
SWIDTH 1269 0
SWIDTH1 1269 0
BBX 22 25 5 -4
BITMAP
01FE00
07FF00
0FFF80
1FFFC0
1FFFE0
3E07E0
6000F0
C00070
C7FC30
FFFFF0
600070
620C70
670CF8
6204CC
6000CC
610878
21F860
200040
200040
200060
200060
200060
3000E0
1E07C0
07FF00
ENDCHAR
STARTCHAR u1F386
ENCODING 127878
SWIDTH 1269 0
SWIDTH1 1269 0
BBX 26 25 3 -4
BITMAP
FFFFFF80
F7DFE7C0
FCDD9FC0
FF6B73C0
FBAA4FC0
FCDABBC0
FF7BE7C0
F1AEDFC0
FFECE0C0
83113FC0
FFEEF2C0
E612EFC0
BAFF31C0
F72A5EC0
CB553BC0
97957DC0
EB3552C0
E2DDA9C0
D4DDAEC0
F5AFB7C0
DDAF37C0
FDAF77C0
FFAEB7C0
FDFFF3C0
7FFFFF80
ENDCHAR
STARTCHAR sparkler
ENCODING 127879
SWIDTH 1269 0
SWIDTH1 1269 0
BBX 26 25 3 -4
BITMAP
FFFFFF80
FF3AEFC0
F821ADC0
FF19C3C0
FF3A83C0
F95BDFC0
ECDBBFC0
825B3FC0
C76B4EC0
89AA94C0
EE507840
F38082C0
C0207BC0
F3C00DC0
F700F040
F8C13CC0
C792CFC0
FF337FC0
ED733BC0
E2F3B7C0
F073D7C0
FBF3E7C0
E5F381C0
FEF3F7C0
7FF3EF80
ENDCHAR
STARTCHAR u1F388
ENCODING 127880
SWIDTH 1269 0
SWIDTH1 1269 0
BBX 17 25 7 -4
BITMAP
07F000
1C1C00
300E00
20C600
601300
401B00
400900
C00D00
400100
400100
400100
600100
600100
300300
100300
180600
0E0600
078C00
01F800
004800
007800
007000
003000
003780
003D80
ENDCHAR
STARTCHAR u1F389
ENCODING 127881
SWIDTH 1269 0
SWIDTH1 1269 0
BBX 25 25 3 -4
BITMAP
00183000
18782200
18C18300
08818100
40BC0180
60EC4180
00C4F980
0C7C9F00
04788600
01F0C800
037CCC00
0667C000
066F0180
0ECB3380
0E192600
0A018600
1B07C400
199FE400
3CC1BC00
367F0180
731E0180
79F03000
4FC01100
DE000180
78000000
ENDCHAR
STARTCHAR u1F38A
ENCODING 127882
SWIDTH 1269 0
SWIDTH1 1269 0
BBX 24 25 4 -4
BITMAP
1F81F8
336366
602642
40F781
C3E7C1
C7EBF1
4FC9F9
5F00FB
7E613E
39311C
0D1140
1D11C0
3110C6
2336E2
3320F0
3320D8
32204C
662344
44B244
0D9860
981820
301830
731818
E1160C
000300
ENDCHAR
STARTCHAR u1F38B
ENCODING 127883
SWIDTH 1269 0
SWIDTH1 1269 0
BBX 27 25 2 -4
BITMAP
00700000
00700180
00700F80
00701F00
00707E00
0070FC00
0070F800
0059E000
00030000
00727800
0077FF00
60767F80
387DDFE0
3E7BC000
0E7A2000
077A3000
00011000
0E790800
3C708400
7070D800
80707000
00700000
00700000
00700000
00700000
ENDCHAR
STARTCHAR u1F38C
ENCODING 127884
SWIDTH 1269 0
SWIDTH1 1269 0
BBX 29 25 1 -4
BITMAP
00F03800
03F07F00
0E1861C0
38184060
E388C738
478CCF88
67CC8F98
67858F90
231FE710
207FF830
31C30C30
33030720
1E0301A0
180700E0
00078000
00048000
000C8000
0008C000
00084000
00186000
00106000
00102000
00303000
00203000
00201000
ENDCHAR
STARTCHAR u1F38D
ENCODING 127885
SWIDTH 1269 0
SWIDTH1 1269 0
BBX 16 25 8 -4
BITMAP
0380
0480
04C0
06E0
07B0
0590
0790
0DF0
0990
09D0
0FD8
39D8
79DC
79DF
F99F
FFFE
FFFE
7FFE
1FF8
17E8
1FF8
718E
7FFE
7FFE
3FFC
ENDCHAR
STARTCHAR u1F38E
ENCODING 127886
SWIDTH 1269 0
SWIDTH1 1269 0
BBX 29 25 1 -4
BITMAP
01C01A00
01E01E00
0FFC1E00
07F03300
0FF87F80
0FF8C1C0
0D59C0C0
0F6DF2E0
0C0DC0E0
0499C8C0
0410E180
03E03F00
07F03F00
06F86180
0EFCC0C0
0FFDC0C0
1EFFE3E0
3CDFFFE0
7F9FF0F0
7FFF1218
F80E2188
7FFFFFF8
3FFFFFF0
35ACB5A0
3FFCFFE0
ENDCHAR
STARTCHAR u1F38F
ENCODING 127887
SWIDTH 1269 0
SWIDTH1 1269 0
BBX 28 25 2 -4
BITMAP
F00FFFC0
B03800C0
F0C80480
61948180
239A25C0
22DC4860
27211240
259101C0
3691FF00
7E9F8000
33F80040
3087FFE0
101C0020
10661240
10C904C0
11C91070
19762410
1B988930
1B48C0E0
19C8FF80
1FCF8000
08FC0000
08000000
08000000
0C000000
ENDCHAR
STARTCHAR u1F390
ENCODING 127888
SWIDTH 1269 0
SWIDTH1 1269 0
BBX 20 25 6 -4
BITMAP
003000
001E00
00F780
0180C0
036060
02C7A0
0287B0
068790
060190
027030
023830
022020
0180C0
00FF80
000C00
000F00
007F00
004100
00D100
038300
0E2600
309C00
606000
FE8000
070000
ENDCHAR
STARTCHAR u1F391
ENCODING 127889
SWIDTH 1269 0
SWIDTH1 1269 0
BBX 26 25 3 -4
BITMAP
FFFFFF80
FFFFFDC0
FFC079C0
DF003FC0
F6001FC0
EC000FC0
E83005C0
D86C07C0
D4B002C0
B9D003C0
A36003C0
A6E0E3C0
978113C0
D603BFC0
D40247C0
B4066FC0
AC09BBC0
AE0911C0
AB9FFFC0
97F001C0
94FFFFC0
8B7C07C0
87BDF7C0
C7CDF7C0
7FFFFF80
ENDCHAR
STARTCHAR u1F392
ENCODING 127890
SWIDTH 1269 0
SWIDTH1 1269 0
BBX 26 25 3 -4
BITMAP
00786000
0FC9F800
1FFBFC00
1FFFFE00
1C07DE00
1FF19F00
38188F00
20044F00
63C24780
43C32780
43C12780
C001A780
C000B780
80009380
8FF89380
981C97C0
B03494C0
9FE497C0
90249F80
90349F80
98349D80
CFF8B800
4000E000
3801C000
0FFF0000
ENDCHAR
STARTCHAR u1F393
ENCODING 127891
SWIDTH 1269 0
SWIDTH1 1269 0
BBX 30 25 1 -4
BITMAP
00070000
000CC000
00303000
00C01C00
03800600
0E000180
18070060
600F0038
C018000C
E060001C
39C00070
1F0001C0
07000380
03C00F00
02E03B00
07386300
020FC300
03030300
07800600
07F03C00
073FF000
07000000
07000000
0F800000
0F800000
ENDCHAR
STARTCHAR u1F396
ENCODING 127894
SWIDTH 1269 0
SWIDTH1 1269 0
BBX 16 25 8 -4
BITMAP
7FFE
47C6
47C6
47C6
47C6
47C6
67C6
77CC
1FD8
0FF0
07E0
0380
03C0
0340
0D60
FD3E
E10F
6C36
318C
1198
1258
1428
19A8
1EF8
1C38
ENDCHAR
STARTCHAR u1F397
ENCODING 127895
SWIDTH 1269 0
SWIDTH1 1269 0
BBX 20 25 6 -4
BITMAP
03F800
070E00
0F0B00
1B0900
1BF980
13F880
130880
110880
111880
119180
18B180
18E100
086300
0C3200
041E00
060C00
070600
1D8300
38C1C0
60E060
C0F030
619860
670CC0
3E0780
180180
ENDCHAR
STARTCHAR u1F399
ENCODING 127897
SWIDTH 1269 0
SWIDTH1 1269 0
BBX 17 25 7 -4
BITMAP
0FF000
3CD800
7F2C00
610400
C1CE00
C3EE00
C68200
E0E700
63C300
424100
70F300
71C180
236080
387980
31E080
112080
182680
186580
18CF00
0FFE00
03FF00
027F00
01FE00
00FC00
007C00
ENDCHAR
STARTCHAR u1F39A
ENCODING 127898
SWIDTH 1269 0
SWIDTH1 1269 0
BBX 18 25 7 -4
BITMAP
7FFF80
C00180
C0C0C0
DEDEC0
DEDEC0
C0C0C0
C3F0C0
DFFEC0
C3F0C0
C0C0C0
DEDEC0
C0C0C0
C0C0C0
C0C0C0
DEDEC0
C0C0C0
C0C0C0
DEDEC0
C0C0C0
C0C0C0
DEDEC0
DEDEC0
C080C0
C00180
7FFF80
ENDCHAR
STARTCHAR u1F39B
ENCODING 127899
SWIDTH 1269 0
SWIDTH1 1269 0
BBX 26 25 3 -4
BITMAP
FFFFFF80
C00000C0
C00000C0
C7C0D8C0
CBA174C0
D7223AC0
D6529AC0
D7D2FAC0
D7E2FAC0
CB2124C0
C7C0F8C0
C00000C0
C00000C0
C00000C0
C6C0D8C0
CBA174C0
D7A2E2C0
D612CAC0
D6D2FAC0
D7E2FAC0
CB2124C0
C7C0F8C0
C00000C0
C00000C0
7FFFFF80
ENDCHAR
STARTCHAR u1F39E
ENCODING 127902
SWIDTH 1269 0
SWIDTH1 1269 0
BBX 24 19 4 -1
BITMAP
FFFFFF
FFFFFF
9364D9
FFFFFF
900009
900009
900009
900009
900009
900009
900009
900009
900009
900009
900009
FFFFFF
9364D9
FFFFFF
FFFFFF
ENDCHAR
STARTCHAR u1F39F
ENCODING 127903
SWIDTH 1269 0
SWIDTH1 1269 0
BBX 28 17 2 0
BITMAP
7FFFFFE0
C0000030
80000010
8FFFFF10
88801110
CA801530
CA9F9530
8A9F9510
8A801510
8A8F1510
CA8F1530
CA801530
88801110
8FFFFF10
80000030
C0000070
7FFFFFE0
ENDCHAR
STARTCHAR u1F3A0
ENCODING 127904
SWIDTH 1269 0
SWIDTH1 1269 0
BBX 25 25 3 -4
BITMAP
601C0000
7E140000
4F940000
7B9C0000
49940000
69D40000
44DC0000
D4D40000
9A758000
BC7FF000
74FF9E00
05FFAE00
0F5EAC00
0E5E8D00
04538E00
3C6C9780
380F8D80
21F5C400
6E1CFA00
50143A00
78141D80
701C0D80
20140780
00140100
001C0000
ENDCHAR
STARTCHAR u1F3A1
ENCODING 127905
SWIDTH 1269 0
SWIDTH1 1269 0
BBX 24 25 4 -4
BITMAP
003C00
00FE00
0FBDB0
1E3C78
1F24F8
1FFFF8
1ED378
3511C8
2318CC
6E6C6E
FA465E
FA425F
FE447F
FA7CDF
3325C8
14FF48
1EDB78
0F6AF0
0FA5F0
1F45F0
1F7EF0
02C240
048160
0D8120
1FFFF0
ENDCHAR
STARTCHAR u1F3A2
ENCODING 127906
SWIDTH 1269 0
SWIDTH1 1269 0
BBX 26 25 3 -4
BITMAP
000010C0
000030C0
00003F40
0006E5C0
00079EC0
000DE7C0
00D9BE40
00F6E240
00DB87C0
01BE1C80
017A6480
03B1C580
03E34500
00C64500
018EC500
03128500
03A28500
04E28500
0CE28500
19A28500
11628500
3F628500
67428500
45428500
FDC38700
ENDCHAR
STARTCHAR u1F3A3
ENCODING 127907
SWIDTH 1269 0
SWIDTH1 1269 0
BBX 25 25 3 -4
BITMAP
0001FC00
00027300
00059D00
000E0680
00080280
00100280
00100280
00100280
00100280
00700280
03F00280
0E780580
39900500
20100F00
21101B00
31101300
11307200
1060F600
18CDF600
738EF400
C600EC00
7C00C800
0C009800
00009000
0000F000
ENDCHAR
STARTCHAR u1F3A4
ENCODING 127908
SWIDTH 1269 0
SWIDTH1 1269 0
BBX 26 25 3 -4
BITMAP
0000FE00
0001C300
00038180
0003C080
000660C0
000670C0
000638C0
000E0CC0
001E0780
00378380
0063CF00
0041FC00
0098E000
0189C000
03030000
06060000
0C0C0000
18180000
30300000
60600000
C0C00000
C3800000
C6000000
7C000000
38000000
ENDCHAR
STARTCHAR u1F3A5
ENCODING 127909
SWIDTH 1269 0
SWIDTH1 1269 0
BBX 26 25 3 -4
BITMAP
03F80000
0E0C0000
09F60000
120B0000
35E57E00
2B35C300
2B15BD80
2B152680
35F54280
14CB6280
1B13BD80
0CC68900
37186700
F9FFFC00
988002C0
948003C0
97800240
92800340
92BFF3C0
928FF200
92BFF200
97800200
9C800200
98800600
F07FFC00
ENDCHAR
STARTCHAR u1F3A6
ENCODING 127910
SWIDTH 1269 0
SWIDTH1 1269 0
BBX 26 25 3 -4
BITMAP
FFFFFF80
FFFFFFC0
FFFFFFC0
FFC3FFC0
FF81FFC0
FF01CFC0
FF0087C0
FF0003C0
FF0103C0
FF8187C0
FFE7CFC0
FFFFFFC0
F78007C0
F18007C0
F08007C0
F00007C0
F00007C0
F00007C0
F00007C0
F18007C0
F78007C0
FFFFFFC0
FFFFFFC0
FFFFFFC0
7FFFFF80
ENDCHAR
STARTCHAR u1F3A7
ENCODING 127911
SWIDTH 1269 0
SWIDTH1 1269 0
BBX 24 25 4 -4
BITMAP
01FF80
0781E0
0C0030
187E18
31FF8C
6300C4
460066
4C0032
C80032
980013
980013
D8001B
70000E
6701E4
7D81BC
7983BC
29C3BC
29C3B4
6DC7B6
6DC7A6
6DE726
64E76E
36E768
1AE658
0FC3F0
ENDCHAR
STARTCHAR u1F3A8
ENCODING 127912
SWIDTH 1269 0
SWIDTH1 1269 0
BBX 28 25 2 -4
BITMAP
07FE0000
0E078000
3800E000
20003800
62161C00
41160600
C38E3300
C7001980
80003880
800040C0
C000F060
C6019820
CB008820
4F80F830
67003030
20000030
3001F020
18799FE0
0C5CC780
063C7000
07181800
01800C00
00E00C00
00783800
000FF000
ENDCHAR
STARTCHAR u1F3A9
ENCODING 127913
SWIDTH 1269 0
SWIDTH1 1269 0
BBX 30 25 1 -4
BITMAP
01FFFE00
07800780
04000080
07C00F80
05FFFF80
04000180
06000180
06C00100
02C00100
02C00100
02400300
02400300
02400300
02000300
02000300
7FFFFFF8
CFFFFF8C
83FFFF0C
87FFFF0C
C07FF00C
60000018
70000030
1C0000E0
0FC00F80
00FFFC00
ENDCHAR
STARTCHAR u1F3AA
ENCODING 127914
SWIDTH 1269 0
SWIDTH1 1269 0
BBX 24 25 4 -4
BITMAP
001E00
001F80
001000
001000
001800
003C00
007E00
01FF00
036AC0
0DAD70
3B64DC
666666
4CC736
4CC336
78C33E
2FFFFC
21FF84
617D84
627CC6
4C7E66
587E32
CC7E33
86FE63
F2FFCE
3F81F8
ENDCHAR
STARTCHAR u1F3AB
ENCODING 127915
SWIDTH 1269 0
SWIDTH1 1269 0
BBX 28 17 2 0
BITMAP
FFFFFFF0
80000030
80000030
80006030
80006030
9FF007B0
800067B0
9FDC67B0
9FDC07B0
9FC06030
9FC067B0
80000030
9ED467B0
9ED467B0
80000030
80000030
FFFFFFF0
ENDCHAR
STARTCHAR u1F3AC
ENCODING 127916
SWIDTH 1269 0
SWIDTH1 1269 0
BBX 25 25 3 -4
BITMAP
00003F80
000FF980
07F98680
FF1C6780
71C7FC00
4DFE0000
7F000000
7FFFFF80
48CC6680
5998CC80
7FFFFF80
3FFFFF00
3FFFFF00
3FFFFF00
30000300
3FFFFF00
3FFFFF00
3FFFFF00
30000300
3FBF7F00
3FBF7F00
3FBF7F00
3FBF7F00
3FFFFF00
3FFFFF00
ENDCHAR
STARTCHAR u1F3AD
ENCODING 127917
SWIDTH 1269 0
SWIDTH1 1269 0
BBX 30 25 1 -4
BITMAP
03FC0000
06070000
0C018000
0800C000
18004000
3B804000
73807C00
F01E7F80
D002C080
B400C0C0
F6008040
77058070
37FD0C78
13FB27AC
18E2602C
7806E03C
7C1C0038
A7F41F98
40843F90
000E3070
001E6020
00FB4060
00318040
0040F0C0
00003F80
ENDCHAR
STARTCHAR u1F3AE
ENCODING 127918
SWIDTH 1269 0
SWIDTH1 1269 0
BBX 28 20 2 -2
BITMAP
07801E00
0FFFFE00
0F803F00
18000380
31001880
310000C0
23C06640
61001840
60119860
402BC060
402A4020
40198020
C0000020
D0FFF420
D1FFF630
D1801A30
D3000B30
C3000C20
7E0007E0
3C0003C0
ENDCHAR
STARTCHAR u1F3AF
ENCODING 127919
SWIDTH 1269 0
SWIDTH1 1269 0
BBX 27 25 2 -4
BITMAP
007FC000
01C0F000
07003800
0C3F0C00
18F3C780
118067E0
330E37E0
667F9FC0
64E0CFE0
4C807FC0
498CE5C0
C91FA4C0
C91E26C0
C91E24C0
498464C0
4C806C80
64E0CD80
267F9980
330C3300
11806300
18FFC600
0C3F0C00
07003800
01E1E000
007F8000
ENDCHAR
STARTCHAR u1F3B0
ENCODING 127920
SWIDTH 1269 0
SWIDTH1 1269 0
BBX 27 25 2 -4
BITMAP
003E0000
003E0000
00FF8000
03C1E000
0E3E3800
1DEBDC00
1B086C00
3788F600
24C99200
683E0B00
6FFFFB00
6FFFFB60
68410BE0
6FDDFB60
6F5DEB60
69496B60
6B496B60
68410BE0
68410BC0
6FFFFB00
FFFFFF80
FFFFFF80
C0000180
C0000180
FFFFFF80
ENDCHAR
STARTCHAR u1F3B1
ENCODING 127921
SWIDTH 1269 0
SWIDTH1 1269 0
BBX 26 25 3 -4
BITMAP
00FF8000
03FFF000
07FFF800
0F0FFC00
1E03FE00
3CF1FF00
78D9FF00
7871FF80
79E1FF80
F9B1FF80
F8F3FFC0
FC03FFC0
FE07FFC0
FFFFFFC0
FFFFF9C0
FFFFF980
7FFFF380
7FFFE780
7FFFCF00
3FFF1F00
1FFC3E00
0FE1FC00
07FFF800
03FFE000
00FF8000
ENDCHAR
STARTCHAR u1F3B2
ENCODING 127922
SWIDTH 1269 0
SWIDTH1 1269 0
BBX 24 25 4 -4
BITMAP
007E00
01E780
0701E0
1C0078
703C1E
E07E07
E07C0F
F8181F
8E0071
8381C1
B9C719
B87E19
981819
801801
801861
8018E1
8018E1
801801
819983
E1DB86
39DB1C
1C1830
0718E0
01FF80
00FE00
ENDCHAR
STARTCHAR u1F3B3
ENCODING 127923
SWIDTH 1269 0
SWIDTH1 1269 0
BBX 24 25 4 -4
BITMAP
071E78
0DB24C
08B3CC
08B3CC
08B34C
0FB27C
0F9E78
0D9E48
0F9278
0D9E4C
08B34C
1FF3C4
1FE186
3FF182
7FF882
63FC83
E3FCC3
FEFC83
FC7C82
E7FC82
E7FD86
7FF986
7FF98C
3FF3FC
0FFF00
ENDCHAR
STARTCHAR u1F3B4
ENCODING 127924
SWIDTH 1269 0
SWIDTH1 1269 0
BBX 20 25 6 -4
BITMAP
FFFFE0
C00030
C00030
C7E030
CC3030
D81030
D81830
D01830
D81830
D81030
CC3030
C7E030
C00030
C00030
C0FE30
C7FFF0
DFFFF0
FFFFF0
FFFFF0
FFFFF0
FFFFF0
FFFFF0
FFFFF0
FFFFF0
FFFFE0
ENDCHAR
STARTCHAR u1F3B5
ENCODING 127925
SWIDTH 1269 0
SWIDTH1 1269 0
BBX 22 25 5 -4
BITMAP
0000FC
00FFFC
07FFFC
07FFFC
07FFFC
07FFFC
07F00C
06000C
06000C
06000C
06000C
06000C
06000C
06000C
06000C
06000C
06003C
0600FC
1E01FC
7E01FC
FE01FC
FE01F8
FE00F0
FC0000
780000
ENDCHAR
STARTCHAR u1F3B6
ENCODING 127926
SWIDTH 1269 0
SWIDTH1 1269 0
BBX 28 23 2 -3
BITMAP
04000000
06000000
07000300
07800380
04C003C0
044003E0
04480130
040C0110
040E0110
040F0100
1E0F8100
7E0D8180
FE0C8F80
FC0C9F80
FC083F80
F8083F00
70383F00
00F83E00
01F81C00
01F80000
03F80000
01F00000
01E00000
ENDCHAR
STARTCHAR u1F3B7
ENCODING 127927
SWIDTH 1269 0
SWIDTH1 1269 0
BBX 28 25 2 -4
BITMAP
00003C00
00006600
00004200
0000DB00
0000DDC0
0001F7E0
1F8131F0
7FE32000
CF336000
DFD44000
DFBEC000
603EC000
20388000
307D8000
247D0000
24630000
24630000
24020000
24060000
24040000
240C0000
34080000
10180000
18300000
0FE00000
ENDCHAR
STARTCHAR u1F3B8
ENCODING 127928
SWIDTH 1269 0
SWIDTH1 1269 0
BBX 26 24 3 -4
BITMAP
000036C0
00001840
00002380
00006200
0000DC00
0071B000
00E32000
01C64000
01CC8000
01F90000
03F20000
07640000
0F5C0000
3C64C000
7923C000
FCC78000
F61E0000
E3580000
F1180000
7DD00000
3FB00000
1FF00000
0FE00000
07C00000
ENDCHAR
STARTCHAR u1F3B9
ENCODING 127929
SWIDTH 1269 0
SWIDTH1 1269 0
BBX 26 25 3 -4
BITMAP
FFFFFFC0
FFFFFFC0
C00000C0
C00000C0
FFFFFFC0
C71E78C0
C71E78C0
C71E78C0
C71E78C0
C71E78C0
C71E78C0
C71E78C0
C71E78C0
C71E78C0
C71E78C0
C71E78C0
C20C30C0
C20C30C0
C20C30C0
C20C30C0
C20C30C0
C20C30C0
C20C30C0
C30C30C0
FFFFFFC0
ENDCHAR
STARTCHAR u1F3BA
ENCODING 127930
SWIDTH 1269 0
SWIDTH1 1269 0
BBX 26 25 3 -4
BITMAP
00000380
000003C0
000007C0
00000DC0
00009B00
0001B600
0000E300
0004FD80
00077580
0037DD80
003D8D80
001FDF00
00367600
E0EF7D00
BF89D800
E00DBC00
F0376000
F839E000
7C6F2000
3C600000
1E600000
1F600000
0FE00000
03E00000
01E00000
ENDCHAR
STARTCHAR u1F3BB
ENCODING 127931
SWIDTH 1269 0
SWIDTH1 1269 0
BBX 26 25 3 -4
BITMAP
00000780
00001480
00002C80
00003B80
00002700
00004800
00009400
00032080
007EC140
00C982C0
01138280
01268500
0E1C8B00
11888A00
6A011400
E4232C00
E63E3800
EB505000
DC50B000
DC18E000
70194000
7012C000
18238000
07C50000
00020000
ENDCHAR
STARTCHAR u1F3BC
ENCODING 127932
SWIDTH 1269 0
SWIDTH1 1269 0
BBX 26 25 3 -4
BITMAP
00070000
000D8000
00088000
00088000
FFF9FFC0
F8098000
F80F0000
F80E0000
FFFFFFC0
F83C0000
F8340000
FFE7FFC0
FFCFFFC0
F8DAC000
F8DA6000
FFC37FC0
F8C36000
F863C000
F831C000
FFFFFFC0
00018000
00318000
00390000
00330000
003E0000
ENDCHAR
STARTCHAR u1F3BD
ENCODING 127933
SWIDTH 1269 0
SWIDTH1 1269 0
BBX 20 25 6 -4
BITMAP
7F0FC0
6BFD40
6BFB40
6DFB40
646640
63FCE0
61F9E0
4003E0
C00FE0
C01FF0
803FF0
C07FB0
C1FF30
C3FC30
CFF830
DFF020
FFC020
FF8020
FE0020
FC0020
F00030
E00030
800030
F000F0
FFFFE0
ENDCHAR
STARTCHAR u1F3BE
ENCODING 127934
SWIDTH 1269 0
SWIDTH1 1269 0
BBX 25 25 3 -4
BITMAP
3E007800
6301FE00
52873300
D28EEB80
D69CC480
529BAA80
73B31180
3F36AB80
046C4680
007CAF80
00731900
00733B00
006CE600
00ECCC00
00F3B800
009FF000
009F8000
03F00000
07800000
0D800000
1B000000
76000000
4C000000
68000000
38000000
ENDCHAR
STARTCHAR u1F3BF
ENCODING 127935
SWIDTH 1269 0
SWIDTH1 1269 0
BBX 28 19 2 -1
BITMAP
00003E00
0003FE00
0003E200
00031E00
0003FB00
00030B00
0001FB00
00010100
0001FD00
0001C100
0007EB00
001F3F00
00759D40
E0C681C0
B3F2E3C0
CFFFFFF0
40000030
30000030
1FFFFFF0
ENDCHAR
STARTCHAR u1F3C0
ENCODING 127936
SWIDTH 1269 0
SWIDTH1 1269 0
BBX 26 25 3 -4
BITMAP
00FF8000
03C0F000
06C07800
0C81EC00
19830600
318E0300
31180100
7B300180
4E600180
C6C03080
CF87FFC0
D99C00C0
F3F000C0
C27000C0
C67800C0
C44E0080
4C470180
6841C180
28407300
38601F00
18200600
0C300C00
07183800
03D9E000
00FF8000
ENDCHAR
STARTCHAR u1F3C1
ENCODING 127937
SWIDTH 1269 0
SWIDTH1 1269 0
BBX 25 25 3 -4
BITMAP
03000400
DFF00E00
F7BEFE00
678FFA00
406F0200
5C78E300
7CB8E700
73C6CF00
63C78D00
603F8100
6C3C7180
3C7C7B80
39E26780
31FFC780
27FFFF00
3E00FC00
38000000
30000000
30000000
10000000
10000000
10000000
10000000
18000000
18000000
ENDCHAR
STARTCHAR u1F3C2
ENCODING 127938
SWIDTH 1269 0
SWIDTH1 1269 0
BBX 22 26 5 -5
BITMAP
078000
0FC000
1FE000
106000
126000
0FC000
1FE000
3FFFC0
7FFFC0
77E090
67E068
6FF0C0
E7FD00
E7FD00
079C00
038FE0
01CE20
01FF30
01E720
0381E4
3F8F0C
61B018
40C3E0
418400
260000
180000
ENDCHAR
STARTCHAR personRunning
ENCODING 127939
SWIDTH 1269 0
SWIDTH1 1269 0
BBX 25 25 3 -4
BITMAP
03E00000
07F00000
07F80000
07F80000
07F80000
07FFF000
03FFF800
01FFFC00
61FF1C00
F3FF1C00
FFFF0000
7FFF8000
3FFF8000
003FC000
003FE300
003FFF80
001FFF80
001FFF80
001E3C00
001E0000
001E0000
001E0000
003E0000
003C0000
003C0000
ENDCHAR
STARTCHAR personSurfing
ENCODING 127940
SWIDTH 1269 0
SWIDTH1 1269 0
BBX 24 25 4 -4
BITMAP
00F000
41F800
E3FC00
E3FDC0
F9FDC0
7FFFC0
3FFF00
0FFE00
07F000
07F000
07E320
07F000
07F8F8
07FD8E
07DF82
03FFF2
01FC17
07DC12
0CDC3C
39C064
60E0DC
400390
C01E60
60F800
7FC080
ENDCHAR
STARTCHAR u1F3C5
ENCODING 127941
SWIDTH 1269 0
SWIDTH1 1269 0
BBX 16 25 8 -4
BITMAP
FF3F
417E
61FE
20FC
30FC
18F8
1870
1FFC
1FFC
180C
0FF8
0360
07F8
1C1C
1086
3082
21C3
67F3
63E3
63C3
2362
3026
180C
0E38
07F0
ENDCHAR
STARTCHAR u1F3C6
ENCODING 127942
SWIDTH 1269 0
SWIDTH1 1269 0
BBX 27 25 2 -4
BITMAP
007FE000
1DE07B00
3F1F8FC0
66F1EE60
46000420
C2000C20
42400C60
62400860
334008C0
19600B80
0F201E00
03B01C00
01803800
01C07000
07BFDE00
07190C00
00190000
00118000
00108000
007FE000
007FE000
0070E000
01F0F800
01FFF800
01FFF800
ENDCHAR
STARTCHAR u1F3C7
ENCODING 127943
SWIDTH 1269 0
SWIDTH1 1269 0
BBX 27 25 2 -4
BITMAP
007C0000
00C40000
013C0000
00FF0000
013FC000
078FE400
0DEFF400
1BFCF700
147DF380
627FC1E0
569FFEE0
CF078960
7F0708E0
030308C0
01031880
0107F080
00872180
03CC7100
07CFD900
03483700
01D83E00
01D87C00
006F3800
00373000
000F3000
ENDCHAR
STARTCHAR u1F3C8
ENCODING 127944
SWIDTH 1269 0
SWIDTH1 1269 0
BBX 25 25 3 -4
BITMAP
0007FE00
003FE700
0070FF80
01C6FC80
031D9E80
06318F80
0CF38780
09CD0380
19C60180
333C0180
35180080
24F00180
6C600180
45C00100
7F800300
7C000200
FE000600
DF000C00
FF801800
F7C03800
E3E07000
61E0C000
60F38000
707E0000
1FF80000
ENDCHAR
STARTCHAR u1F3C9
ENCODING 127945
SWIDTH 1269 0
SWIDTH1 1269 0
BBX 26 25 3 -4
BITMAP
0007FC00
001E0E00
00701F00
00CFF180
01B9C080
036F4080
06CEC0C0
0DBB80C0
1B3B00C0
12E60080
34EC0080
25980080
67B00180
46600100
C7C00300
C4000200
C8000600
D8000C00
D0001800
D0003000
60006000
6000C000
30038000
1C1E0000
0FF80000
ENDCHAR
STARTCHAR personSwimming
ENCODING 127946
SWIDTH 1269 0
SWIDTH1 1269 0
BBX 28 25 2 -4
BITMAP
00000FE0
00003FF0
00007FF0
0000FFE0
0001F800
0001F000
0003E000
0183E000
07E3E000
0FF3E000
1FBBE000
1F3FF000
1E7FF800
1EFFFC00
19FFFE00
19FFFE00
0FFFFF00
07FFFF80
C3FFFF80
7F0FC0E0
08020000
00000000
00001E00
23F87FC0
3F0FC000
ENDCHAR
STARTCHAR personLiftingWeights
ENCODING 127947
SWIDTH 1269 0
SWIDTH1 1269 0
BBX 27 25 2 -4
BITMAP
18000180
D80001A0
D90019A0
DB8019A0
DB8F19A0
1B9F9980
019F9800
01DFB800
00DFF000
00FFF000
007FE000
003FC000
001F8000
001F8000
001F8000
001F8000
003F8000
003F8000
003F8000
00398000
00318000
00308000
0030C000
0030C000
0070E000
ENDCHAR
STARTCHAR personGolfing
ENCODING 127948
SWIDTH 1269 0
SWIDTH1 1269 0
BBX 20 25 6 -4
BITMAP
00F800
01FC00
01FC00
E3FC00
FDFC00
EDF800
FFF000
FFF000
7FFC00
07F180
07F020
07F030
07F030
07F000
07F000
07F000
07F000
07F000
077000
077000
077800
073F00
079F00
038700
038200
ENDCHAR
STARTCHAR motorcycle
ENCODING 127949
SWIDTH 1269 0
SWIDTH1 1269 0
BBX 31 21 0 -2
BITMAP
00F00000
01B00000
02200000
0D4C0000
1FBA0000
397DC01C
1BF071EC
3BE07398
2FF3FE78
300FFB88
3C03FD00
0E01FB00
3D0677F4
7F8C7FFA
6B8DFF62
C9C7FF8C
DCC03E7C
6DFFFDCC
73BFFF18
3F0003F8
1E0000E0
ENDCHAR
STARTCHAR u1F3CE
ENCODING 127950
SWIDTH 1269 0
SWIDTH1 1269 0
BBX 29 15 1 1
BITMAP
00000078
00003868
00001848
00001C48
000017C8
000013D8
00061018
03FEF398
06C786F0
38600C30
6BB00BB0
FBBFFBA0
F83FFC20
FEDFFEC0
03800380
ENDCHAR
STARTCHAR cricketBatAndBall
ENCODING 127951
SWIDTH 1269 0
SWIDTH1 1269 0
BBX 27 25 2 -4
BITMAP
000000E0
000001A0
00000360
000007C0
1C000D80
7E001F00
43013600
C503FC00
DD067800
710CF800
76189800
3C311800
00623000
00C46000
0188C000
03018000
06030000
0E060000
1C0C0000
38180000
30300000
20600000
30C00000
19800000
0F000000
ENDCHAR
STARTCHAR volleyball
ENCODING 127952
SWIDTH 1269 0
SWIDTH1 1269 0
BBX 26 25 3 -4
BITMAP
00FF8000
03E3F000
06C63800
0D8C0C00
19181E00
3B307B00
3F60F900
63FF8D80
401F8580
C000C480
E000C6C0
FC0046C0
CFC046C0
C0FFC6C0
C007C6C0
E0004680
7C004780
6FFEC580
207FC700
3000CF00
1E018E00
0FFF8C00
07FFB800
03C1E000
00FF8000
ENDCHAR
STARTCHAR fieldHockeyStickAndBall
ENCODING 127953
SWIDTH 1269 0
SWIDTH1 1269 0
BBX 26 25 3 -4
BITMAP
00000780
000006C0
000005C0
00000B80
00001A00
00003600
00006C00
0000D800
0001D000
00017000
00036000
0007C000
000F8000
001F8000
003F0000
007E0000
30FC0000
789CFC00
CDD8C600
CF718200
CE210200
C0610200
40C18200
7380CE00
3F007C00
ENDCHAR
STARTCHAR hockeyStickAndPuck
ENCODING 127954
SWIDTH 1269 0
SWIDTH1 1269 0
BBX 27 25 2 -4
BITMAP
000001C0
000001E0
000001E0
000003C0
00000780
00000D80
00000F00
00001A00
00003600
00002C00
00006800
0000D800
0001B000
0001E000
0003E000
0006C000
00078000
000F8000
003B0000
7FF27F80
C0067FC0
C00C7FC0
607840C0
3FE061C0
00003F80
ENDCHAR
STARTCHAR tableTennisPaddleAndBall
ENCODING 127955
SWIDTH 1269 0
SWIDTH1 1269 0
BBX 22 25 5 -4
BITMAP
07FF80
0E7FE0
0C3FF0
081FF8
081FF8
0C3FFC
0FFFFC
1FFFFC
1FFFFC
1FFFFC
1FFFFC
1FFFF8
1FFFF8
0BFFF0
0CFFF0
0C7FE0
0C3FC0
187F80
30FE00
618000
630000
C60000
C40000
6C0000
380000
ENDCHAR
STARTCHAR u1F3D4
ENCODING 127956
SWIDTH 1269 0
SWIDTH1 1269 0
BBX 30 25 1 -4
BITMAP
00030000
00038000
00048000
000CC000
00184000
00306000
00313000
007BB000
004CD800
00C40C00
00841E00
01841200
01843100
03006180
0201C180
0E0381C0
19E67270
32EF8C38
2CF80038
41E00098
C780618C
FF00618C
7FC061F8
0FFFFFC0
003FE000
ENDCHAR
STARTCHAR u1F3D5
ENCODING 127957
SWIDTH 1269 0
SWIDTH1 1269 0
BBX 26 25 3 -4
BITMAP
00006000
00009000
00018800
00030400
00040200
00079E00
00025600
000C2100
07FF1100
0403AE00
0C02C180
08064080
18042780
10053C00
10099300
20099B00
20194D80
6011EC80
F011BCC0
8FF7E640
807C01C0
E0000180
38000700
1F007C00
03FFE000
ENDCHAR
STARTCHAR beachWithUmbrella
ENCODING 127958
SWIDTH 1269 0
SWIDTH1 1269 0
BBX 24 25 4 -4
BITMAP
002000
003F00
03FDE0
06FF30
19CF88
33C7C4
27C7E2
47C7F7
4FC3FC
8F83F8
FF8B80
1FFF00
009800
000800
000800
03FFC0
1FF8F8
7FDC0E
FF9C23
E01DFB
E1E0E1
DF0003
70000E
3E0078
07FFC0
ENDCHAR
STARTCHAR u1F3D7
ENCODING 127959
SWIDTH 1269 0
SWIDTH1 1269 0
BBX 30 25 1 -4
BITMAP
00E00000
01200000
02D00000
FEEFFFC0
80000020
A5A36E98
996AF5EC
80000004
FCCFFFFC
F52F8F00
F52D8600
F4CD0200
740F0200
04CC0F00
04280900
05280F00
04880200
04080400
04C80400
04280600
05280980
0CACFFF0
0CCC50A0
0804FFF0
0FFC1080
ENDCHAR
STARTCHAR houses
ENCODING 127960
SWIDTH 1269 0
SWIDTH1 1269 0
BBX 30 25 1 -4
BITMAP
00330000
00348000
002B4000
0034A000
002B5000
00532800
00A01400
01C00E00
00C70800
00C78800
00C68800
33C78E60
37478960
1FBFF6A0
1E502960
352856A0
29B4A650
501F4028
E10F801C
43848708
43848F08
43048D08
43848F08
43848F08
7FFCFFF8
ENDCHAR
STARTCHAR u1F3D9
ENCODING 127961
SWIDTH 1269 0
SWIDTH1 1269 0
BBX 27 25 2 -4
BITMAP
00001B00
03F82080
00002080
01302080
893C2080
A81C1100
893C0400
A9360000
88360000
A9360000
887E3020
A87E31E0
882A0820
FFBE8CA0
80AAFC20
FFBEFCA0
80AAFCA0
FFBEFC20
80BEDFE0
FFAAFFE0
80BEDFE0
FFFFFFE0
FFFFDFE0
FFFFFFE0
7FFFFFE0
ENDCHAR
STARTCHAR derelictHouse
ENCODING 127962
SWIDTH 1269 0
SWIDTH1 1269 0
BBX 26 25 3 -4
BITMAP
001E0000
00330000
00698000
00DCC000
0CB26000
1FA13000
1E609800
1DE04C00
1B002600
36001300
6C01C980
D80004C0
F70073C0
303E0200
37BAFA00
151EBA00
151F6A00
179CFA00
10130600
367F1A00
23320600
2F7FBB80
3FC0FF00
00448000
00FF8000
ENDCHAR
STARTCHAR u1F3DB
ENCODING 127963
SWIDTH 1269 0
SWIDTH1 1269 0
BBX 26 25 3 -4
BITMAP
001E0000
00730000
00C0C000
031E3000
0C7F9C00
31FFE700
60000180
7FFFFF80
29412900
3FFFFF00
3FFFFF00
210C6100
3FFFFF00
238C7300
238C7300
238C7300
238C7300
238C7300
238C7300
3FFFFF00
210C6100
7FFFFF80
40000180
800000C0
FFFFFFC0
ENDCHAR
STARTCHAR u1F3DC
ENCODING 127964
SWIDTH 1269 0
SWIDTH1 1269 0
BBX 26 25 3 -4
BITMAP
FFFFFF80
800000C0
800000C0
860000C0
9F0000C0
9F0000C0
9F0040C0
8F00D0C0
800090C0
800088C0
80048FC0
800E85C0
860885C0
BBCA85C0
E3F895C0
81F99DC0
FFF981C0
800982C0
80841CC0
FFC651C0
800190C0
9F8090C0
80019FC0
8001DFC0
7FFFFF80
ENDCHAR
STARTCHAR u1F3DD
ENCODING 127965
SWIDTH 1269 0
SWIDTH1 1269 0
BBX 22 25 5 -4
BITMAP
003800
005B00
005FC0
03D880
0CC300
080780
0F1840
033C60
0497A0
0DBC60
0BAA00
0FEE00
04CA00
00CE00
000A00
00FF00
0F1F80
3C60F0
786058
8C008C
97FF0C
C8204C
6407B8
3C01F0
07FF80
ENDCHAR
STARTCHAR u1F3DE
ENCODING 127966
SWIDTH 1269 0
SWIDTH1 1269 0
BBX 26 25 3 -4
BITMAP
FFFFFF80
800000C0
8FC03FC0
8C306DC0
E0D0C4C0
B00284C0
880706C0
8C0902C0
861906C0
C2121CC0
C11230C0
A1B633C0
ACE66EC0
9E6E7CC0
9FFFFCC0
9E40F0C0
B8401EC0
906010C0
8C3C30C0
BE079CC0
F20060C0
CC0038C0
F00017C0
C00010C0
7FFFFF80
ENDCHAR
STARTCHAR u1F3DF
ENCODING 127967
SWIDTH 1269 0
SWIDTH1 1269 0
BBX 26 25 3 -4
BITMAP
007F8000
02409000
067F9800
323D0200
33FFF300
1E181E00
3C4A9E00
62881500
5308A080
D128A080
C58C40C0
E1FFC9C0
DBFFF6C0
EF007DC0
B7777BC0
9F777EC0
B7F7FBC0
B0FFC3C0
B30033C0
F31E3380
733E3380
333F3300
1B3F3E00
0FBF7800
01FFE000
ENDCHAR
STARTCHAR house
ENCODING 127968
SWIDTH 1269 0
SWIDTH1 1269 0
BBX 26 25 3 -4
BITMAP
001E0000
0E330000
0E698000
0EDCC000
0DB26000
0F613000
0EC09800
0D804C00
1B002600
36001300
6C000980
D80004C0
F00003C0
301E0200
36DEDA00
36DEDA00
36DEDA00
36DEDA00
301E0200
301E0200
3F9E7E00
3FFFFE00
3FC0FF00
007F8000
007F8000
ENDCHAR
STARTCHAR houseWithGarden
ENCODING 127969
SWIDTH 1269 0
SWIDTH1 1269 0
BBX 26 25 3 -4
BITMAP
1E000000
23000000
61800000
40840000
C08B0000
80D18000
8066C000
804B6000
8091B000
8120D800
82406C00
84803600
C9001B00
5E000F00
5C060700
24EF5400
1DEF5600
1DEF5580
34EF54C0
440F0440
3FCF7F80
07BFFC00
07FFFE00
00308000
003F8000
ENDCHAR
STARTCHAR u1F3E2
ENCODING 127970
SWIDTH 1269 0
SWIDTH1 1269 0
BBX 28 25 2 -4
BITMAP
003FC000
FFFFFFF0
FFFFFFF0
43FFFC20
42000460
5A8F35E0
42000460
42000460
5A8F35E0
5A8F35E0
42000460
42000460
5A8F35E0
5A8F35E0
42000460
42000460
5ABFB5E0
423F8460
423F8460
5AAFB5E0
5AAFB5E0
422F8460
422F8460
7FFFFFE0
7FFFFFE0
ENDCHAR
STARTCHAR u1F3E3
ENCODING 127971
SWIDTH 1269 0
SWIDTH1 1269 0
BBX 30 25 1 -4
BITMAP
FE000000
FE000000
86000000
BE000000
86000000
BE000000
96FFFFF8
96FFFFF8
86FFFFF8
86C00008
86DE5968
86DE5968
86DE5968
86DE5968
86C00008
86FFFFFC
86FFFFFC
FED12228
FED12228
FED14628
FED14628
FEDFFE28
FEC01228
FEFFFFF8
FEFFFFF8
ENDCHAR
STARTCHAR postOffice
ENCODING 127972
SWIDTH 1269 0
SWIDTH1 1269 0
BBX 27 23 2 -3
BITMAP
00060000
000F0000
00198000
0030C000
00606000
00C03000
01841800
01AA9800
7FB1DFE0
7F9FDFE0
FF8F1FE0
C0801020
C0FFF020
C0FFF020
DE8017A0
DE9F17A0
D69117A0
D69117A0
D69317A0
C0911020
C0911020
C0911020
FFFFFFE0
ENDCHAR
STARTCHAR u1F3E5
ENCODING 127973
SWIDTH 1269 0
SWIDTH1 1269 0
BBX 26 25 3 -4
BITMAP
01FFE000
01006000
010C6000
010C6000
FF3F7FC0
813F6040
813F6040
B50C7B40
810C6040
81006040
B5007B40
B5007B40
813F6040
813F6040
B5007B40
B5007B40
813F6040
813F6040
8F007C40
88000440
8FFFFC40
8FFFFC40
81BF6040
81BF6040
FFFFFFC0
ENDCHAR
STARTCHAR u1F3E6
ENCODING 127974
SWIDTH 1269 0
SWIDTH1 1269 0
BBX 26 25 3 -4
BITMAP
000C0000
003F0000
007F8000
01CCC000
039EF000
0E985800
189C4E00
30864300
7F9EFF00
20DC8100
20730100
3FFFFF00
221E2100
221E2100
3FFFFF00
233F3300
23333300
233B3300
233B3300
3FFBFF00
621A2180
7FFFFF80
C00001C0
FFFFFFC0
FFFFFFC0
ENDCHAR
STARTCHAR atmSign
ENCODING 127975
SWIDTH 1269 0
SWIDTH1 1269 0
BBX 26 25 3 -4
BITMAP
FFFFFF80
FFFFFFC0
FFFFFFC0
FFFFFFC0
FFFFFFC0
FFFFFFC0
FFFFFFC0
FFFFFFC0
FFFFFFC0
F30239C0
E1CE39C0
E5CE31C0
EDCE15C0
C0CE55C0
CECE45C0
DE4E4DC0
FFFFFFC0
FFFFFFC0
FFFFFFC0
FFFFFFC0
FFFFFFC0
FFFFFFC0
FFFFFFC0
FFFFFFC0
7FFFFF80
ENDCHAR
STARTCHAR u1F3E8
ENCODING 127976
SWIDTH 1269 0
SWIDTH1 1269 0
BBX 29 25 1 -4
BITMAP
001FC000
00303000
00601800
00400800
07C00F80
0458E880
FC58E8F8
7D58EAF8
7D5FEAF0
245FE890
2558EAD0
2558EAD0
2458E890
2558EAD0
25400AD0
24400890
2FFFFF90
2C000090
2FFFFF90
2FFFFF90
29922410
2D9224D0
2D9224D0
2D9224D0
3FFFFFF0
ENDCHAR
STARTCHAR u1F3E9
ENCODING 127977
SWIDTH 1269 0
SWIDTH1 1269 0
BBX 29 25 1 -4
BITMAP
001FC000
00303000
00601800
00400800
07C00F80
04400880
FC5FC8F8
7D506AF8
65506A90
3C4848F0
254CCAD0
25478AD0
24420890
25400AD0
25400AD0
24400890
2FFFFF90
2C000090
2FFFFF90
2FFFFF90
29922410
2D9224D0
2D9224D0
2D9224D0
3FFFFFF0
ENDCHAR
STARTCHAR u1F3EA
ENCODING 127978
SWIDTH 1269 0
SWIDTH1 1269 0
BBX 26 25 3 -4
BITMAP
3FFC0000
319C0000
3D9C0000
391C0000
3B5C0000
330C0000
21DC0000
3FFC0000
3FFC0000
10180000
FFFFFFC0
800000C0
800000C0
800000C0
FFFFFFC0
60000100
7F3F3D00
7F293D00
7F293D00
60290100
60290100
60290100
60290100
FFFFFF80
FFFFFF80
ENDCHAR
STARTCHAR u1F3EB
ENCODING 127979
SWIDTH 1269 0
SWIDTH1 1269 0
BBX 30 25 1 -4
BITMAP
00030000
00078000
000FC000
001DE000
0038F000
00707800
3FE33FF0
7FCCDFF0
7F9A4FF8
7F926FF8
FF926FF8
40884818
5F8F8BD8
51810A58
51800A58
5F9FEBD8
40906818
5F9FEBD8
51926A58
51926A58
5F926BD8
409FE818
7F926BF8
FF9FEFF8
FFFFFFFC
ENDCHAR
STARTCHAR u1F3EC
ENCODING 127980
SWIDTH 1269 0
SWIDTH1 1269 0
BBX 30 25 1 -4
BITMAP
FFFFFC00
80000400
80000C00
7FFFFBF8
40000A08
5BB6EB98
5296AA68
5296ABF8
42960910
42960FFC
5296A804
5296A804
5A96EFF8
42960808
5A96EBE8
5296AA28
5BB6EBE8
40000808
5BFF69C8
5A016BE8
5ADD6BE8
4A156808
4A156808
42150808
7FFFFFF8
ENDCHAR
STARTCHAR u1F3ED
ENCODING 127981
SWIDTH 1269 0
SWIDTH1 1269 0
BBX 28 25 2 -4
BITMAP
07F3F000
1C3E6000
31F0C000
2331FFF0
3E3FFFF0
3F3F50A0
232350A0
23235FA0
3F3F50A0
212150A0
212150A0
FFFF5FA0
FFFF50A0
FDFD50A0
FFFF5FA0
FFFFC020
80804020
80805FA0
9C9E5FA0
94925FA0
94925FA0
9C9E5FA0
80805FA0
80805FA0
FFFFFFE0
ENDCHAR
STARTCHAR redPaperLantern
ENCODING 127982
SWIDTH 1269 0
SWIDTH1 1269 0
BBX 18 25 7 -4
BITMAP
04F800
0CFC00
3BF700
600100
600180
FFFF80
C2C0C0
C000C0
FC0FC0
DFFEC0
C000C0
E001C0
FFFFC0
C100C0
C000C0
FC0FC0
DFFCC0
C000C0
E001C0
FFFF80
600180
300300
1FFE00
07F800
07F800
ENDCHAR
STARTCHAR u1F3EF
ENCODING 127983
SWIDTH 1269 0
SWIDTH1 1269 0
BBX 26 25 3 -4
BITMAP
00C0C000
00FFC000
00FFC000
01806000
063F1800
03E1F000
019A4000
01FFE000
06001000
1C0C0C00
0FF7FC00
06631800
02D0D000
1FFFFE00
F0000380
7FFFFF80
3FFFFF00
118CA200
10000200
1CF6FA00
2B89BA00
24C34D00
78769700
56D55B80
FFFFFFC0
ENDCHAR
STARTCHAR uni26EB
ENCODING 127984
SWIDTH 1269 0
SWIDTH1 1269 0
BBX 26 25 3 -4
BITMAP
001C0000
001E0000
003F0000
1E3F0380
1C7F8300
10FF8000
188C8600
388C8E00
3C8C8F00
7C8C9F00
7EFF9F80
AABFB2C0
AA80B2C0
8A80B080
C3DCF080
C3FFF080
47FFF080
46401080
5E1CD080
47B31080
46611080
465D9080
465C9680
465C9080
7FFFFF80
ENDCHAR
STARTCHAR uni2690
ENCODING 127987
SWIDTH 1269 0
SWIDTH1 1269 0
BBX 23 25 4 -4
BITMAP
0003F8
000E08
DFF80C
F0800C
C00004
400004
400004
400006
400006
600002
600002
60007E
2003C0
200600
203C00
3FE000
300000
300000
300000
300000
100000
100000
100000
100000
180000
ENDCHAR
STARTCHAR uni2691
ENCODING 127988
SWIDTH 1269 0
SWIDTH1 1269 0
BBX 23 25 4 -4
BITMAP
0003F8
000FF8
DFFFFC
FFFFFC
FFFFFC
7FFFFC
7FFFFC
7FFFFE
7FFFFE
7FFFFE
7FFFFE
7FFFFE
3FFFC0
3FFE00
3FFC00
3FE000
300000
300000
300000
300000
100000
100000
100000
100000
180000
ENDCHAR
STARTCHAR u1F3F5
ENCODING 127989
SWIDTH 1269 0
SWIDTH1 1269 0
BBX 26 25 3 -4
BITMAP
00FFC000
07805800
07007800
07003800
1F0C7E00
319E6300
20DEC100
20FF8100
607FA100
47C8F980
C7DEF8C0
87FFF040
80BE40C0
C39E7080
7FEFFF80
FC738F80
F1FFC3C0
21EDE300
21EDC100
300C0300
180C0600
0E1C1800
021E1000
03FF6000
00CDC000
ENDCHAR
STARTCHAR u1F3F7
ENCODING 127991
SWIDTH 1269 0
SWIDTH1 1269 0
BBX 26 25 3 -4
BITMAP
3F000000
61800000
C0C00000
807E0000
87F30000
86418000
8440C000
CCC06000
6CE03000
3CC01800
08000C00
08000600
18000300
0C000180
060000C0
030001C0
01800380
00C00700
00600E00
00301C00
00183800
000C7000
0006E000
0003C000
00018000
ENDCHAR
STARTCHAR u1F3F8
ENCODING 127992
SWIDTH 1269 0
SWIDTH1 1269 0
BBX 26 25 3 -4
BITMAP
00007E00
0001DB80
FFC3BB80
834666C0
BBCEEEC0
C48B99C0
990BBAC0
661EE480
3C1CEA80
101BB180
000B3B00
000ECE00
001FDC00
001FF000
00380000
00600000
00C00000
01800000
07000000
0F000000
1E000000
3C000000
F8000000
F0000000
60000000
ENDCHAR
STARTCHAR u1F3F9
ENCODING 127993
SWIDTH 1269 0
SWIDTH1 1269 0
BBX 25 25 3 -4
BITMAP
00000380
00001F80
F9FE1980
7FFF8980
6E07EF80
2000FF00
20003800
30007C00
1000CE00
10018E00
18030700
18060700
080C0300
08180300
0CB00300
0FE00300
06E00300
0DA00300
0F600300
06C00300
07F80300
011F8300
0001FB80
00001F80
00000180
ENDCHAR
STARTCHAR u1F3FA
ENCODING 127994
SWIDTH 1269 0
SWIDTH1 1269 0
BBX 16 25 8 -4
BITMAP
1FF0
0FF0
6C26
F42F
9C31
8C31
8C31
983B
F00F
C002
FFFF
9FFB
8213
DA53
DE7A
4006
7FFC
2FFC
3008
1818
0810
0C30
07E0
07E0
0FE0
ENDCHAR
STARTCHAR skinTone1
ENCODING 127995
SWIDTH 1269 0
SWIDTH1 1269 0
BBX 26 25 3 -4
BITMAP
FFFFFF80
AAABF5C0
AAABF5C0
A22331C0
8888C4C0
AAABF5C0
AAABF5C0
A22331C0
AAABF5C0
8888C4C0
A22331C0
AAABF5C0
AAABF5C0
AAABF5C0
800000C0
8888C4C0
AAABF5C0
AAABF5C0
A22331C0
AAABF5C0
8888C4C0
A22331C0
AAABF5C0
AAABF5C0
FFFFFF80
ENDCHAR
STARTCHAR skinTone2
ENCODING 127996
SWIDTH 1269 0
SWIDTH1 1269 0
BBX 26 25 3 -4
BITMAP
FFFFFF80
A22331C0
AAABF5C0
8888C4C0
A22331C0
AAABF5C0
8888C4C0
8888C4C0
A22331C0
AAABF5C0
8888C4C0
A22331C0
A22331C0
AAABF5C0
8888C4C0
A22331C0
AAABF5C0
8888C4C0
8888C4C0
A22331C0
AAABF5C0
8888C4C0
A22331C0
A22331C0
FFFFFF80
ENDCHAR
STARTCHAR skinTone3
ENCODING 127997
SWIDTH 1269 0
SWIDTH1 1269 0
BBX 26 25 3 -4
BITMAP
FFFFFF80
E98CFCC0
B8CADCC0
98E9CCC0
8CB8CEC0
8E98CFC0
CB8CEDC0
E98EDCC0
B8CBCCC0
98E9CCC0
8CB8CEC0
8E98EDC0
CB8CFCC0
A98EDCC0
98CBCCC0
88E9CEC0
8CB8CFC0
CA98EDC0
E98CFCC0
B88EDCC0
98CBCCC0
8CA9CEC0
8E98CFC0
8B88EDC0
FFFFFF80
ENDCHAR
STARTCHAR skinTone4
ENCODING 127998
SWIDTH 1269 0
SWIDTH1 1269 0
BBX 26 25 3 -4
BITMAP
FFFFFF80
EEEEEEC0
BBBBFDC0
9999DCC0
FFFFFFC0
EEEEEEC0
BBBBFFC0
9999DDC0
FFFFFFC0
EEEEEEC0
BBBBFFC0
9999DDC0
FFFFFFC0
CEEEEEC0
ABBBFFC0
9999DDC0
FFFFFFC0
CCEEEEC0
AABBFFC0
9999DDC0
FFFFFFC0
CCCEEEC0
AAABFFC0
9999DDC0
FFFFFF80
ENDCHAR
STARTCHAR skinTone5
ENCODING 127999
SWIDTH 1269 0
SWIDTH1 1269 0
BBX 26 25 3 -4
BITMAP
FFFFFF80
8888CCC0
8888CCC0
8888CCC0
FFFFFFC0
8888CCC0
8888CCC0
8888CCC0
FFFFFFC0
8888CCC0
8888CCC0
8888CCC0
FFFFFFC0
8888CCC0
8888CCC0
8888CCC0
FFFFFFC0
8888CCC0
8888CCC0
8888CCC0
FFFFFFC0
8888CCC0
8888CCC0
8888CCC0
FFFFFF80
ENDCHAR
STARTCHAR u1F400
ENCODING 128000
SWIDTH 1269 0
SWIDTH1 1269 0
BBX 30 25 1 -4
BITMAP
00300000
00F80000
00FF0000
01F98000
01F68000
07068000
0C04FE00
F081E700
70800080
B0000040
58003060
0F804060
01C04020
0060C020
00304020
00384060
00316070
0031F0F8
00661F9C
00FC7F0C
0040000C
0003801C
000FF838
00103FF0
00000380
ENDCHAR
STARTCHAR u1F401
ENCODING 128001
SWIDTH 1269 0
SWIDTH1 1269 0
BBX 26 25 3 -4
BITMAP
03EE0000
03FF0000
07E18000
07EE8000
03CEC000
070E8000
0C008000
18038000
3181F000
38001C00
F0080400
73180200
1FE02200
0100E200
01810300
00830200
00830380
00C30780
00818CC0
00FFF8C0
01F9F8C0
000001C0
000FFF80
00187E00
00200000
ENDCHAR
STARTCHAR u1F402
ENCODING 128002
SWIDTH 1269 0
SWIDTH1 1269 0
BBX 28 25 2 -4
BITMAP
6F000000
C3800000
67800000
7BE00000
30380000
24BC0000
64F7FE00
C0400300
C0400180
C0C00080
70800080
0C000080
061000C0
022001C0
02200140
03201160
01A3F920
01F3F930
01D279B0
01D274B0
01D67480
01D27580
01D27580
01D20F80
001E0700
ENDCHAR
STARTCHAR u1F403
ENCODING 128003
SWIDTH 1269 0
SWIDTH1 1269 0
BBX 30 25 1 -4
BITMAP
47BFC800
CFFCE800
FE7E3C00
FC7F0C00
F83FFE00
781FFBC0
180FF060
1C608030
10600010
30000010
3FC00010
2FE60010
366C0018
3FF80018
1FC00018
0F000018
01C0031C
00781F90
007CFC90
00748C90
00768CF0
007680E0
00F48000
00048000
00078000
ENDCHAR
STARTCHAR u1F404
ENCODING 128004
SWIDTH 1269 0
SWIDTH1 1269 0
BBX 31 25 0 -4
BITMAP
00B00000
01FE0000
06330000
0C620000
1B6C0000
397FFFF8
787DFF8C
C87EFF9C
787CFF9C
7C187F9C
07803F9C
00E05F1C
0020E64C
003CE0EC
003F405E
001F0116
000F8F16
000F9F32
000F9722
0006D720
00065520
00065520
00065720
000ED1C0
00007000
ENDCHAR
STARTCHAR u1F405
ENCODING 128005
SWIDTH 1269 0
SWIDTH1 1269 0
BBX 30 25 1 -4
BITMAP
04600000
0FF00000
0F500000
1D500000
1D100000
30080000
658FF800
C5A4DE00
E1A65300
C3625300
C0C2D780
60081C80
3E380098
032161FC
0381405C
07A3404C
0FE7D918
0FE5F2F0
1EE5E200
1ECCF200
1ECCF200
0CCDE200
0189E200
00F83E00
00601800
ENDCHAR
STARTCHAR u1F406
ENCODING 128006
SWIDTH 1269 0
SWIDTH1 1269 0
BBX 30 25 1 -4
BITMAP
02400000
07E00000
0F200000
18A00000
70200000
C6200000
EC200000
C0180000
C0CFF800
40010E00
3C000300
04991900
02C18180
02008088
030C18DC
0740006C
0FA1E108
0FC373F0
1E467200
1C24F200
1C24F200
00641200
008C2200
00F83E00
00200800
ENDCHAR
STARTCHAR u1F407
ENCODING 128007
SWIDTH 1269 0
SWIDTH1 1269 0
BBX 21 25 5 -4
BITMAP
01C000
036080
0267C0
022C40
023B40
023640
026EC0
036D80
040300
080E00
188800
10C800
FC0C00
6B8700
3081A0
1FE0F8
0800C8
080448
080C48
0C0818
040870
049840
0590C0
073180
03FF00
ENDCHAR
STARTCHAR u1F408
ENCODING 128008
SWIDTH 1269 0
SWIDTH1 1269 0
BBX 24 25 4 -4
BITMAP
021C00
073400
07E400
07D600
061E00
0C1A00
19023C
FB0222
F8E21B
2DC209
78A609
184FFB
060EE2
020686
020698
020010
020010
030010
010130
01DFB0
01DBB0
01DBB0
03DBB0
039B30
00F0E0
ENDCHAR
STARTCHAR u1F409
ENCODING 128009
SWIDTH 1269 0
SWIDTH1 1269 0
BBX 22 25 5 -4
BITMAP
060000
1E3800
21FE00
36FC00
2DBF00
213F80
3E3F00
063F30
187FF0
17FA70
08F650
338658
568C68
7E382C
786034
F5CFF4
11080C
1B1018
1313F0
DDE238
F8C6F8
7E06C0
0E7C00
03F000
00E000
ENDCHAR
STARTCHAR u1F40A
ENCODING 128010
SWIDTH 1269 0
SWIDTH1 1269 0
BBX 22 25 5 -4
BITMAP
00FE00
030300
023180
0462C0
0DF260
3B1820
6E1020
787420
008530
008018
01E808
00F048
00C248
004278
07407C
0FA05C
0FA448
1C04F0
3C6010
384330
E0C3F0
910C70
FE30F0
53E0E0
7E0000
ENDCHAR
STARTCHAR u1F40B
ENCODING 128011
SWIDTH 1269 0
SWIDTH1 1269 0
BBX 29 25 1 -4
BITMAP
00000180
00000380
00000680
00001C80
00007180
00007EC0
00001A60
00000330
0E380110
7FFFC118
40006318
F8003208
CE001E08
43000008
60C00008
30788018
18088018
09000010
0D000030
07930030
03918018
1F88E008
3FC43BF8
3F7B0FE0
001FF800
ENDCHAR
STARTCHAR u1F40C
ENCODING 128012
SWIDTH 1269 0
SWIDTH1 1269 0
BBX 28 25 2 -4
BITMAP
0FE00000
19300000
1D700000
193FC000
19387000
193FF800
193FFC00
193F0600
093E7600
183CF300
303D9B00
E01DBB00
8605BB40
85A593F0
703CC610
301CFE30
301E3C60
301F9CC0
301FF980
300FE600
10078400
18001800
1800F000
0E078000
03FC0000
ENDCHAR
STARTCHAR u1F40D
ENCODING 128013
SWIDTH 1269 0
SWIDTH1 1269 0
BBX 26 25 3 -4
BITMAP
03F80000
060C0000
0C060000
08620000
18430000
18030000
1C030000
FF030000
31820000
41860000
03040000
021C0000
06180000
041FC000
0C70E000
08603000
08601800
08E708C0
08670DC0
083E0F40
0C0008C0
04001980
03003F00
01C0FC00
007FC000
ENDCHAR
STARTCHAR u1F40E
ENCODING 128014
SWIDTH 1269 0
SWIDTH1 1269 0
BBX 30 25 1 -4
BITMAP
06000000
36E00000
3DE00000
38F80000
38780000
F1380000
689E0000
408C7C00
C103C600
A7000100
C9000180
7B0000C0
030010C0
0F0030C0
3F0070FC
3F81E1F8
318FE170
7313E200
7227E400
70CE4800
32ECC800
12311000
01B22000
00F7C000
000F8000
ENDCHAR
STARTCHAR u1F40F
ENCODING 128015
SWIDTH 1269 0
SWIDTH1 1269 0
BBX 28 25 2 -4
BITMAP
01F80000
1F0C0000
7E07F000
7807F800
F007FC00
F003FE00
F0003F00
F313DD80
F2FBDD80
E3CF1DC0
67FFFDF0
66F3F8F0
2773F040
3630E040
33F00040
30000040
300000C0
10000380
1E000300
07000600
01807E00
01FFF600
01FFE600
01DCE600
001C0000
ENDCHAR
STARTCHAR u1F410
ENCODING 128016
SWIDTH 1269 0
SWIDTH1 1269 0
BBX 19 25 6 -4
BITMAP
030000
077800
06E000
0EC000
1FC000
6EEDC0
481520
200560
603F40
423040
A02060
F02020
606020
30C020
3F8020
3A0020
020320
020720
032720
012720
0127E0
0167E0
01E6C0
01FC00
003C00
ENDCHAR
STARTCHAR u1F411
ENCODING 128017
SWIDTH 1269 0
SWIDTH1 1269 0
BBX 25 25 3 -4
BITMAP
01F00000
06180000
1E0C0000
300F8000
6001E000
60003C00
60000600
7E200300
7BFF0300
4F9F0300
CFF00300
CBF00180
4CE00080
68E00080
67C00080
60000080
60000180
20000700
38000600
0E000C00
0300FC00
03D9EC00
03FFCC00
03B9CC00
00380000
ENDCHAR
STARTCHAR u1F412
ENCODING 128018
SWIDTH 1269 0
SWIDTH1 1269 0
BBX 25 25 3 -4
BITMAP
00001F00
00003180
03F06C80
0C184A80
180C4B80
30276800
2059A800
2F8AAC00
2828B400
6A2D9600
EA851600
E4F51200
45E70A00
340E0B00
1FFB0B00
07F90B00
03C18B00
07788B00
064C9A00
06C2F200
0780C600
03800C00
0F90F800
1CFF8000
1FE70000
ENDCHAR
STARTCHAR u1F413
ENCODING 128019
SWIDTH 1269 0
SWIDTH1 1269 0
BBX 23 25 4 -4
BITMAP
03E000
0FE000
1FE000
1FC000
1FC0F0
7941DC
4D2206
F92602
3F2402
7C3406
727C04
3DFC44
21FE4C
21FE68
21FEF8
31FE80
10FD80
182100
0C0200
070C00
01F800
0F3000
1C1000
103000
00F800
ENDCHAR
STARTCHAR u1F414
ENCODING 128020
SWIDTH 1269 0
SWIDTH1 1269 0
BBX 26 25 3 -4
BITMAP
0071E000
00FFE000
00FFE000
01FFE000
0FFFE000
0FFFC000
0FE3C000
0FF86000
070C3000
1E6C1800
336C0C00
430D8400
C3388600
FFE00200
0FC03300
0FD81100
0F898100
0F808180
07000080
06000080
06000080
02C003C0
03E63E80
033FEC00
0010C000
ENDCHAR
STARTCHAR u1F415
ENCODING 128021
SWIDTH 1269 0
SWIDTH1 1269 0
BBX 24 25 4 -4
BITMAP
07FF80
7C0FC0
F807C0
F807C0
F803C0
F803C0
F00BC0
F219C0
720100
10E1C0
19F3E0
09F7F2
0C0FFF
0BF9E2
09F01C
08E618
080018
0CC198
04A398
04A698
04A698
0CA5F0
08A4C0
0FFE00
023C00
ENDCHAR
STARTCHAR u1F416
ENCODING 128022
SWIDTH 1269 0
SWIDTH1 1269 0
BBX 28 25 2 -4
BITMAP
00000030
0007C0F0
007FFBE0
1DC00E90
36000370
20000180
60000080
400800C0
600880C0
400880C0
D80700C0
883200C0
80300080
9F000080
95800180
DD800100
4F000100
6000F100
3803D900
19C7D900
19C5DF00
1945C600
1B440000
0E7C0000
00100000
ENDCHAR
STARTCHAR u1F417
ENCODING 128023
SWIDTH 1269 0
SWIDTH1 1269 0
BBX 26 25 3 -4
BITMAP
00003000
0000F800
00019000
00031980
003E1F80
00F07F80
0180FF00
0101CE00
03019F00
16003980
3C1800C0
78180380
D0004180
B8802080
A98002C0
998191C0
F1C08900
71C00180
1F000180
03800F80
00E18B00
0031F800
0019B800
00070000
00030000
ENDCHAR
STARTCHAR u1F418
ENCODING 128024
SWIDTH 1269 0
SWIDTH1 1269 0
BBX 29 25 1 -4
BITMAP
1F1FC000
1FF06000
3F003000
3C003000
38001000
38001800
38081C00
30483600
30486300
70084180
F0C9C080
D0BF0080
71360080
11E000C0
136001E0
36700130
37700138
37B1F100
31A3F980
1122F880
1F26E480
0064E480
0044E580
00444300
00780000
ENDCHAR
STARTCHAR u1F419
ENCODING 128025
SWIDTH 1269 0
SWIDTH1 1269 0
BBX 30 25 1 -4
BITMAP
3E000078
33003CCC
1911FF98
05FF01B0
0CC00138
0883811C
0C860114
3C880134
72C9833C
D6098338
D6000318
DB000B30
4F800F30
E0002660
5C002C20
3F0000C0
3B000798
3620077C
306181CC
39E3C018
1BB2FEE8
0E20F660
0028C380
001FC000
000D8000
ENDCHAR
STARTCHAR u1F41A
ENCODING 128026
SWIDTH 1269 0
SWIDTH1 1269 0
BBX 26 25 3 -4
BITMAP
FF800000
99F00000
96FC0000
A1A62000
E333FC00
C2060600
C604FB00
C4040180
CC0FC080
C80FF0C0
480FF0C0
580FF8C0
700FF840
3007F8C0
3007FCC0
1003FCC0
1001FC80
1800FC80
08003D80
0C000980
04000180
06000180
0381F080
00FF3980
00000F00
ENDCHAR
STARTCHAR u1F41B
ENCODING 128027
SWIDTH 1269 0
SWIDTH1 1269 0
BBX 24 25 4 -4
BITMAP
06C000
034000
3F4000
71C000
C0C000
CC4000
804000
C04000
704000
104000
324000
30C000
174000
104000
326000
38F000
1B1F00
1811F0
1C111C
063D16
0722A3
05C02B
00FF0B
00CFE6
000CFE
ENDCHAR
STARTCHAR u1F41C
ENCODING 128028
SWIDTH 1269 0
SWIDTH1 1269 0
BBX 30 25 1 -4
BITMAP
79C00000
6D400000
04600000
04200000
04600000
0FE00000
7FC00000
FFE00000
F9E03F00
F1FCF3C0
FFFEE1E0
FFFFE1B0
7FFFFFB0
7FFFFF38
3FFFFF68
0FFFFE68
037FFCC8
036BF99C
02497338
06C9B678
1EC99FF8
18C883F8
0188C000
030C6000
00040000
ENDCHAR
STARTCHAR u1F41D
ENCODING 128029
SWIDTH 1269 0
SWIDTH1 1269 0
BBX 27 25 2 -4
BITMAP
8307E000
F18C3000
18D83E00
08D03900
0CD03180
07506080
1FF0C080
30308080
E0110080
C31B0180
C78E0300
C78C0F00
C30839C0
C01FFCE0
7019CE60
6039C640
307CE740
1FFCE740
0FFC63C0
1FFC6380
1CFF6700
01B7FE00
07360000
04260000
00660000
ENDCHAR
STARTCHAR u1F41E
ENCODING 128030
SWIDTH 1269 0
SWIDTH1 1269 0
BBX 26 25 3 -4
BITMAP
00080000
000B0000
10190000
0C118000
03F98000
31EF0000
117FD800
11FE7800
13FC3C00
1FF87780
04786800
1C088800
1E0DCC00
1E75C600
1E748600
1C760600
34226600
E4026F00
8E3B09C0
1A390840
0F111000
0581B000
06E0C000
0C3F8000
18000000
ENDCHAR
STARTCHAR u1F41F
ENCODING 128031
SWIDTH 1269 0
SWIDTH1 1269 0
BBX 30 21 1 -2
BITMAP
00040000
000F0000
001FC000
001FE000
01FFF000
0701F800
0C003C00
18001C04
3000060C
6000031C
630E0138
C36FFDF8
E0600FF0
306E00F0
60CF81F8
6007C338
3001E61C
18000C0C
0F007800
01FFF800
0000F800
ENDCHAR
STARTCHAR u1F420
ENCODING 128032
SWIDTH 1269 0
SWIDTH1 1269 0
BBX 26 23 3 -3
BITMAP
0003FF00
001E0700
00601800
01801000
03181800
06080980
0C8CCAC0
1CC44A40
1C464C40
3E666040
2E666040
6E266040
4A366040
C9364640
CF264540
8626C7C0
C0248200
606C8600
30480400
1C000C00
07001800
01E7F000
003C0000
ENDCHAR
STARTCHAR u1F421
ENCODING 128033
SWIDTH 1269 0
SWIDTH1 1269 0
BBX 28 25 2 -4
BITMAP
00108000
02188000
03398000
03FF9800
23FEF800
3CFCF100
3B7FFB20
1B73CFE0
7CE19F70
7F81DFF0
78003E30
601C0E70
631C63E0
6708E3E0
E0080780
60C18780
30E38400
18C18C00
1C801C00
36007C00
03C3C000
03FFC000
02180000
00180000
00080000
ENDCHAR
STARTCHAR u1F422
ENCODING 128034
SWIDTH 1269 0
SWIDTH1 1269 0
BBX 29 25 1 -4
BITMAP
0007F000
003E3C00
00600700
00C00D80
01F03CC0
017FE640
07C18240
1FE08360
301881F8
600880E8
4CCCC1F8
CCC4C350
C006DCE0
C487F1E0
43020720
4003FC20
60000020
30000620
1C001FE0
08F03880
18FE3000
18C61000
0F821000
0003F000
0001C000
ENDCHAR
STARTCHAR u1F423
ENCODING 128035
SWIDTH 1269 0
SWIDTH1 1269 0
BBX 27 25 2 -4
BITMAP
001FC000
00707000
00601800
00C00C00
01980400
01982400
01803600
01072600
03030400
07000600
0C000300
18000180
702040E0
C678E220
FFCFB760
79061DC0
18000180
18800180
08800100
0CC00300
06700200
03180600
01801C00
00E07800
003FE000
ENDCHAR
STARTCHAR u1F424
ENCODING 128036
SWIDTH 1269 0
SWIDTH1 1269 0
BBX 28 25 2 -4
BITMAP
01FC0000
07060000
0C010000
08018000
1800C000
3980F000
F9801C00
78000780
180080F0
0801E030
08003C20
08000620
08000C60
0C100840
041F38C0
0603E180
03000300
01800E00
00F8F800
001FC000
00098000
00098000
00798000
00238000
00070000
ENDCHAR
STARTCHAR u1F425
ENCODING 128037
SWIDTH 1269 0
SWIDTH1 1269 0
BBX 27 25 2 -4
BITMAP
003FC000
00606000
00803000
01801800
03000800
03004C00
0260CC00
02244400
020F0400
020E0C00
06000600
0C000300
18000180
308010C0
61801060
C3001820
E6000E60
7E0007C0
03000C00
01801800
00E07000
003FC000
00108000
0030C000
00F0E000
ENDCHAR
STARTCHAR u1F426
ENCODING 128038
SWIDTH 1269 0
SWIDTH1 1269 0
BBX 29 25 1 -4
BITMAP
0FE00000
18300000
30180000
200C0000
60040F80
630610E0
73023038
F003E008
F001C018
30000070
300000C0
10000380
10400600
10600C00
18300200
08100600
0C081C00
06063000
03FFE000
003E0000
00120000
00130000
00F30000
00460000
000C0000
ENDCHAR
STARTCHAR u1F427
ENCODING 128039
SWIDTH 1269 0
SWIDTH1 1269 0
BBX 17 25 7 -4
BITMAP
03E000
3FF000
477800
FF7800
1FCC00
0F8400
1F8400
320400
303E00
207E00
207F00
607F00
607F00
607F00
607F80
607F80
703F80
703F80
381F80
0C0780
0E0780
078780
03FC00
0F3800
067000
ENDCHAR
STARTCHAR u1F428
ENCODING 128040
SWIDTH 1269 0
SWIDTH1 1269 0
BBX 30 25 1 -4
BITMAP
01800E00
03E79E00
3FFFFFF0
3FE01FF0
78C00CF8
F180063C
F300033C
E6000138
F40001BC
F40000BC
FC0000FC
786718F0
38E7B8F0
38EF9870
080FC040
080FC040
080FC040
080E80C0
0C0700C0
0C000080
060FC180
03000300
01C00E00
00FFF800
000FC000
ENDCHAR
STARTCHAR u1F429
ENCODING 128041
SWIDTH 1269 0
SWIDTH1 1269 0
BBX 24 25 4 -4
BITMAP
03F000
06181C
040836
041823
7FF063
C1F022
C553FC
40D670
78AC20
46B830
0FD830
086030
080030
080020
0801E0
0C03F0
080278
0C6668
07BC48
029C78
07FC30
046600
06E400
039C00
039800
ENDCHAR
STARTCHAR u1F42A
ENCODING 128042
SWIDTH 1269 0
SWIDTH1 1269 0
BBX 28 25 2 -4
BITMAP
00C00000
0338F800
1E08FC00
7809FC00
C1995600
E0135200
80130200
F8320200
3E260380
062C00C0
06380040
06180040
06000060
02000060
03000060
01000120
01E001A0
007EFDF0
003ADCB0
001ADA80
001ADA80
003AB680
0036B580
0074AD00
00278700
ENDCHAR
STARTCHAR u1F42B
ENCODING 128043
SWIDTH 1269 0
SWIDTH1 1269 0
BBX 28 25 2 -4
BITMAP
1FC00000
1FF9DC00
1F8BFE00
7E0BFF00
C19FFF00
A017FD00
C014B500
F8342100
3E240180
0E2C00C0
0E380040
1E180040
1E000060
1E000060
0F000060
07000120
07E001A0
07FEFCF0
01FEDCB0
003ADA80
001ADA80
003ABE80
0036B580
0074AD00
00278700
ENDCHAR
STARTCHAR u1F42C
ENCODING 128044
SWIDTH 1269 0
SWIDTH1 1269 0
BBX 24 25 4 -4
BITMAP
03FE00
0E0380
1800FE
300003
600FC3
423866
4600CC
40018C
40060C
660004
4CF004
9BFE04
EE7B0C
F83B0C
600908
00F118
009B10
00CE30
004460
0061C0
006700
006400
004C00
005800
007000
ENDCHAR
STARTCHAR u1F42D
ENCODING 128045
SWIDTH 1269 0
SWIDTH1 1269 0
BBX 28 25 2 -4
BITMAP
0F000F00
3FC03FC0
60606060
C020C020
CF30CF30
8F309F30
9F3F9F30
CF208F30
C6000620
60000060
300000C0
1C000380
08000300
08000100
18E06140
3E6667C0
1A060500
3E0607C0
081F8300
0E090700
1E090780
03060C00
01C03800
00FFE000
000F0000
ENDCHAR
STARTCHAR u1F42E
ENCODING 128046
SWIDTH 1269 0
SWIDTH1 1269 0
BBX 27 25 2 -4
BITMAP
00402000
00E06000
3CFEE7C0
7F7FEFE0
C9F83320
5EFC07A0
6FFC0760
31FE00C0
3FFE0780
07DEC400
078EC400
07DCC600
07F80600
07FFFE00
071F0E00
04000600
0C404200
0C70E300
0C31C300
0C108200
04000600
06000600
03801C00
00FFF000
000F0000
ENDCHAR
STARTCHAR u1F42F
ENCODING 128047
SWIDTH 1269 0
SWIDTH1 1269 0
BBX 26 25 3 -4
BITMAP
0E001C00
3BFFF700
64BE4900
4E739D80
581C0E80
50370580
64000980
29806900
75806B00
60000380
70618380
D8FFC680
DB3F64C0
AA0C35C0
B20C13C0
920C16C0
CB7FBCC0
C1FFE080
609EC180
307F8700
1C1E1C00
07003000
01C0E000
007F8000
000C0000
ENDCHAR
STARTCHAR u1F430
ENCODING 128048
SWIDTH 1269 0
SWIDTH1 1269 0
BBX 19 25 6 -4
BITMAP
0F0F00
110980
351A80
379680
3796C0
369680
369680
169680
16B580
1AFD80
086100
080300
0C0300
080300
1B0900
130880
3000C0
E0E060
7040C0
71F9E0
E1B840
3090C0
70E0C0
1C0300
07FE00
ENDCHAR
STARTCHAR u1F431
ENCODING 128049
SWIDTH 1269 0
SWIDTH1 1269 0
BBX 28 25 2 -4
BITMAP
0C000300
1E000780
33000CC0
21801AC0
2CFFF6C0
2E7BEEC0
273B8EC0
261B86C0
341902C0
30000080
10000080
10000080
31803880
31C03880
F9C039F0
398E1180
380F0180
F80601F0
183EC180
1C1B8380
7C0003C0
06000E00
03801800
00FFF000
000F0000
ENDCHAR
STARTCHAR u1F432
ENCODING 128050
SWIDTH 1269 0
SWIDTH1 1269 0
BBX 29 25 1 -4
BITMAP
00C00000
01E00000
0C304000
1FE0DC00
31C09800
3009F180
307FFFE0
10CFFF80
3F83FFF0
6318FFF0
6859FF88
683081F8
3B80C7F0
1FC060F8
0FE020F8
7EE07FE0
F9C0FFF8
F601F870
1007F000
1DFFFC00
0FFFFC00
07FFFC00
03FF1C00
00EF8C00
00300000
ENDCHAR
STARTCHAR u1F433
ENCODING 128051
SWIDTH 1269 0
SWIDTH1 1269 0
BBX 30 25 1 -4
BITMAP
00816000
003B8038
011E406C
001F00C8
008E0F88
000C1818
00041810
00000F30
0E3F8090
7FEC60D8
400018D8
F8000788
CE040008
C1C40008
60700008
7C000018
37E00030
1C7F9FF0
06209860
01E489C0
007ECF00
001FE400
001E2400
001E1E00
000E0C00
ENDCHAR
STARTCHAR u1F434
ENCODING 128052
SWIDTH 1269 0
SWIDTH1 1269 0
BBX 24 25 4 -4
BITMAP
000C00
001400
003200
006200
05E3E0
07F3F8
07E1F8
03C0F8
060070
0C0070
08603C
10203E
30001E
40021E
C8060C
800C0C
83F80E
CE300F
783007
002006
002006
002006
006006
006006
003FFC
ENDCHAR
STARTCHAR u1F435
ENCODING 128053
SWIDTH 1269 0
SWIDTH1 1269 0
BBX 28 25 2 -4
BITMAP
001F0000
007FE000
01C03800
03000C00
06000600
0C000200
09F0FB00
1B1F0D00
12000580
320004C0
E260E460
9270ECB0
A370ECD0
A3060CD0
A20404D0
D60404B0
667FE460
367FE4C0
123F8D80
1B801900
0CF0F300
063F8600
03801800
00FFF000
000F0000
ENDCHAR
STARTCHAR u1F436
ENCODING 128054
SWIDTH 1269 0
SWIDTH1 1269 0
BBX 30 25 1 -4
BITMAP
000F8000
1FFFFFE0
7FC00FF0
7F8007F8
FF0007F8
FF0007FC
FF0003F8
FF0003F8
FF003FF8
FE007FF8
7E00FFF8
7E60DFF8
7C70FBF8
3C70FBF0
38605FE0
0C07EEC0
0C07BC80
04020080
061FE180
020FC300
03078200
01870600
00E01800
003FF000
00070000
ENDCHAR
STARTCHAR u1F437
ENCODING 128055
SWIDTH 1269 0
SWIDTH1 1269 0
BBX 27 25 2 -4
BITMAP
06000600
1F3FDF80
31E0F0C0
60000060
C2000820
E3000C60
7E0007E0
3E0007C0
3C000380
380001C0
60000040
61801860
43803860
419FB860
4036D060
4076C060
4076E060
6036C060
609F9040
30E070C0
103FC180
1C000300
07000E00
01FFF800
000F0000
ENDCHAR
STARTCHAR u1F438
ENCODING 128056
SWIDTH 1269 0
SWIDTH1 1269 0
BBX 28 25 2 -4
BITMAP
07000E00
1FC03F80
3060C0C0
203980C0
631F8840
67801C40
27801C40
23801C40
60000840
40000060
C020C020
8020C030
84000230
8FC03F10
8FFFFF30
8E000630
C3001C30
C1F9F020
603F8060
300000C0
18000180
0C000300
07801E00
01FFF000
000F0000
ENDCHAR
STARTCHAR u1F439
ENCODING 128057
SWIDTH 1269 0
SWIDTH1 1269 0
BBX 26 25 3 -4
BITMAP
0C001C00
3F007F00
6180C180
4CFFDC80
DEE1DC80
DF807C80
4F003C80
661E1980
3C120F00
18320400
10320600
30B24200
21B2C300
20B24100
60330100
60C1C180
418C6180
411E2180
7A4CB780
627F9380
E21233C0
3A123600
3D122F00
27FFF900
00E1E000
ENDCHAR
STARTCHAR u1F43A
ENCODING 128058
SWIDTH 1269 0
SWIDTH1 1269 0
BBX 25 25 3 -4
BITMAP
1C000E00
7F003F00
61FFE180
6E639D00
6F007900
26003B00
36001200
18000600
18000400
08000400
18C0C400
30C0C600
60C0C300
40000180
E0000380
E3C1F180
76231380
72321380
1F1E3E00
191E2600
010C6000
00BF4000
00C08000
007F0000
000C0000
ENDCHAR
STARTCHAR u1F43B
ENCODING 128059
SWIDTH 1269 0
SWIDTH1 1269 0
BBX 26 25 3 -4
BITMAP
1C000C00
3F7FBF00
73FFF380
67FFF180
4FFFF980
7FFFFD80
7FFFFF80
3FFFFF00
7FFFFF00
7FFFFF80
7C7F9F80
FC7F8F80
FC409FC0
FF807FC0
FF1E3FC0
FF1E3FC0
FE1E3FC0
FE003F80
7E333F80
7F1E3F80
3F807F00
1FE1FE00
0FFFFC00
03FFF000
001E0000
ENDCHAR
STARTCHAR u1F43C
ENCODING 128060
SWIDTH 1269 0
SWIDTH1 1269 0
BBX 28 25 2 -4
BITMAP
0C0F0700
3F7FFF80
3FC03FC0
7F001FC0
7E0007E0
7C0003C0
380001C0
300000C0
2060E0C0
61F1F060
4371C860
C2F0B420
C7D0B630
8EA03730
8FC07F30
8FCE3F30
879F1E30
C00F0830
C0060020
603FC060
301900C0
18000380
0F000E00
03FFF800
000F0000
ENDCHAR
STARTCHAR u1F43D
ENCODING 128061
SWIDTH 1269 0
SWIDTH1 1269 0
BBX 29 25 1 -4
BITMAP
00030000
000FC000
00386000
00E01800
01800E00
07000300
0C0000C0
18000060
30000020
20E01830
61F03E10
43F87E18
43F87F08
43F87F08
C3F87F08
43F07E08
41F03E08
40401818
40000018
60000010
20000030
30000060
1C0300C0
07FFFF80
00E03C00
ENDCHAR
STARTCHAR u1F43E
ENCODING 128062
SWIDTH 1269 0
SWIDTH1 1269 0
BBX 24 21 4 -2
BITMAP
19C000
1DD800
1DF800
DCB800
E01000
E7C000
6FE000
0FF000
1FE000
0E0000
000020
000076
000777
0007B7
000382
001D00
001C7C
001CFE
0001FE
0001FE
0001E0
ENDCHAR
STARTCHAR u1F43F
ENCODING 128063
SWIDTH 1269 0
SWIDTH1 1269 0
BBX 30 25 1 -4
BITMAP
07300000
07C80000
0FA80000
1FA80060
3FA801F8
3C18030C
7818060C
700C0418
77078430
6600E420
F0003420
B0009620
60008A30
3F000A10
0308CF10
3F886518
68180D18
6FF80D18
13FC0F18
0EFC0E10
00FC0030
07DE0060
0F803FC0
0FC06000
007FE000
ENDCHAR
STARTCHAR u1F440
ENCODING 128064
SWIDTH 1269 0
SWIDTH1 1269 0
BBX 30 22 1 -2
BITMAP
00800200
07E01F80
1C3070C0
30184060
300CC030
60058010
60078018
44070008
CC033008
DC03700C
DC837A0C
DF837E0C
DF837E0C
DF037C0C
DF033C08
46071808
60078018
60048010
300CC030
10186060
1C3070C0
07E01F80
ENDCHAR
STARTCHAR u1F441
ENCODING 128065
SWIDTH 1269 0
SWIDTH1 1269 0
BBX 29 21 1 -2
BITMAP
000FC000
007FF800
01FFFE00
03FFFF00
0FE03F80
0EC00DC0
1D8004E0
39878670
710FC230
631FC218
C31FE208
611FC218
610FC210
31878630
18800C60
0CC00CC0
06603980
033FE300
01C78E00
007FF800
000FC000
ENDCHAR
STARTCHAR u1F442
ENCODING 128066
SWIDTH 1269 0
SWIDTH1 1269 0
BBX 18 25 7 -4
BITMAP
07F000
1C1C00
300600
67F300
4C1980
D80D80
D00480
9186C0
10C6C0
1862C0
0C26C0
0626C0
002480
182180
0C6100
04C300
088600
190400
0F0C00
041800
003000
606000
60C000
318000
1F0000
ENDCHAR
STARTCHAR u1F443
ENCODING 128067
SWIDTH 1269 0
SWIDTH1 1269 0
BBX 21 25 5 -4
BITMAP
00FC00
018400
018600
018600
010600
010200
010200
030200
030200
030300
030300
020300
020300
020300
020100
1E01E0
700030
600018
C00008
C00008
C80088
5E01D8
7F03F0
1F8FC0
01FE00
ENDCHAR
STARTCHAR u1F444
ENCODING 128068
SWIDTH 1269 0
SWIDTH1 1269 0
BBX 28 19 2 -1
BITMAP
0030E000
01FFF800
03040C00
06000600
0C000300
183FC180
30E070C0
63801840
47F0FE60
CFFFFF30
9FFFFF90
C3FFFC30
60080060
300001C0
183F8300
0E000600
03801C00
00FFF000
00160000
ENDCHAR
STARTCHAR u1F445
ENCODING 128069
SWIDTH 1269 0
SWIDTH1 1269 0
BBX 28 25 2 -4
BITMAP
F00000F0
7F000FE0
7FFFFFE0
3FFFFFC0
1FFFFF80
0FFFFF00
061F8600
0C0F0300
180E0100
18060180
10060180
10060080
10060080
30060080
30060080
30060080
10000080
10000080
10000180
18000180
08000300
0C000300
06000E00
03C03C00
00FFE000
ENDCHAR
STARTCHAR backhandIndexPointingUp
ENCODING 128070
SWIDTH 1269 0
SWIDTH1 1269 0
BBX 20 25 6 -4
BITMAP
078000
04C000
04C000
04C000
04C000
04C000
04F000
04DFC0
04C9E0
64C920
F4C920
9C0030
CC0030
4C0030
440030
600030
200030
300030
100030
180020
0C0020
060060
020040
0300C0
03FF80
ENDCHAR
STARTCHAR backhandIndexPointingDown
ENCODING 128071
SWIDTH 1269 0
SWIDTH1 1269 0
BBX 20 25 6 -4
BITMAP
3FFC00
200C00
600400
600600
400300
C00180
C00180
C000C0
8000C0
800040
800260
800320
800330
C003B0
C922F0
492260
792200
2F2200
01E200
002200
002200
002200
002200
003600
001C00
ENDCHAR
STARTCHAR backhandIndexPointingLeft
ENCODING 128072
SWIDTH 1269 0
SWIDTH1 1269 0
BBX 30 23 1 -3
BITMAP
000F0000
0019C000
00187000
000C1C00
00070700
0003C180
7FFFC0C0
C0000070
C000001C
C000000C
7FF8000C
0180000C
0100000C
0180000C
00F8000C
00C0000C
00C0000C
00E0000C
0078000C
0060001C
00600070
003E0FC0
000FFC00
ENDCHAR
STARTCHAR backhandIndexPointingRight
ENCODING 128073
SWIDTH 1269 0
SWIDTH1 1269 0
BBX 30 23 1 -3
BITMAP
0003C000
000E4000
00784000
01E0C000
03038000
060E0000
0C0FFFF8
7800000C
E000000C
8000000C
80007FF8
80000600
80000600
80000E00
80007C00
80000C00
80000C00
80001800
80007000
E0001800
38001800
0FC1F000
01FFC000
ENDCHAR
STARTCHAR oncomingFist
ENCODING 128074
SWIDTH 1269 0
SWIDTH1 1269 0
BBX 27 23 2 -3
BITMAP
00078000
00ECFC00
0FF06600
1E000300
30000100
30000180
20000080
60004080
461040C0
461040C0
46106040
C4306160
C43061E0
C43060A0
441060A0
441060A0
3E1060A0
03F861A0
01C87F60
000FC460
000800C0
000E7F80
0003C300
ENDCHAR
STARTCHAR wavingHand
ENCODING 128075
SWIDTH 1269 0
SWIDTH1 1269 0
BBX 25 25 3 -4
BITMAP
00018000
00004000
00034000
03798000
07CC1C00
04C63600
04632600
0631A600
0F18E600
088C7200
0C463200
06222300
0F106100
19886180
18C06080
0C606080
06006080
13003080
D9800080
60C00080
30600180
00300100
001C0300
00070E00
0001F800
ENDCHAR
STARTCHAR okHand
ENCODING 128076
SWIDTH 1269 0
SWIDTH1 1269 0
BBX 18 25 7 -4
BITMAP
078000
0DC000
0C6000
0E3800
1B1C00
198600
086200
0C2300
07F100
1C3980
300C80
61C6C0
C7E2C0
FC2340
703040
F03040
983040
8830C0
8EE0C0
C3C080
C00180
600100
300300
1C0E00
07F800
ENDCHAR
STARTCHAR thumbsUp
ENCODING 128077
SWIDTH 1269 0
SWIDTH1 1269 0
BBX 24 25 4 -4
BITMAP
000E00
001B00
001900
001980
001980
001100
003100
006300
01C3FC
0303C4
060604
1E0604
F803FE
C003E6
C00703
C00F03
C039FE
C021FE
C00302
C00302
C001E6
FC03FC
070208
01E308
007FF8
ENDCHAR
STARTCHAR thumbsDown
ENCODING 128078
SWIDTH 1269 0
SWIDTH1 1269 0
BBX 24 25 4 -4
BITMAP
007FF8
01C308
070208
FC03FC
C001C6
C00302
C00302
C031FE
C03BFE
C00F03
C00703
C003F6
FC03FC
0E0604
020604
0303CC
01C3F8
006300
003100
001100
001980
001980
001900
001B00
000E00
ENDCHAR
STARTCHAR clappingHands
ENCODING 128079
SWIDTH 1269 0
SWIDTH1 1269 0
BBX 24 25 4 -4
BITMAP
000188
000090
01E0B0
033C02
3FB28E
4C53C0
663B40
331A4F
798E53
CCC772
466332
632036
F18036
988016
CC001E
66000E
30000E
18000A
0C000E
060016
030034
018028
00C078
0061E0
003F80
ENDCHAR
STARTCHAR openHands
ENCODING 128080
SWIDTH 1269 0
SWIDTH1 1269 0
BBX 30 19 1 -1
BITMAP
080000C0
1F8007E0
16800D20
7AC00970
6B4F8A50
2D6B52D0
F5AB56BC
96BB75AC
DADB6D68
4BA33758
6E2311D0
204310B0
30431020
10030060
18030040
080780C0
0C1CC080
07F03F80
01800600
ENDCHAR
STARTCHAR u1F451
ENCODING 128081
SWIDTH 1269 0
SWIDTH1 1269 0
BBX 29 25 1 -4
BITMAP
01E01C00
39E01E70
7DE71EF8
C4CF9C88
CCCCD888
7CECDCF8
38E7BC70
39F7BCE0
1FFDFEA0
17FCFFE0
17FCFFE0
1BF8FF60
19F07E60
38200060
38030060
18C78CE0
08C78CC0
0CC788C0
0C030080
07800780
07FFFE80
04078180
04000180
07C00F80
01FFFC00
ENDCHAR
STARTCHAR u1F452
ENCODING 128082
SWIDTH 1269 0
SWIDTH1 1269 0
BBX 30 21 1 -1
BITMAP
00040000
3F3FC000
77E06000
C0C03000
C0C25800
80C24800
80E24F00
C0704D80
C079C580
403EEDC0
601EFDE0
3006EFF0
3812EFD8
1C13FFD8
0E01FFD8
0390FBF8
01E038FC
007C39F0
000FFFB0
00007800
00003800
ENDCHAR
STARTCHAR u1F453
ENCODING 128083
SWIDTH 1269 0
SWIDTH1 1269 0
BBX 29 11 1 3
BITMAP
1FE01FC0
FFF8FFF8
E00FC038
E0078018
60048018
20048030
300C8030
300CC020
1018C060
1FF87FE0
03C00F00
ENDCHAR
STARTCHAR u1F454
ENCODING 128084
SWIDTH 1269 0
SWIDTH1 1269 0
BBX 26 25 3 -4
BITMAP
01FFE000
03003000
06001800
0CFF8C00
18FF8600
787F0780
C83E0C80
CC0C08C0
C40C08C0
C61E18C0
C23E10C0
C37330C0
C1FAE0C0
C19E40C0
C01E00C0
C03600C0
C03300C0
C02D00C0
C06700C0
C07900C0
C06D00C0
C06380C0
C07980C0
C07F80C0
FFFFFF80
ENDCHAR
STARTCHAR u1F455
ENCODING 128085
SWIDTH 1269 0
SWIDTH1 1269 0
BBX 29 25 1 -4
BITMAP
00FFFC00
03CFDF00
0E6FD980
1C3330E0
30386070
700FC038
D8000068
680000D8
64000190
37000730
1F0007E0
0D0006C0
01000600
01000600
01000600
01000600
01000600
01000600
01000600
01000600
01000600
01000600
01000600
01C01E00
007FF800
ENDCHAR
STARTCHAR u1F456
ENCODING 128086
SWIDTH 1269 0
SWIDTH1 1269 0
BBX 14 25 9 -4
BITMAP
FFFC
800C
FFFC
9064
B034
E01C
8004
8004
8304
8304
8704
8704
8784
8784
8584
8584
8584
8584
8584
8584
8484
FCFC
8484
848C
FCFC
ENDCHAR
STARTCHAR u1F457
ENCODING 128087
SWIDTH 1269 0
SWIDTH1 1269 0
BBX 20 25 6 -4
BITMAP
0F3C00
0F3400
0D3400
0DE400
0CCC00
0C0C00
040C00
040800
07F800
07FC00
0C0C00
080600
180600
130300
330300
220180
621080
6610C0
461860
C61830
840810
840C30
FC0FE0
1E1F00
03F000
ENDCHAR
STARTCHAR u1F458
ENCODING 128088
SWIDTH 1269 0
SWIDTH1 1269 0
BBX 26 25 3 -4
BITMAP
003F0000
007F8000
03CDE000
1E2B3E00
F0160380
80FFC080
9D004CC0
9CFFCEC0
888044C0
81FFE0C0
818060C0
A18063C0
83FFE0C0
828070C0
9A8456C0
C2845080
C2805080
42985080
7E905F80
1E845F00
008E4000
00864000
00804000
00804000
00FFC000
ENDCHAR
STARTCHAR u1F459
ENCODING 128089
SWIDTH 1269 0
SWIDTH1 1269 0
BBX 19 25 6 -4
BITMAP
003800
002800
07FE00
047B00
04B880
0EA880
1BC180
190380
2986C0
668CC0
58DB60
59F860
F86060
1FF620
007FE0
000000
001FC0
3FFE40
236040
3301C0
301980
1EC300
060400
033800
01F000
ENDCHAR
STARTCHAR u1F45A
ENCODING 128090
SWIDTH 1269 0
SWIDTH1 1269 0
BBX 28 25 2 -4
BITMAP
00FFE000
01BFB800
079F9E00
0C841700
18863180
30CF20C0
6079E060
E00000E0
9A0001B0
CF000F30
67000EE0
3F000B80
0B000900
03000800
03000800
03000800
03000C00
03000C00
03000C00
02000C00
02000C00
02000400
06000400
07801C00
03FFF800
ENDCHAR
STARTCHAR u1F45B
ENCODING 128091
SWIDTH 1269 0
SWIDTH1 1269 0
BBX 27 25 2 -4
BITMAP
003FC000
00664000
00666000
007FC000
003B8000
07FFFE00
1FFFFF80
300000C0
23FFFCC0
27FFFEC0
241F06C0
2C1782C0
2C36C3C0
386661C0
20060040
60000060
40000060
40000020
C0000020
40000020
40000060
60000060
200000C0
38000180
0FFFFF00
ENDCHAR
STARTCHAR u1F45C
ENCODING 128092
SWIDTH 1269 0
SWIDTH1 1269 0
BBX 25 25 3 -4
BITMAP
003E0000
00630000
00418000
00408000
00C08000
00C0C000
1FFFFE00
38804600
30804300
27FFFB00
6C804900
6D806900
698CED80
4988ED80
4980E580
49806480
48000480
4C000C80
C6001880
C3003080
C1002080
C1FFE080
C01F0080
60000180
3FFFFF00
ENDCHAR
STARTCHAR u1F45D
ENCODING 128093
SWIDTH 1269 0
SWIDTH1 1269 0
BBX 30 19 1 -1
BITMAP
0003E000
003FFE00
00E00380
0383E0E0
073FFE70
04F00790
0DC001D8
0B000068
1E00003C
1C00001C
1C00001C
1800000C
3800000C
5C000018
34000018
E6000030
E2000020
63FFFFE0
00FFFF80
ENDCHAR
STARTCHAR u1F45E
ENCODING 128094
SWIDTH 1269 0
SWIDTH1 1269 0
BBX 26 15 3 1
BITMAP
10300000
7E7C0000
7FEC0000
FFBE0000
CE1F0000
C0378000
C00CF000
C3C43E00
F8380780
CF000180
7F8000C0
3CE000C0
00380380
001FFF00
0001E000
ENDCHAR
STARTCHAR u1F45F
ENCODING 128095
SWIDTH 1269 0
SWIDTH1 1269 0
BBX 26 17 3 1
BITMAP
00E00000
31F00000
7B100000
FE180000
FE7F0000
805F0000
8037C000
87C6B000
9C753800
C0396600
C00FC300
F0078180
FF0407C0
7FC7FEC0
07F1F180
007C0F00
000FFC00
ENDCHAR
STARTCHAR u1F460
ENCODING 128096
SWIDTH 1269 0
SWIDTH1 1269 0
BBX 24 25 4 -4
BITMAP
1E0000
370000
678000
43C000
C3E000
81E000
81F000
80F000
80F800
C0F800
407C00
407C00
4C7E00
6C7F00
6E3F00
6A3F80
2A1FC0
2B0030
290018
29000C
398006
388003
004001
003807
000FFC
ENDCHAR
STARTCHAR u1F461
ENCODING 128097
SWIDTH 1269 0
SWIDTH1 1269 0
BBX 25 13 3 2
BITMAP
1C000000
7FC00000
C0F00000
E01C0000
FC07F800
CF03FE00
C3C3FF00
7367EF80
3E37C180
001FC080
000FC180
0003FF00
0000FC00
ENDCHAR
STARTCHAR womansBoot
ENCODING 128098
SWIDTH 1269 0
SWIDTH1 1269 0
BBX 19 25 6 -4
BITMAP
7FC000
7FF000
6FF000
6FF000
6E3000
663000
262000
262000
262000
262000
262000
262000
262000
243000
641000
401800
400C00
C00600
600380
7000E0
5C0020
6F0020
3D8060
08E1E0
003F80
ENDCHAR
STARTCHAR u1F463
ENCODING 128099
SWIDTH 1269 0
SWIDTH1 1269 0
BBX 24 25 4 -4
BITMAP
1B6000
5B7000
60F000
9F4000
3F8000
7F8000
7FC6D8
7FCEDE
7F8E16
7F86F1
7F01F9
7F03FC
7F03FC
3F83FE
3F83FE
1F81FE
1FC1FE
0F80FE
0700FC
0001FC
0001FC
0003F8
0003F8
0003F0
0001E0
ENDCHAR
STARTCHAR u1F464
ENCODING 128100
SWIDTH 1269 0
SWIDTH1 1269 0
BBX 22 25 5 -4
BITMAP
01FE00
030700
060180
0C00C0
080040
180060
100060
100060
100020
100020
100020
100060
180060
180040
0800C0
0C0080
060180
030700
03CE00
1FCFE0
700030
C00018
80000C
800004
FFFFFC
ENDCHAR
STARTCHAR u1F465
ENCODING 128101
SWIDTH 1269 0
SWIDTH1 1269 0
BBX 30 23 1 -3
BITMAP
01F8FE00
030FFF00
0603FF80
0C01FFC0
0801FFC0
1800FFC0
1000FFE0
1000FFE0
1000FFE0
1000FFE0
1000FFE0
1800FFE0
0801FFC0
0801FFC0
0C03FF80
0607FF80
039CFF00
0F9FFFC0
3801FFF0
60003FF8
C0001FF8
C0001FFC
FFFFFFF8
ENDCHAR
STARTCHAR u1F466
ENCODING 128102
SWIDTH 1269 0
SWIDTH1 1269 0
BBX 21 25 5 -4
BITMAP
07FC00
1F1E00
3E0B00
240D80
640480
4C04C0
4C06C0
4BF640
FFFF40
F6CFC0
E005E0
4618F0
4618F8
4408F8
4000F8
4318F8
41E0A0
400080
4000C0
4000C0
400040
600040
6000C0
3C0780
0FFE00
ENDCHAR
STARTCHAR u1F467
ENCODING 128103
SWIDTH 1269 0
SWIDTH1 1269 0
BBX 27 25 2 -4
BITMAP
007FC000
00FFF000
03FFF800
03FFFC00
07FFFE00
07FFFE00
0FFFFF00
3FFFFE80
2FFFFE40
2F492E40
36000E80
4630C620
2E30C740
7E0007C0
FE0007E0
7E3087E0
3E1F0580
06000400
06000400
06000600
02000200
02000600
03000E00
01E07800
007FE000
ENDCHAR
STARTCHAR u1F468
ENCODING 128104
SWIDTH 1269 0
SWIDTH1 1269 0
BBX 18 25 7 -4
BITMAP
07F800
1FFC00
3FFE00
7FFF00
7FFF80
FFFF80
FFFF80
FFFF80
E3E380
C00180
C00180
CC1980
CC1880
C00080
C00080
C63080
C1E080
400080
400080
400080
4000C0
4000C0
600180
3C0F00
0FFC00
ENDCHAR
STARTCHAR u1F469
ENCODING 128105
SWIDTH 1269 0
SWIDTH1 1269 0
BBX 21 25 5 -4
BITMAP
01FE00
07FF80
0FFFC0
1FFFE0
3FFFF0
7FFFF0
7FFFF8
7FF3F8
FF81F8
F800F8
F10478
F38678
F30678
700078
780078
398C70
387860
3800E0
300060
300020
300030
100020
180060
0F03C0
03FF00
ENDCHAR
STARTCHAR u1F46A
ENCODING 128106
SWIDTH 1269 0
SWIDTH1 1269 0
BBX 30 17 1 0
BITMAP
00783800
00F87C00
00FC7C00
00FC7800
00783800
38787878
7CFCFC78
7DFEFC78
3B7AFA78
7B7BFA78
7F7B7FFC
BA78FD74
F878387C
7C782870
38782830
28782830
28F86878
ENDCHAR
STARTCHAR womenAndMenHoldingHands
ENCODING 128107
SWIDTH 1269 0
SWIDTH1 1269 0
BBX 30 17 1 -2
BITMAP
0FC01FC0
18703060
30186030
60084018
400C8008
CC6498C8
8C65988C
80058004
8C471884
87C70F04
8007000C
E0030018
3FF23FF0
0016E000
000D4000
000DC000
00038000
ENDCHAR
STARTCHAR menHoldingHands
ENCODING 128108
SWIDTH 1269 0
SWIDTH1 1269 0
BBX 30 17 1 -2
BITMAP
0FC01FC0
18703060
30186030
60084018
400C8008
CC6498C8
8C65988C
80058004
8C471884
87C70F04
8007000C
E0030018
3FF23FF0
0016E000
000D4000
000DC000
00038000
ENDCHAR
STARTCHAR womenHoldingHands
ENCODING 128109
SWIDTH 1269 0
SWIDTH1 1269 0
BBX 30 17 1 -2
BITMAP
0FC01FC0
18703060
30186030
60084018
400C8008
CC6498C8
8C65988C
80058004
8C471884
87C70F04
8007000C
E0030018
3FF23FF0
0016E000
000D4000
000DC000
00038000
ENDCHAR
STARTCHAR u1F46E
ENCODING 128110
SWIDTH 1269 0
SWIDTH1 1269 0
BBX 18 25 7 -4
BITMAP
0FF800
380E00
600300
C00180
81E0C0
8370C0
BE3EC0
FF3F80
FFFF80
E7FF80
F93F80
DFFC80
C61880
C61880
C00080
C00080
C63080
C1E080
400080
4000C0
4000C0
4000C0
6001C0
3C0F80
0FFC00
ENDCHAR
STARTCHAR peopleWithBunnyEars
ENCODING 128111
SWIDTH 1269 0
SWIDTH1 1269 0
BBX 18 26 7 -4
BITMAP
600380
F80F80
7C1F80
7C1F00
6E3B00
67F300
663300
733700
7B2F00
5FFD00
CE3980
C00180
C00180
C00180
8C1980
8C1980
C41180
C00180
C41180
C3E180
C00080
C000C0
4000C0
600180
380700
0FFC00
ENDCHAR
STARTCHAR personInVeil
ENCODING 128112
SWIDTH 1269 0
SWIDTH1 1269 0
BBX 25 25 3 -4
BITMAP
003F0000
01E3E000
03323000
062A1800
0C7F0C00
187F8400
10EF8600
30CEC200
309CC300
21804100
61804100
61616180
4163E180
41412080
CF003C80
5C210C80
7C3F0D00
2C040900
2C000B00
3C000E00
04000C00
04000C00
06001800
03C0F800
00FFC000
ENDCHAR
STARTCHAR personWithBlondeHair
ENCODING 128113
SWIDTH 1269 0
SWIDTH1 1269 0
BBX 22 25 5 -4
BITMAP
08FF00
1F8180
1800C0
380030
400018
403E08
606108
C1C1CC
C30068
FE0028
B0002C
B3862C
F1862C
700028
700030
308430
307830
700038
100020
100030
100010
180030
180030
0F03E0
03FF80
ENDCHAR
STARTCHAR personWithSkullcap
ENCODING 128114
SWIDTH 1269 0
SWIDTH1 1269 0
BBX 18 25 7 -4
BITMAP
07F800
1E1E00
361B00
640900
440980
C40880
8FFCC0
FF3FC0
FF3FC0
FFFFC0
F807C0
C00080
461880
461880
400080
400080
463080
41E080
400080
4000C0
4000C0
6000C0
6001C0
3C0F80
0FFE00
ENDCHAR
STARTCHAR personWearingTurban
ENCODING 128115
SWIDTH 1269 0
SWIDTH1 1269 0
BBX 20 25 6 -4
BITMAP
07FE00
1CFF80
37C0C0
7C0FE0
F0FFE0
E78030
DC01F0
F0FFF0
C3DC30
CE0720
7801A0
670C60
670C40
600040
600040
631840
60F040
200040
200040
200060
200060
200060
3000E0
1E07C0
07FF00
ENDCHAR
STARTCHAR u1F474
ENCODING 128116
SWIDTH 1269 0
SWIDTH1 1269 0
BBX 20 25 6 -4
BITMAP
03FC00
0E0F00
180180
3000C0
600460
401E60
C0F220
C78330
DC0130
F001B0
E70CE0
C60C60
400020
440420
470A60
41F060
400060
400060
400060
400060
600020
600020
300060
3C03C0
0FFF00
ENDCHAR
STARTCHAR u1F475
ENCODING 128117
SWIDTH 1269 0
SWIDTH1 1269 0
BBX 24 25 4 -4
BITMAP
03FF80
0600C0
040020
0C0030
180218
307F0C
207904
20C1C4
618044
430046
C60042
C7C343
C6C343
C60062
7D013E
396690
183C10
180010
180010
180018
080018
080018
0C0038
0781F0
01FFC0
ENDCHAR
STARTCHAR u1F476
ENCODING 128118
SWIDTH 1269 0
SWIDTH1 1269 0
BBX 16 25 8 -4
BITMAP
0070
01F0
03FC
0446
0C02
1B03
1031
3381
2741
2821
6823
6747
738D
D839
CCE3
FF83
F803
8002
8002
8006
8006
C00C
6008
3038
1FE0
ENDCHAR
STARTCHAR u1F477
ENCODING 128119
SWIDTH 1269 0
SWIDTH1 1269 0
BBX 20 25 6 -4
BITMAP
01F000
071E00
0F1B00
191980
2118C0
611840
400060
400020
C00020
800030
C00070
7FFFE0
600040
600040
670C40
670C40
600040
200040
230840
20F060
200060
200060
3000E0
1E07C0
07FF00
ENDCHAR
STARTCHAR u1F934
ENCODING 128120
SWIDTH 1269 0
SWIDTH1 1269 0
BBX 20 25 6 -4
BITMAP
006000
0C6600
C4E230
E7BE70
FF0FF0
C06020
C46230
40F020
7F0FE0
C00020
7FFFE0
600060
620C40
670C40
620C40
600040
600840
21F840
206040
200060
200060
200060
3000E0
1E07C0
07FF00
ENDCHAR
STARTCHAR u1F479
ENCODING 128121
SWIDTH 1269 0
SWIDTH1 1269 0
BBX 25 25 3 -4
BITMAP
7FBC3E00
3FFEEE80
1DFFEF80
7DFFEF80
3DFFCF80
3CFFCF00
FCCC9E80
FE80DF80
FF007F80
DC000D80
CBE3ED80
CA323580
4AD2D580
5A2A2580
79CDC580
3F3F3700
3B2D3700
39002700
39FFEE00
3D156E00
1DFFDE00
1ED5FC00
0B7F6C00
01C1C800
007F8000
ENDCHAR
STARTCHAR u1F47A
ENCODING 128122
SWIDTH 1269 0
SWIDTH1 1269 0
BBX 25 25 3 -4
BITMAP
3FFFF000
707C1000
4D001800
4780E800
C7C3C800
C3E38800
C1E7A800
C7E7E800
C4A62800
C3A5A800
C2A54F80
C3C3D880
C007E080
C0010180
F21C0700
FFFFFC00
DFE3F800
5FBEF800
40C31800
609C9000
21F7B000
3100E000
1C00C000
07038000
03FE0000
ENDCHAR
STARTCHAR u1F47B
ENCODING 128123
SWIDTH 1269 0
SWIDTH1 1269 0
BBX 24 25 4 -4
BITMAP
001FC0
007070
00C018
01800C
036006
06F006
046002
0C2783
0C8F03
38C183
60F083
C1BE03
815C02
9939C2
F92306
492604
0CC44C
0C04C8
060718
020018
030018
018008
00E006
00380C
000FF8
ENDCHAR
STARTCHAR u1F47C
ENCODING 128124
SWIDTH 1269 0
SWIDTH1 1269 0
BBX 27 25 2 -4
BITMAP
00FFC000
0380E000
03F3E000
0CFFC700
3380CC80
69007960
D70031A0
6E003B40
1E001F00
04E79800
04001800
04001800
0C1C0C00
18000600
30001200
34000E00
3C000E00
06000800
03001800
01000800
01804400
00E1E400
00391800
000B0000
000E0000
ENDCHAR
STARTCHAR u1F47D
ENCODING 128125
SWIDTH 1269 0
SWIDTH1 1269 0
BBX 24 25 4 -4
BITMAP
01FF00
0781C0
0C0070
180018
30000C
600004
400006
C00002
C00003
BF00FB
BF81FF
BFC3FB
BFC3FB
DFC7FB
5FC7F2
6FC7E6
6383C4
30000C
10C318
187E30
0C3830
060060
0301C0
01C300
007E00
ENDCHAR
STARTCHAR u1F47E
ENCODING 128126
SWIDTH 1269 0
SWIDTH1 1269 0
BBX 30 25 1 -4
BITMAP
03E01F00
03601300
03601300
03FCFF00
00649000
00649000
F3E79F7C
93000364
93000364
9338F364
9338F364
9338F364
FF0003FC
10000060
10000060
1F0003E0
03000300
03000300
03E79F00
00649000
00649000
03FCFF00
03601300
03601300
03E01F00
ENDCHAR
STARTCHAR u1F47F
ENCODING 128127
SWIDTH 1269 0
SWIDTH1 1269 0
BBX 28 26 2 -4
BITMAP
C0000060
E07FE0F0
F9C079B0
CF000F30
C2000420
40000020
40000060
60000060
60000040
60000040
60000040
61001060
41C07060
4070E060
40F0E060
6070E060
60204040
20000040
200400C0
303F8080
1860E180
08000300
0E000600
03000C00
01E07800
007FC000
ENDCHAR
STARTCHAR u1F480
ENCODING 128128
SWIDTH 1269 0
SWIDTH1 1269 0
BBX 22 25 5 -4
BITMAP
03FE00
070380
1800C0
300060
200030
600018
400018
C00008
C00008
C0000C
CF038C
CF07CC
DF87CC
CF07C8
CF33C8
C03008
C0700C
C07008
600038
380070
180040
092240
0D22C0
072380
01FE00
ENDCHAR
STARTCHAR personTippingHand
ENCODING 128129
SWIDTH 1269 0
SWIDTH1 1269 0
BBX 22 25 5 -4
BITMAP
03F000
0C1800
180400
100600
300200
200200
200300
221100
661900
600100
600100
633138
40416C
C001CC
800018
900020
9801C0
C40300
760300
5C0100
600100
200100
200100
180600
0FFC00
ENDCHAR
STARTCHAR guard
ENCODING 128130
SWIDTH 1269 0
SWIDTH1 1269 0
BBX 18 25 7 -4
BITMAP
0FF800
3FFE00
7FFF00
7FFF00
7FFF00
FFFF80
FFFF80
FFFF80
FFFF80
FFFF80
FFFF80
FFFF80
FFFF80
FFFF80
CC1980
CC1980
C00180
E00380
E77380
D18480
D808C0
C630C0
61C180
380700
1FFC00
ENDCHAR
STARTCHAR womanDancing
ENCODING 128131
SWIDTH 1269 0
SWIDTH1 1269 0
BBX 19 25 6 -4
BITMAP
001F00
001180
03F8C0
0E1CC0
180C40
100440
300040
300040
304CC0
31EA80
342CC0
212EC0
61D640
410040
CC0060
C60060
E20040
720040
1E00C0
100080
180080
0F98C0
013C20
019620
01F3E0
ENDCHAR
STARTCHAR u1F484
ENCODING 128132
SWIDTH 1269 0
SWIDTH1 1269 0
BBX 16 25 8 -4
BITMAP
0F80
18E0
1030
3018
3418
3608
360C
338C
30EC
300C
300C
300C
300C
300C
300C
700C
7FFC
7FCC
FFCE
FFFF
FFE3
FFC3
FFC3
FFCF
7FFE
ENDCHAR
STARTCHAR u1F485
ENCODING 128133
SWIDTH 1269 0
SWIDTH1 1269 0
BBX 26 25 3 -4
BITMAP
00003FC0
000060C0
00004080
0000C080
0000C080
0000FC80
0E003F80
3F002F00
FE002800
3F303000
13F8E000
03F9E000
0FF9C000
18E80000
700F0000
C01F0000
007F0000
00FF0000
018F0000
03030000
0C060000
180C0000
30180000
60100000
C0200000
ENDCHAR
STARTCHAR personGettingMassage
ENCODING 128134
SWIDTH 1269 0
SWIDTH1 1269 0
BBX 28 25 2 -4
BITMAP
043FC200
C4E07220
47801A20
46C00620
44600620
44300260
44180660
470F0C60
43FFF860
40606060
40606020
C7C03E20
C6500630
C630C630
C6000620
42108420
621F8C60
22000CC0
3E000780
0E000700
02000600
02000600
03000C00
01E07800
007FE000
ENDCHAR
STARTCHAR personGettingHaircut
ENCODING 128135
SWIDTH 1269 0
SWIDTH1 1269 0
BBX 28 26 2 -4
BITMAP
000000E0
00000090
0000E090
001E3DE0
00FFDF00
03806D00
06003FE0
0400F890
08000C90
180004F0
18200400
1061C600
31EF7200
337C3200
22003200
26003300
67E29300
44411900
CC001D80
FC221F80
FC3E0B00
2C000F80
7C000F80
06001800
0380F000
01FFC000
ENDCHAR
STARTCHAR u1F488
ENCODING 128136
SWIDTH 1269 0
SWIDTH1 1269 0
BBX 12 25 10 -4
BITMAP
3FC0
6060
C020
FFF0
8010
8030
7FE0
7E60
7860
71E0
43E0
4FE0
5FE0
7E60
7C60
70E0
63E0
47E0
FFE0
8010
8010
FFF0
C020
6060
3FC0
ENDCHAR
STARTCHAR u1F489
ENCODING 128137
SWIDTH 1269 0
SWIDTH1 1269 0
BBX 23 23 4 -3
BITMAP
000002
000004
000198
0003F8
000670
000C30
001818
003018
006830
02DC60
0FA6C0
044580
062B00
031600
078C00
0CC800
18EC00
B1B800
E30800
760000
3C0000
180000
0C0000
ENDCHAR
STARTCHAR u1F48A
ENCODING 128138
SWIDTH 1269 0
SWIDTH1 1269 0
BBX 26 25 3 -4
BITMAP
1FC00000
30E00000
60300000
C0180000
C00C0000
80060000
80030000
C0018000
4000C000
6001E000
3003F000
1807F800
0C0F9C00
061FCE00
033FE700
01FFF380
00FFF980
007FFCC0
003FFCC0
001FFEC0
000FFFC0
0007FF80
0003FF80
0001FF00
0000FE00
ENDCHAR
STARTCHAR u1F48B
ENCODING 128139
SWIDTH 1269 0
SWIDTH1 1269 0
BBX 26 25 3 -4
BITMAP
001FFF80
00700180
00C20300
009F0780
00980F80
01803C80
0180FCC0
1F01F8C0
3803F0C0
6003F0C0
4007E0C0
4007E080
C01FC080
C07FC080
C0FF8080
41FF0180
43FE0180
43F80100
47E00300
47800600
CF030C00
DC3F1800
F8007000
F803E000
1FFF0000
ENDCHAR
STARTCHAR loveLetter
ENCODING 128140
SWIDTH 1269 0
SWIDTH1 1269 0
BBX 28 19 2 -1
BITMAP
FFFFFFE0
E0000070
B00000F0
980001B0
8C7BE330
86CE3630
83841C30
81801030
80801030
80C03030
81E07830
8330CC30
86398630
8C1F0330
98060330
B00001B0
B00000F0
E0000070
FFFFFFE0
ENDCHAR
STARTCHAR u1F48D
ENCODING 128141
SWIDTH 1269 0
SWIDTH1 1269 0
BBX 20 25 6 -4
BITMAP
07FC00
051200
0FFF00
0D1200
049600
029C00
0FAE00
18F180
31F8C0
670C40
4C0220
C80120
9001B0
900090
900090
900090
900090
9001B0
D80120
4C0320
660E40
31F8C0
180180
0E0700
03FC00
ENDCHAR
STARTCHAR u1F48E
ENCODING 128142
SWIDTH 1269 0
SWIDTH1 1269 0
BBX 30 25 1 -4
BITMAP
00FFF800
01800600
06000380
0E0001C0
1B000340
11000660
31E01E30
67BFF790
78830C78
E047881C
784CC878
365859B0
19F03E60
087FF8C0
04203180
02102300
01106600
00984400
00C8C800
006C9000
0034A000
001F4000
000F8000
00078000
00030000
ENDCHAR
STARTCHAR u1F48F
ENCODING 128143
SWIDTH 1269 0
SWIDTH1 1269 0
BBX 30 25 1 -4
BITMAP
007CF800
00878C00
01830400
01000600
01800400
01800400
00800C00
00C00800
00601800
00303000
00186000
000CC000
0FC70F80
187038E0
30186030
6178FA18
4E0C8388
C034A008
8015A00C
8017E004
80174004
80172004
8007800C
E00CC018
3FF87FF0
ENDCHAR
STARTCHAR u1F490
ENCODING 128144
SWIDTH 1269 0
SWIDTH1 1269 0
BBX 24 25 4 -4
BITMAP
000020
0F8360
0BC2BC
09E2B8
1CF268
0FF248
07F6C8
07F608
03E218
40B330
7F19E1
618C8E
F0C49E
9C42BC
667DB8
E0C7F8
FF83F8
023FF8
006018
009F0C
01E0C6
01003A
000011
00000A
000004
ENDCHAR
STARTCHAR coupleWithHeart
ENCODING 128145
SWIDTH 1269 0
SWIDTH1 1269 0
BBX 30 25 1 -4
BITMAP
00FCF800
00878C00
01030600
01000200
01000200
01000600
01800400
00800C00
00400800
00601000
00302000
00184000
0FED9FC0
18333060
20186030
6008C018
440C8088
CC6498CC
8065988C
80078004
8C471984
83870704
C005800C
601CC018
3FF03FE0
ENDCHAR
STARTCHAR u1F492
ENCODING 128146
SWIDTH 1269 0
SWIDTH1 1269 0
BBX 28 25 2 -4
BITMAP
01C00800
01603DC0
03203FC0
02303FC0
04101FC0
0C081F80
1FFC0F00
19CDA400
0929F000
0BA9F000
0A28E000
0BE88000
3FFFFF80
3FFFFFC0
41E00060
C3300030
FC9FFFF0
79EFFFE0
4A344420
4ED0E620
4930E620
4820E620
48E0E620
F83F0020
FFFFFFE0
ENDCHAR
STARTCHAR u1F493
ENCODING 128147
SWIDTH 1269 0
SWIDTH1 1269 0
BBX 28 25 2 -4
BITMAP
1C000380
700000C0
C0C03860
8FC03E30
1C000380
300020C0
23F1FCC0
661B0640
0C860300
09840300
0B000100
0B000100
08000100
08000300
0C000200
06000600
02000C00
330008C0
11801980
58C03300
CC606320
66318660
331F1CC0
19061980
08000300
ENDCHAR
STARTCHAR u1F494
ENCODING 128148
SWIDTH 1269 0
SWIDTH1 1269 0
BBX 28 25 2 -4
BITMAP
0FE07F00
3870E1C0
601980C0
40090060
C01B0020
C01B0030
80120030
80360030
C0260030
C0660020
40320020
601B0060
60098040
300CC0C0
100D8180
18190100
0C130300
06320600
03120C00
01921800
00DB3000
007B6000
0039C000
00190000
00040000
ENDCHAR
STARTCHAR u1F495
ENCODING 128149
SWIDTH 1269 0
SWIDTH1 1269 0
BBX 26 25 3 -4
BITMAP
00000F00
0001D880
000270C0
000400C0
000400C0
00040080
0F060080
3F830180
60C18100
4060E200
C0203600
C03F0C00
C03BC000
C0006000
C0006000
C0002000
C0002000
C0002000
40006000
4000C000
60018000
20070000
203C0000
37F00000
1F000000
ENDCHAR
STARTCHAR u1F496
ENCODING 128150
SWIDTH 1269 0
SWIDTH1 1269 0
BBX 28 25 2 -4
BITMAP
0FE07F00
3870C1C0
601988C0
430F0C60
C7061E20
CC043F30
88000C30
88000830
C800C830
C0400020
40400020
60600060
60600040
30E010C0
13FC3980
1BF81300
0CE00300
06618600
03600C00
01C01800
00C07000
0060E000
00398000
000F0000
00060000
ENDCHAR
STARTCHAR u1F497
ENCODING 128151
SWIDTH 1269 0
SWIDTH1 1269 0
BBX 26 25 3 -4
BITMAP
1FC0FC00
30730700
601E0100
400C0080
C7C0F880
9C738CC0
B01E0240
A00C0340
E0000140
E3F3F1C0
E41E1980
6C0C0980
68000D00
28000700
38000E00
1C000E00
0C000C00
06001800
02003000
01006000
0080C000
00418000
00230000
001E0000
000C0000
ENDCHAR
STARTCHAR u1F498
ENCODING 128152
SWIDTH 1269 0
SWIDTH1 1269 0
BBX 26 25 3 -4
BITMAP
F0000000
F8000000
F0000000
79E07800
0FF9FC00
0C0B0600
08860300
19840300
1B000100
1B000300
08000300
08000300
0C070200
06060600
020F0C00
03019800
0180F000
00C06000
0060FC00
00399F80
000F1F80
00061FC0
00001F00
00001F80
00000E00
ENDCHAR
STARTCHAR u1F499
ENCODING 128153
SWIDTH 1269 0
SWIDTH1 1269 0
BBX 28 25 2 -4
BITMAP
0FE07F00
3870C1C0
7FF9FFC0
7FFFFFE0
C0060020
FFFFFFF0
FFFFFFF0
80000030
C0000030
FFFFFFE0
40000020
60000060
7FFFFFC0
3FFFFFC0
10000180
1FFFFF00
0FFFFF00
06000600
03000C00
01FFF800
00C07000
0060E000
003F8000
000F0000
00060000
ENDCHAR
STARTCHAR u1F49A
ENCODING 128154
SWIDTH 1269 0
SWIDTH1 1269 0
BBX 28 25 2 -4
BITMAP
0FE07F00
38F0C5C0
6C79E3C0
663F11E0
F11F88E0
D88CC670
CC666330
E63331B0
F11998F0
D88CC460
4C666220
663331E0
711988C0
388CC4C0
1C666380
1E333300
0D198B00
068CC600
03666C00
01B33800
00D9F000
006CE000
003F8000
000F0000
00060000
ENDCHAR
STARTCHAR u1F49B
ENCODING 128155
SWIDTH 1269 0
SWIDTH1 1269 0
BBX 28 25 2 -4
BITMAP
0FE07F00
3870C1C0
6939C9C0
400F0060
E44F2460
E40D2070
80000030
CB496D30
C0000030
D49494A0
449490A0
60000060
6B496940
300000C0
10909180
1C949700
0C000300
07696E00
03000C00
01801800
00D4F000
0060E000
003F8000
000F0000
00060000
ENDCHAR
STARTCHAR u1F49C
ENCODING 128156
SWIDTH 1269 0
SWIDTH1 1269 0
BBX 28 25 2 -4
BITMAP
0FE07F00
3E70F3C0
6CD9E6C0
598FCC60
F33799A0
E6673330
CCC46630
9988CC70
F33199B0
C6633320
4CC46620
7988CC60
733199C0
366333C0
1CC46780
1988CF00
0F319B00
06633600
03C46C00
0198D800
00F1F000
0063C000
003D8000
000F0000
00060000
ENDCHAR
STARTCHAR u1F49D
ENCODING 128157
SWIDTH 1269 0
SWIDTH1 1269 0
BBX 28 25 2 -4
BITMAP
0FE07F00
3870C1C0
60198060
600F0020
C0660030
C0F20030
E1700030
F1780030
BF780030
BF7FFFF0
BDFFFFE0
BFFFFFE0
FFFFFFC0
7FE000C0
7EF80180
0EF00180
0E300300
1E100600
07000C00
01801800
00C03000
0070E000
00198000
000F0000
00060000
ENDCHAR
STARTCHAR u1F49E
ENCODING 128158
SWIDTH 1269 0
SWIDTH1 1269 0
BBX 26 25 3 -4
BITMAP
0003EF80
007E38C0
03841040
06040040
08040040
13FA0080
2E030180
38010100
3000C200
60006D80
3C3C3980
7F7E1180
C1830280
81810700
80010D00
80017100
C0030200
C0030200
60060400
20040800
10083000
0819E000
06640000
03C00000
01800000
ENDCHAR
STARTCHAR u1F49F
ENCODING 128159
SWIDTH 1269 0
SWIDTH1 1269 0
BBX 26 25 3 -4
BITMAP
FFFFFF80
FFFFFFC0
FFFFFFC0
FFFFFFC0
FE3F1FC0
F81C07C0
F00C07C0
F00003C0
F00003C0
F00003C0
F00003C0
F00007C0
F80007C0
F8000FC0
FC000FC0
FE001FC0
FF003FC0
FF807FC0
FFC0FFC0
FFE1FFC0
FFFFFFC0
FFFFFFC0
FFFFFFC0
FFFFFFC0
7FFFFF80
ENDCHAR
STARTCHAR diamondWithDot
ENCODING 128160
SWIDTH 1269 0
SWIDTH1 1269 0
BBX 26 25 3 -4
BITMAP
000C0000
001E0000
00330000
00618000
00C08000
00C0C000
01C0E000
03E1E000
0F7F7C00
199CEE00
30D2C300
605E8180
C05E80C0
605E8180
30E2C300
1D9E6E00
0FFF7C00
03C1E000
01C0E000
00C0C000
00C08000
00618000
00330000
001E0000
000C0000
ENDCHAR
STARTCHAR lightBulb
ENCODING 128161
SWIDTH 1269 0
SWIDTH1 1269 0
BBX 17 25 7 -4
BITMAP
07F800
1E1C00
300600
600300
600180
42D080
C46080
C4E080
C2D080
42D180
62F180
615300
321300
112600
192600
192600
192600
0FFC00
09FC00
0F8C00
047800
071800
047800
03F000
01E000
ENDCHAR
STARTCHAR u1F4A2.alt
ENCODING 128162
SWIDTH 1269 0
SWIDTH1 1269 0
BBX 26 25 3 -4
BITMAP
0C000800
06001800
07003800
0380F000
E3FFE1C0
71FFC380
387F8F00
1C000E00
0E001C00
0E003C00
07003800
07003800
07003800
07003800
0F003800
0E003C00
0E001C00
1C000E00
387F8F00
F1FFC380
C3FFE1C0
03807000
07003800
06001800
0C000800
ENDCHAR
STARTCHAR u1F4A3
ENCODING 128163
SWIDTH 1269 0
SWIDTH1 1269 0
BBX 21 25 5 -4
BITMAP
000840
0004C0
0007C0
0004F8
001D00
003EE0
000238
008208
07F808
1FFFE8
39FFB0
3BFFB0
67FFF0
4FFFF0
CFFFE0
DFFFC0
FFFFC0
FFFFC0
FFFFC0
7FFF80
7FFF80
3FFF00
1FFF00
0FFC00
07F800
ENDCHAR
STARTCHAR zzz
ENCODING 128164
SWIDTH 1269 0
SWIDTH1 1269 0
BBX 24 19 4 -1
BITMAP
001F00
00FF00
00F700
000E00
000E00
001C03
001C1F
0E3806
3F3B8E
FE7FCC
EE7F18
0E401F
0C0018
0C0000
1C0000
1DE000
1FE000
3F0000
180000
ENDCHAR
STARTCHAR collision
ENCODING 128165
SWIDTH 1269 0
SWIDTH1 1269 0
BBX 26 25 3 -4
BITMAP
80000000
600C0300
700E0700
3C0E0E00
170B1E00
1B897600
08F9C400
0D3A8C00
06962DC0
0667EF80
037FCB00
FF3FC300
303FF600
19FFEC00
0C7FCC00
063FC780
0EEFC780
1C1B5E00
31802C00
7F8CC400
81BEF600
01E79E00
01838700
01010000
00010000
ENDCHAR
STARTCHAR sweatDroplets
ENCODING 128166
SWIDTH 1269 0
SWIDTH1 1269 0
BBX 25 25 3 -4
BITMAP
001FF800
00F81E00
01804700
00E07900
00601980
08300080
0C180080
0E0C0080
0F040080
09860180
18C38300
1840FE00
10603800
30338000
2033F800
60911C00
40990700
C0998B00
C0998D80
C0108480
40108080
6030C080
70604180
3FC07380
0F003F00
ENDCHAR
STARTCHAR u1F4A7
ENCODING 128167
SWIDTH 1269 0
SWIDTH1 1269 0
BBX 17 25 7 -4
BITMAP
008000
00C000
01E000
032000
023000
061800
0C0800
0C0C00
180600
100600
300300
200100
600100
400180
400080
400080
D80080
D80080
480080
4C0180
660180
23C100
300300
1C0C00
07F800
ENDCHAR
STARTCHAR dashingAway
ENCODING 128168
SWIDTH 1269 0
SWIDTH1 1269 0
BBX 29 25 1 -4
BITMAP
0000FC00
081F8700
1E7F0180
32660180
32C00080
14C000C0
2CC000E0
70C180F0
00638090
FFE60198
000C0308
000C0208
3FFC0008
000C0008
800C0008
FFE60018
00438030
78C08030
3CC000E0
16C007C0
32C00680
32660180
1C3F0100
081FC700
0000FC00
ENDCHAR
STARTCHAR u1F4A9
ENCODING 128169
SWIDTH 1269 0
SWIDTH1 1269 0
BBX 25 25 3 -4
BITMAP
00180000
00780000
00F80000
00FE0000
00FFC000
01FFE000
01FFF000
07FFF000
07FFF000
0FFFF800
0FFFFC00
0F1E3C00
1E4C9E00
3EEDDF00
7ECD9F80
FE1C3F80
FFFFFF80
FFFFFF80
FF003F80
7F007F80
7F807F00
3FE1FF00
1FFFFC00
07FFF800
01FFC000
ENDCHAR
STARTCHAR u1F4AA
ENCODING 128170
SWIDTH 1269 0
SWIDTH1 1269 0
BBX 26 25 3 -4
BITMAP
007E0000
00C60000
01830000
03390000
06310000
0D9F0000
08FE0000
18F80000
30800000
31800000
21800000
61804000
4183FC00
418E0700
C1980100
C1F00180
C1E000C0
830000C0
823000C0
821004C0
C2180CC0
C007F980
6001C300
38000E00
0FFFF800
ENDCHAR
STARTCHAR dizzy
ENCODING 128171
SWIDTH 1269 0
SWIDTH1 1269 0
BBX 25 25 3 -4
BITMAP
0FC00000
18700000
181C0000
08060000
00030000
00018000
0000C000
00006000
00703000
38F01800
3F900C00
33100400
30100600
10180200
180E0300
30030100
600F0180
403C0180
FE270180
6361C180
0170FF80
01DC0880
00CE0180
0003C300
0000FE00
ENDCHAR
STARTCHAR u1F4AC
ENCODING 128172
SWIDTH 1269 0
SWIDTH1 1269 0
BBX 22 21 5 -2
BITMAP
01FE00
0FFFC0
1800E0
300030
600018
C00008
C0000C
84008C
8E31C4
8E31C4
80000C
C0000C
C00008
600018
300070
1801E0
0CFF80
0CF800
098000
1F0000
1C0000
ENDCHAR
STARTCHAR thoughtBubble
ENCODING 128173
SWIDTH 1269 0
SWIDTH1 1269 0
BBX 26 25 3 -4
BITMAP
000FF800
01F8FE00
03100300
06000180
0C000080
0C000080
0C0000C0
04000080
0C000080
08000080
080000C0
180000C0
08000080
0C000180
0C000300
07C00600
01E00600
0660DC00
0F3FF800
098E0000
09800000
6F000000
F0000000
90000000
F0000000
ENDCHAR
STARTCHAR u1F4AE
ENCODING 128174
SWIDTH 1269 0
SWIDTH1 1269 0
BBX 26 25 3 -4
BITMAP
00370000
03CDF000
02C09000
0E80DC00
08804400
1F007E00
70000380
40000180
60000100
706D0380
C06D80C0
C00000C0
40080180
706D8380
D8000E80
EC000DC0
280C0D00
48000580
78000780
18000600
100C0600
1E371C00
0361B000
01FFE000
00120000
ENDCHAR
STARTCHAR hundredPoints
ENCODING 128175
SWIDTH 1269 0
SWIDTH1 1269 0
BBX 26 25 3 -4
BITMAP
03803C00
0F19FF00
3F37DF80
F6673180
C6C37180
0EC36180
0D876180
0D86E180
1986C180
1986C380
3986C300
318CC300
319CE600
21F87E00
60F03800
60000000
4003FC00
01FFC000
0FF007C0
0F00FE00
000FC000
01FC0000
1FE00000
FE000000
F0000000
ENDCHAR
STARTCHAR u1F4B0
ENCODING 128176
SWIDTH 1269 0
SWIDTH1 1269 0
BBX 23 25 4 -4
BITMAP
0004F0
001F98
001B08
001218
00180C
001E0C
001FB8
00FFF0
0380C0
0E0460
180C30
307C30
20C650
60C270
406018
40380C
C00C06
C18C02
C18C02
40FC02
407002
60C006
30000C
1E00F8
07FFC0
ENDCHAR
STARTCHAR u1F4B1
ENCODING 128177
SWIDTH 1269 0
SWIDTH1 1269 0
BBX 22 25 5 -4
BITMAP
103F00
1047D0
7E01F0
FE00F0
F600F0
D003F0
F00000
F80000
7E0000
1E0E3C
170F38
170778
FE07F0
FE03F0
7803E0
1007F8
1007F8
0001C0
0007F8
1F07F8
3E01C0
3C01C0
3E0000
27C400
03F800
ENDCHAR
STARTCHAR u1F4B2
ENCODING 128178
SWIDTH 1269 0
SWIDTH1 1269 0
BBX 12 25 10 -4
BITMAP
0600
0600
3FC0
7FF0
FFE0
FFE0
F620
F600
F600
FE00
FF00
7FC0
3FE0
0FF0
07F0
06F0
06F0
86F0
F7F0
FFE0
FFE0
7F80
0600
0600
0600
ENDCHAR
STARTCHAR u1F4B3
ENCODING 128179
SWIDTH 1269 0
SWIDTH1 1269 0
BBX 28 19 2 -1
BITMAP
7FFFFFE0
C0000060
C0000030
80000030
FFFFFFF0
FFFFFFF0
FFFFFFF0
FFFFFFF0
80000030
80000030
8FFFFF30
8B000130
88578130
88000130
8FFFFF30
80000030
C0000030
C0000060
7FFFFFE0
ENDCHAR
STARTCHAR yenBanknote
ENCODING 128180
SWIDTH 1269 0
SWIDTH1 1269 0
BBX 30 22 1 -2
BITMAP
FFFFFFFC
FFFFFFFC
C018400C
C7F87F0C
C418408C
D818406C
D258402C
D358402C
D198402C
D3D8402C
D3D8402C
D198402C
D818406C
C418408C
C7F87F0C
C018400C
FFF87FFC
FFF87FFC
C018400C
FFF87FFC
C018400C
FFFFFFFC
ENDCHAR
STARTCHAR dollarBanknote
ENCODING 128181
SWIDTH 1269 0
SWIDTH1 1269 0
BBX 30 22 1 -2
BITMAP
FFFFFFFC
FFFFFFFC
C018400C
C7F87F0C
C418408C
D898406C
D1D8402C
D118402C
D198402C
D0D8402C
D078402C
D3D8402C
D898406C
C418408C
C7F87F0C
C018400C
FFF87FFC
FFF87FFC
C018400C
FFF87FFC
C018400C
FFFFFFFC
ENDCHAR
STARTCHAR euroBanknote
ENCODING 128182
SWIDTH 1269 0
SWIDTH1 1269 0
BBX 30 22 1 -2
BITMAP
FFFFFFFC
FFFFFFFC
C018400C
C7F87F0C
C418408C
D818406C
D1D8402C
D218402C
D7D8402C
D798402C
D218402C
D1D8402C
D818406C
C418408C
C7F87F0C
C018400C
FFF87FFC
FFF87FFC
C018400C
FFF87FFC
C018400C
FFFFFFFC
ENDCHAR
STARTCHAR poundBanknote
ENCODING 128183
SWIDTH 1269 0
SWIDTH1 1269 0
BBX 30 22 1 -2
BITMAP
FFFFFFFC
FFFFFFFC
C018400C
C7F87F0C
C418408C
D818406C
D1F8402C
D118402C
D118402C
D118402C
D118402C
D3F8402C
D818406C
C418408C
C7F87F0C
C018400C
FFF87FFC
FFF87FFC
C018400C
FFF87FFC
C018400C
FFFFFFFC
ENDCHAR
STARTCHAR moneyWithWings
ENCODING 128184
SWIDTH 1269 0
SWIDTH1 1269 0
BBX 29 25 1 -4
BITMAP
03E03800
0630CC00
18118200
77539900
D19E04C0
744D0260
1F0E0030
07DB0070
00F182D0
0030C510
00586A30
01AC1460
074609C0
0C131FF0
0E9D9810
0B44F010
09295550
049AF4B0
0645BE10
03232688
019C63A8
00D0C0A8
00718078
00370018
001C0000
ENDCHAR
STARTCHAR chartIncreasingWithYen
ENCODING 128185
SWIDTH 1269 0
SWIDTH1 1269 0
BBX 26 25 3 -4
BITMAP
FFFFFF80
FFFFFFC0
FFFFFFC0
F3CFFFC0
F19FFCC0
F99FFCC0
F93FFDC0
FC3FFDC0
F01FF9C0
FE7FF9C0
F01FFBC0
FE7FFBC0
FE7FF3C0
FE7E77C0
FFFE67C0
FFEE2FC0
FF848FC0
FF31DFC0
F379DFC0
F079FFC0
E4FFFFC0
CEFFFFC0
FFFFFFC0
FFFFFFC0
7FFFFF80
ENDCHAR
STARTCHAR u1F4BA
ENCODING 128186
SWIDTH 1269 0
SWIDTH1 1269 0
BBX 20 25 6 -4
BITMAP
7FE000
F03000
901000
901000
903000
9FE000
BE2000
B03000
903000
901000
901FE0
D00FF0
F80E00
FFBFC0
7FC060
780020
67C020
7E2060
3FA3C0
1FBF00
07F7C0
0401E0
040000
3F0000
07C000
ENDCHAR
STARTCHAR laptop
ENCODING 128187
SWIDTH 1269 0
SWIDTH1 1269 0
BBX 28 22 2 -2
BITMAP
1FFFFF80
1FFFFF80
10000080
13FFFC80
13FFFC80
13FFFC80
13FFFC80
13FFFC80
13FFFC80
13FFFC80
13FFFC80
13FFFC80
13FFFC80
10000080
1FFFFF80
300000C0
20000040
7FA56FE0
5A7FEDA0
FFFFFFF0
80000030
FFFFFFF0
ENDCHAR
STARTCHAR u1F4BC
ENCODING 128188
SWIDTH 1269 0
SWIDTH1 1269 0
BBX 29 25 1 -4
BITMAP
001FC000
003FE000
00102000
00102000
3FFFFFF0
60000018
40000008
40000008
40000008
40000018
60000018
E0000038
D80FC068
CE0841C8
C3F87F08
C00FC008
C0084008
C0084008
400FC008
40000008
40000008
40000008
40000008
60000018
3FFFFFF0
ENDCHAR
STARTCHAR computerDisk
ENCODING 128189
SWIDTH 1269 0
SWIDTH1 1269 0
BBX 26 25 3 -4
BITMAP
FFFFFF80
FF807FC0
FE001FC0
FC000FC0
F00007C0
F00003C0
E00001C0
C01C01C0
C06300C0
C04080C0
809E5FC0
80BF5FC0
80BF5FC0
80BF5FC0
809E5FC0
C04080C0
C03300C0
C01C01C0
E00001C0
F00003C0
F80007C0
FC000FC0
FE001FC0
FF80FFC0
7FFFFF80
ENDCHAR
STARTCHAR u1F4BE
ENCODING 128190
SWIDTH 1269 0
SWIDTH1 1269 0
BBX 26 25 3 -4
BITMAP
7FFFFE00
F8001F00
F8079F00
F8079F80
F8079FC0
F8079FC0
F8079FC0
F8079FC0
F8001FC0
F8001FC0
FFFFFFC0
FFFFFFC0
FFFFFFC0
F00007C0
F00007C0
F00007C0
F1FFE7C0
F00007C0
F00007C0
F00007C0
F1FFE7C0
F00007C0
F00007C0
F00007C0
7FFFFF80
ENDCHAR
STARTCHAR opticalDisk
ENCODING 128191
SWIDTH 1269 0
SWIDTH1 1269 0
BBX 26 25 3 -4
BITMAP
00FFC000
03807000
06001800
0C800C00
13800600
37C00300
2FC00100
47800180
413F0080
C07F8080
80E380C0
80E1C0C0
80C1C0C0
80E1C0C0
80E380C0
C07F8080
403F6080
4000F180
2000F900
3000F300
18006600
0C004C00
06001800
0380E000
00FF8000
ENDCHAR
STARTCHAR u1F4C0
ENCODING 128192
SWIDTH 1269 0
SWIDTH1 1269 0
BBX 26 25 3 -4
BITMAP
00FFC000
03FFF000
07FFF800
0E7FFC00
187FFE00
303FFF00
303FFF00
787FFF80
7EC0FF80
FF807F80
FF1C7FC0
FF1E3FC0
FF3E3FC0
FF1E3FC0
FF1C7FC0
FF807F80
7FC0DF80
7FFF8780
3FFF0300
3FFF0700
1FFF8E00
0FFF9C00
07FFF800
03FFE000
00FF8000
ENDCHAR
STARTCHAR u1F4C1
ENCODING 128193
SWIDTH 1269 0
SWIDTH1 1269 0
BBX 27 25 2 -4
BITMAP
07C00F80
3E63FD80
303F01A0
200007E0
E001FC20
C03F0020
C0200020
C0200060
C0600040
DFC00040
D0000040
D0000040
D0000040
F00000C0
F00000C0
E0000080
E0000080
E0000080
E0000180
E0001F80
C001F000
C01F0000
41F00000
5F000000
70000000
ENDCHAR
STARTCHAR u1F4C2
ENCODING 128194
SWIDTH 1269 0
SWIDTH1 1269 0
BBX 29 25 1 -4
BITMAP
07C00600
3C41FE00
207F0200
20400200
E0000200
80000208
800003F8
8000FE18
80038010
80060030
80060020
803C0020
83E00040
C2000040
C20000C0
C4000080
C4000180
C8000100
C8000100
D8001E00
D001F000
F01F0000
E1F00000
FF000000
F0000000
ENDCHAR
ENDFONT
